SplineFontDB: 3.2
FontName: BesleyCondensed-Italic
FullName: Besley Condensed Italic
FamilyName: Besley Condensed
Weight: Book
UComments: "2016-4-15: Created with FontForge (http://fontforge.org)"
Version: 002.100
ItalicAngle: -13
UnderlinePosition: -200
UnderlineWidth: 100
Ascent: 1600
Descent: 400
InvalidEm: 0
LayerCount: 2
Layer: 0 0 "Back" 1
Layer: 1 0 "Fore" 0
XUID: [1021 31 -699969567 16487490]
FSType: 0
OS2Version: 0
OS2_WeightWidthSlopeOnly: 0
OS2_UseTypoMetrics: 1
CreationTime: 1460762150
PfmFamily: 17
TTFWeight: 400
TTFWidth: 3
LineGap: 0
VLineGap: 0
OS2TypoAscent: 2500
OS2TypoAOffset: 0
OS2TypoDescent: -850
OS2TypoDOffset: 0
OS2TypoLinegap: 0
OS2WinAscent: 2500
OS2WinAOffset: 0
OS2WinDescent: 850
OS2WinDOffset: 0
HheadAscent: 2500
HheadAOffset: 0
HheadDescent: -850
HheadDOffset: 0
OS2CapHeight: 1500
OS2XHeight: 1040
OS2FamilyClass: 1024
OS2Vendor: 'it* '
OS2UnicodeRanges: 00000001.00000000.00000000.00000000
Lookup: 4 0 1 "'liga' Standard Ligatures lookup 0" { "'liga' Standard Ligatures lookup 0 subtable"  } ['liga' ('DFLT' <'dflt' > 'grek' <'dflt' > 'latn' <'dflt' > ) ]
Lookup: 1 0 0 "'onum' Oldstyle Figures lookup 1" { "'onum' Oldstyle Figures lookup 1 subtable" ("oldstyle") } ['onum' ('DFLT' <'dflt' > 'grek' <'dflt' > 'latn' <'dflt' > ) ]
Lookup: 1 0 0 "'tnum' Tabular Numbers lookup 2" { "'tnum' Tabular Numbers lookup 2 subtable"  } ['tnum' ('DFLT' <'dflt' > 'grek' <'dflt' > 'latn' <'dflt' > ) ]
Lookup: 1 0 0 "'ss01' Style Set 1 lookup 3" { "'ss01' Style Set 1 lookup 3 subtable"  } ['ss01' ('DFLT' <'dflt' > 'grek' <'dflt' > 'latn' <'dflt' > ) ]
Lookup: 6 0 0 "'calt' Contextual Alternates lookup 4" { "'calt' Contextual Alternates lookup 4 contextual 0"  "'calt' Contextual Alternates lookup 4 contextual 1"  } ['calt' ('DFLT' <'dflt' > 'grek' <'dflt' > 'latn' <'dflt' > ) ]
Lookup: 1 0 0 "'smcp' Lowercase to Small Capitals in Latin lookup 0" { "'smcp' Lowercase to Small Capitals in Latin lookup 0 subtable"  } ['smcp' ('latn' <'dflt' > ) ]

StartChar: ampersand
Encoding: 38 38 0
Width: 1740
Flags: MW
LayerCount: 2
Fore
SplineSet
1356 728 m 0
 1286 728 1248 776 1248 852 c 0
 1248 912 1300 978 1398 978 c 0
 1534 978 1580 892 1580 770 c 0
 1580 607 1379 365 1103 192 c 0
 1079 177 1078 175 1090 147 c 0
 1113 93 1141 64 1206 64 c 0
 1264 64 1301 96 1339 158 c 0
 1345 169 1345 170 1358 165 c 2
 1402 147 l 2
 1424 138 1418 132 1408 111 c 0
 1369 29 1281 -60 1122 -60 c 0
 1024 -60 956 -12 906 60 c 0
 893 79 894 82 870 72 c 0
 732 15 584 -20 440 -20 c 0
 154 -20 2 114 2 320 c 0
 2 628 258 760 523 868 c 0
 573 888 570 890 550 940 c 0
 516 1024 498 1096 498 1166 c 0
 498 1346 688 1520 980 1520 c 0
 1154 1520 1292 1470 1292 1310 c 0
 1292 1101 1102 999 882 909 c 0
 810 880 809 880 837 806 c 2
 1029 308 l 2
 1042 273 1042 271 1072 290 c 0
 1302 434 1462 627 1462 718 c 0
 1462 750 1458 760 1442 760 c 0
 1418 760 1424 728 1356 728 c 0
222 360 m 0
 222 216 302 110 510 110 c 0
 615 110 718 131 817 166 c 0
 847 177 845 178 834 207 c 2
 623 752 l 2
 601 808 589 790 540 766 c 0
 362 678 222 562 222 360 c 0
1104 1320 m 0
 1104 1394 1064 1440 978 1440 c 0
 804 1440 708 1346 708 1240 c 0
 708 1182 725 1110 761 1008 c 0
 777 964 783 972 822 991 c 0
 983 1068 1104 1161 1104 1320 c 0
EndSplineSet
EndChar

StartChar: period
Encoding: 46 46 1
Width: 564
Flags: MW
LayerCount: 2
Fore
SplineSet
-7 100 m 0
 -7 173 52 232 125 232 c 0
 198 232 257 173 257 100 c 0
 257 27 198 -32 125 -32 c 0
 52 -32 -7 27 -7 100 c 0
EndSplineSet
EndChar

StartChar: zero
Encoding: 48 48 2
Width: 880
Flags: MW
LayerCount: 2
Fore
SplineSet
116 750 m 0
 241 1316 401 1520 647 1520 c 0
 913 1520 961 1316 836 750 c 0
 711 184 532 -20 306 -20 c 0
 60 -20 -9 184 116 750 c 0
336 750 m 0
 218 216 220 80 328 80 c 0
 456 80 498 216 616 750 c 0
 734 1284 753 1420 625 1420 c 0
 517 1420 454 1284 336 750 c 0
EndSplineSet
Substitution2: "'onum' Oldstyle Figures lookup 1 subtable" zero.oldstyle
Substitution2: "'tnum' Tabular Numbers lookup 2 subtable" uniFF10
EndChar

StartChar: one
Encoding: 49 49 3
Width: 700
Flags: MW
LayerCount: 2
Fore
SplineSet
-32 38 m 2
 -32 80 l 2
 -32 109 -25 110 4 110 c 2
 122 110 l 2
 158 110 166 118 174 152 c 2
 400 1173 l 2
 408 1209 407 1220 372 1220 c 2
 275 1220 l 2
 246 1220 239 1222 239 1254 c 2
 239 1284 l 2
 239 1320 253 1329 291 1330 c 0
 365 1331 473 1345 563 1538 c 0
 574 1561 580 1580 614 1580 c 2
 642 1580 l 2
 667 1580 681 1579 675 1554 c 2
 366 162 l 2
 356 115 360 110 408 110 c 2
 470 110 l 2
 496 110 518 108.831980012 518 80 c 2
 518 40 l 2
 518 8.169921875 506 0 475 0 c 2
 4 0 l 2
 -26 0 -32 7 -32 38 c 2
EndSplineSet
Substitution2: "'onum' Oldstyle Figures lookup 1 subtable" one.oldstyle
Substitution2: "'tnum' Tabular Numbers lookup 2 subtable" uniFF11
EndChar

StartChar: two
Encoding: 50 50 4
Width: 840
Flags: MW
LayerCount: 2
Fore
SplineSet
712 325 m 0
 669 63 589 -20 466 -20 c 0
 302 -20 288 100 192 100 c 0
 133 100 97 73 67 30 c 0
 56 13 48 0 21 0 c 2
 -27 0 l 2
 -48 0 -48 10 -44 29 c 0
 27 307 166 501 389 698 c 0
 516 810 632 942 683 1170 c 0
 722 1348 698 1426 570 1426 c 0
 463 1426 412 1358 404 1324 c 0
 394 1278 513 1258 488 1146 c 0
 472 1072 397 1030 343 1030 c 0
 285 1030 213 1086 241 1212 c 0
 271 1346 397 1520 661 1520 c 0
 893 1520 954 1390 905 1170 c 0
 852 930 686 755 413 580 c 0
 278 493 168 339 115 204 c 0
 99 163 70 134 86 134 c 0
 105 134 115 157 142 191 c 0
 178 238 230 269 310 269 c 0
 410 269 420 181 512 181 c 0
 569 181 590 235 617 327 c 0
 625 350 625 354 651 354 c 2
 692 354 l 2
 715 354 716 349 712 325 c 0
EndSplineSet
Substitution2: "'onum' Oldstyle Figures lookup 1 subtable" two.oldstyle
Substitution2: "'tnum' Tabular Numbers lookup 2 subtable" uniFF12
EndChar

StartChar: three
Encoding: 51 51 5
Width: 780
Flags: MW
LayerCount: 2
Fore
SplineSet
-25 248 m 0
 -4 344 65 430 143 430 c 0
 217 430 248 388 232 314 c 0
 207 202 103 202 93 156 c 0
 81 102 138 63 206 63 c 0
 374 63 449 232 482 380 c 0
 523 564 498 705 353 717 c 0
 308 721 277 703 277 762 c 2
 277 780 l 2
 277 839 331 823 377 826 c 0
 520 834 593 1026 619 1142 c 0
 652 1290 658 1436 520 1436 c 0
 422 1436 376 1390 364 1336 c 0
 354 1290 480 1300 455 1188 c 0
 439 1114 390 1072 316 1072 c 0
 238 1072 207 1158 228 1254 c 0
 255 1378 365 1520 589 1520 c 0
 811 1520 866 1382 822 1182 c 0
 759 896 666 881 587 834 c 0
 538 805 492 792 487 770 c 0
 483 754 519 746 559 733 c 0
 706 683 718 534 684 380 c 0
 635 160 470 -20 188 -20 c 0
 14 -20 -59 94 -25 248 c 0
EndSplineSet
Substitution2: "'onum' Oldstyle Figures lookup 1 subtable" three.oldstyle
Substitution2: "'tnum' Tabular Numbers lookup 2 subtable" uniFF13
EndChar

StartChar: four
Encoding: 52 52 6
Width: 870
Flags: MW
LayerCount: 2
Fore
SplineSet
689 84 m 2
 689 36 l 2
 689 13 676 0 652 0 c 2
 322 0 l 2
 297 0 287 5 287 32 c 2
 287 77 l 2
 287 103 299 110 324 110 c 2
 356 110 l 2
 377 110 386 115 390 135 c 2
 454 422 l 2
 461 453 459 460 429 460 c 2
 126 460 l 2
 96 460 90 463 79 477 c 2
 59 503 l 2
 44 522 50 528 67 555 c 0
 280 886 529 1050 719 1447 c 0
 734 1477 731 1500 772 1500 c 2
 881 1500 l 2
 922 1500 928 1496 915 1459 c 0
 769 1047 456 874 241 618 c 0
 215 587 219 570 276 570 c 2
 468 570 l 2
 489 570 488 575 492 595 c 2
 520 720 l 2
 527 753 535 752 555 765 c 0
 610 801 648 848 698 938 c 0
 708 955 708 970 733 970 c 2
 739 970 l 2
 765 970 763 963 758 939 c 2
 686 614 l 2
 678 576 681 570 718 570 c 2
 775 570 l 2
 802 570 809 563 809 535 c 2
 809 490 l 2
 809 463 794 460 766 460 c 2
 687 460 l 2
 656 460 649 450 643 421 c 2
 582 146 l 2
 575 115 580 110 612 110 c 2
 649 110 l 2
 674 110 689 109 689 84 c 2
EndSplineSet
Substitution2: "'onum' Oldstyle Figures lookup 1 subtable" four.oldstyle
Substitution2: "'tnum' Tabular Numbers lookup 2 subtable" uniFF14
EndChar

StartChar: five
Encoding: 53 53 7
Width: 840
Flags: MW
LayerCount: 2
Fore
SplineSet
-13 258 m 0
 11 364 91 410 149 410 c 0
 203 410 253 368 237 294 c 0
 221 222 118 182 108 136 c 0
 100 102 138 64 216 64 c 0
 394 64 494 252 540 460 c 0
 599 728 630 902 492 902 c 0
 409 902 349 869 282 803 c 0
 263 783 253 774 215 774 c 2
 173 774 l 2
 135 774 140 788 151 818 c 2
 377 1462 l 2
 388 1493 397 1500 431 1500 c 2
 577 1500 l 2
 649 1500 734 1469 809 1536 c 0
 821 1547 829 1564 854 1564 c 2
 911 1564 l 2
 925 1564 928 1562 922 1550 c 2
 899 1500 l 2
 827 1336 787 1320 513 1320 c 2
 469 1320 l 2
 439 1320 427 1316 417 1288 c 2
 303 966 l 2
 286 918 271 894 278 890 c 0
 290 884 303 902 343 934 c 0
 381 964 460 1000 538 1000 c 0
 810 1000 813 780 751 500 c 0
 684 200 500 -20 218 -20 c 0
 -6 -20 -43 124 -13 258 c 0
EndSplineSet
Substitution2: "'onum' Oldstyle Figures lookup 1 subtable" five.oldstyle
Substitution2: "'tnum' Tabular Numbers lookup 2 subtable" uniFF15
EndChar

StartChar: six
Encoding: 54 54 8
Width: 840
Flags: MW
LayerCount: 2
Fore
SplineSet
735 1392 m 0
 741 1418 704 1436 656 1436 c 0
 494 1436 414 1193 333 900 c 0
 324 867 316 854 322 850 c 0
 329 846 338 859 358 879 c 0
 405 923 473 960 575 960 c 0
 777 960 847 800 774 470 c 0
 705 160 516 -20 304 -20 c 0
 52 -20 -30 180 94 740 c 0
 200 1220 393 1520 695 1520 c 0
 829 1520 906 1426 881 1312 c 0
 855 1196 775 1150 717 1150 c 0
 663 1150 613 1192 629 1266 c 0
 645 1338 729 1366 735 1392 c 0
574 470 m 0
 625 698 597 862 489 862 c 0
 363 862 289 720 254 560 c 0
 188 262 166 70 324 70 c 0
 452 70 526 252 574 470 c 0
EndSplineSet
Substitution2: "'tnum' Tabular Numbers lookup 2 subtable" uniFF16
EndChar

StartChar: seven
Encoding: 55 55 9
Width: 818
Flags: MW
LayerCount: 2
Fore
SplineSet
178 1162 m 0
 243 1439 352 1520 507 1520 c 0
 621 1520 644 1400 740 1400 c 0
 814 1400 854 1433 885 1483 c 0
 893 1496 895 1500 914 1500 c 2
 983 1500 l 2
 1006 1500 1001 1494 993 1473 c 0
 936 1323 743 1008 579 736 c 0
 465 548 413 472 393 384 c 0
 361 238 420 208 400 116 c 0
 384 42 330 -20 242 -20 c 0
 164 -20 126 54 157 192 c 0
 196 370 329 554 467 762 c 0
 571 918 671 1097 759 1254 c 0
 771 1276 781 1291 777 1296 c 0
 773 1301 757 1283 735 1277 c 0
 707 1269 677 1266 641 1266 c 0
 541 1266 516 1334 434 1334 c 0
 333 1334 301 1281 272 1166 c 0
 269 1151 267 1146 252 1146 c 2
 196 1146 l 2
 181 1146 175 1147 178 1162 c 0
EndSplineSet
Substitution2: "'onum' Oldstyle Figures lookup 1 subtable" seven.oldstyle
Substitution2: "'tnum' Tabular Numbers lookup 2 subtable" uniFF17
EndChar

StartChar: eight
Encoding: 56 56 10
Width: 740
Flags: MW
LayerCount: 2
Fore
SplineSet
203 420 m 0
 150 182 178 70 256 70 c 0
 334 70 410 182 463 420 c 0
 518 668 486 760 408 760 c 0
 330 760 258 668 203 420 c 0
213 1140 m 0
 273 1410 385 1520 577 1520 c 0
 769 1520 833 1410 773 1140 c 0
 728 937 639 860 551 827 c 0
 529 819 517 818 515 811 c 0
 514 805 521 801 542 794 c 0
 676 754 711 638 663 420 c 0
 610 180 518 -20 236 -20 c 0
 -46 -20 -50 180 3 420 c 0
 51 635 139 732 280 784 c 0
 301 792 329 799 331 808 c 0
 333 817 317 819 289 833 c 0
 221 867 169 940 213 1140 c 0
393 1140 m 0
 342 912 383 860 431 860 c 0
 479 860 542 912 593 1140 c 0
 644 1368 605 1430 557 1430 c 0
 509 1430 444 1368 393 1140 c 0
EndSplineSet
Substitution2: "'tnum' Tabular Numbers lookup 2 subtable" uniFF18
EndChar

StartChar: nine
Encoding: 57 57 11
Width: 840
Flags: MW
LayerCount: 2
Fore
SplineSet
178 108 m 0
 172 82 208 64 256 64 c 0
 418 64 499 307 580 600 c 0
 589 633 596 646 590 650 c 0
 583 654 575 641 555 621 c 0
 508 577 440 540 338 540 c 0
 136 540 65 700 138 1030 c 0
 207 1340 397 1520 609 1520 c 0
 861 1520 942 1320 818 760 c 0
 712 280 520 -20 218 -20 c 0
 84 -20 7 74 32 188 c 0
 58 304 138 350 196 350 c 0
 250 350 300 308 284 234 c 0
 268 162 184 134 178 108 c 0
338 1030 m 0
 287 802 315 638 423 638 c 0
 549 638 623 780 658 940 c 0
 724 1238 747 1430 589 1430 c 0
 461 1430 386 1248 338 1030 c 0
EndSplineSet
Substitution2: "'onum' Oldstyle Figures lookup 1 subtable" nine.oldstyle
Substitution2: "'tnum' Tabular Numbers lookup 2 subtable" uniFF19
EndChar

StartChar: A
Encoding: 65 65 12
Width: 1210
Flags: MW
AnchorPoint: "Anchor-0" 723 1500 basechar 0
AnchorPoint: "Anchor-1" 436 0 basechar 0
AnchorPoint: "Anchor-2" 436 0 basechar 0
AnchorPoint: "Anchor-3" 826 0 basechar 0
LayerCount: 2
Back
SplineSet
669 1322 m 258
 318 578 l 258
 307 554 304 550 340 550 c 258
 666 550 l 258
 707 550 715 552 714 596 c 258
 700 1316 l 258
 699 1357 686 1357 669 1322 c 258
-161 42 m 258
 -151 84 l 258
 -147 104 -140 110 -118 110 c 258
 -92 110 l 258
 -50 110 -36 121 -22 150 c 266
 641 1500 l 258
 647 1509 651 1510 664 1510 c 258
 844 1510 l 258
 860 1510 865 1509 867 1498 c 258
 932 154 l 258
 934 121 932 110 978 110 c 258
 1036 110 l 258
 1063 110 1064 106 1058 79 c 258
 1048 35 l 258
 1041 4 1039 0 1008 0 c 258
 628 0 l 258
 602 0 591 3 597 32 c 258
 607 78 l 258
 613 106 624 110 650 110 c 258
 712 110 l 258
 734 110 738 127 737 146 c 258
 727 386 l 258
 725 431 724 440 660 440 c 258
 305 440 l 258
 259 440 244 432 229 400 c 258
 111 158 l 274
 95 125 97 110 131 110 c 258
 182 110 l 258
 206 110 214 105 208 80 c 258
 197 32 l 258
 190 0 190 0 158 0 c 258
 -120 0 l 258
 -157 0 -170 2 -161 42 c 258
EndSplineSet
Fore
SplineSet
644 1268 m 2
 329 598 l 2
 313.058198404 564.092041049 311 550 354 550 c 2
 666 550 l 2
 717 550 716.957117329 552.865912367 716 596 c 2
 701 1272 l 2
 699.842784683 1324.15183694 703 1346 688 1346 c 0
 677 1346 663.927251995 1310.38494869 644 1268 c 2
-150 34 m 2
 -150 72 l 2
 -150 101 -149 110 -120 110 c 2
 -72 110 l 2
 -35 110 -40 122 -26 144 c 2
 632 1482 l 2
 644 1501 649 1510 683 1510 c 2
 818 1510 l 2
 854 1510 861 1504 866 1474 c 2
 932 160 l 2
 934.427540452 111.669876461 960 110 997 110 c 2
 1013 110 l 2
 1042 110 1047 104 1047 74 c 2
 1047 34 l 2
 1047 4 1040 0 1009 0 c 2
 639 0 l 2
 613 0 613 7 613 33 c 2
 613 78 l 2
 613 110 620 110 652 110 c 2
 693 110 l 2
 727 110 738.919589151 112.789502615 737 150 c 2
 724 402 l 2
 722.254882812 437.161132812 704 440 666 440 c 2
 302 440 l 2
 269 440 250 440 238 420 c 2
 105 144 l 2
 94.3376125286 121.873541789 103 110 145 110 c 2
 176 110 l 2
 198 110 210 106 210 82 c 2
 210 38 l 2
 210 5 204 0 170 0 c 2
 -122 0 l 2
 -153 0 -150 4 -150 34 c 2
EndSplineSet
Substitution2: "'c2sc' Capitals to Small Capitals in Latin lookup 1 subtable" a.sc
EndChar

StartChar: B
Encoding: 66 66 13
Width: 1018
Flags: MW
AnchorPoint: "Anchor-0" 583 1500 basechar 0
AnchorPoint: "Anchor-1" 296 0 basechar 0
AnchorPoint: "Anchor-2" 296 0 basechar 0
LayerCount: 2
Back
SplineSet
382 110 m 258
 544 110 645 212 689 410 c 256
 733 608 700 720 518 720 c 258
 377 720 l 258
 334 720 326 711 316 666 c 258
 201 148 l 258
 194 115 203 110 238 110 c 258
 382 110 l 258
371 830 m 258
 522 830 l 258
 704 830 770 912 814 1110 c 256
 858 1308 808 1390 626 1390 c 258
 511 1390 l 258
 479 1390 473 1378 466 1345 c 258
 361 870 l 258
 352 831 356 830 371 830 c 258
408 0 m 258
 -91 0 l 258
 -122 0 -132 1 -125 32 c 258
 -115 76 l 258
 -108 106 -99 110 -71 110 c 258
 -28 110 l 258
 0 110 13 113 19 140 c 258
 288 1352 l 258
 296 1388 288 1390 251 1390 c 258
 217 1390 l 258
 183 1390 177 1393 184 1426 c 258
 193 1468 l 258
 199 1495 209 1500 234 1500 c 258
 671 1500 l 258
 923 1500 1077 1390 1019 1130 c 256
 972 917 855 835 747 793 c 256
 716 781 717 773 739 766 c 256
 864 728 947 630 894 390 c 256
 827 90 600 0 408 0 c 258
EndSplineSet
Fore
SplineSet
394 0 m 2
 -70 0 l 2
 -104 0 -110 5 -110 41 c 2
 -110 85 l 2
 -110 104 -104 110 -86 110 c 2
 -34 110 l 2
 6 110 19 115 26 149 c 2
 283 1353 l 2
 290 1386 286 1390 244 1390 c 2
 236 1390 l 2
 207 1390 196 1393 196 1425 c 2
 196 1479 l 2
 196 1498 204 1500 224 1500 c 2
 674 1500 l 2
 946 1500 1029 1380 1029 1220 c 0
 1029 1016 918 852 764 795 c 0
 739.888666047 786.075675095 729 785 729 776 c 0
 729 767 752.040311777 760.982723524 773 752 c 0
 850 719 911 651 911 530 c 0
 911 290 776 -4.67815077274e-14 394 0 c 2
374 110 m 2
 656 110 704 412 704 550 c 0
 704 658 646 720 534 720 c 2
 384 720 l 2
 351 720 346 711 340 683 c 2
 226 151 l 2
 220 124 217 110 254 110 c 2
 374 110 l 2
414 830 m 2
 534 830 l 2
 736 830 829 1002 829 1220 c 0
 829 1338 766 1390 644 1390 c 2
 524 1390 l 2
 489 1390 490 1387 484 1359 c 2
 380 871 l 2
 373 840 372 830 414 830 c 2
EndSplineSet
Substitution2: "'c2sc' Capitals to Small Capitals in Latin lookup 1 subtable" b.sc
EndChar

StartChar: C
Encoding: 67 67 14
Width: 1109
Flags: MW
AnchorPoint: "Anchor-0" 795 1500 basechar 0
AnchorPoint: "Anchor-1" 447 0 basechar 0
AnchorPoint: "Anchor-2" 447 0 basechar 0
LayerCount: 2
Back
SplineSet
51 750 m 256
 150 1196 406 1520 712 1520 c 256
 905 1520 970 1426 1005 1333 c 256
 1010 1319 1018 1330 1027 1349 c 258
 1101 1492 l 258
 1108 1506 1107 1510 1126 1510 c 258
 1180 1510 l 258
 1197 1510 1200 1507 1196 1491 c 258
 1090 1016 l 258
 1085 994 1078 990 1055 990 c 258
 994 990 l 258
 968 990 976 998 977 1019 c 256
 986 1213 930 1404 756 1404 c 256
 488 1404 332 1114 251 750 c 256
 170 386 179 98 447 98 c 256
 668 98 820 335 900 574 c 256
 904 586 910 590 924 590 c 258
 994 590 l 258
 1008 590 1016 589 1012 576 c 256
 912 236 712 -20 411 -20 c 256
 5 -20 -48 304 51 750 c 256
EndSplineSet
Fore
SplineSet
1012 553 m 0
 921 313 775 -20 430 -20 c 0
 124 -20 9 120 9 420 c 0
 9 842 244 1520 720 1520 c 0
 874 1520 945 1441 982 1376 c 0
 997.77629802 1348.28488186 1000 1351 1017 1380 c 2
 1075 1484 l 2
 1082 1496 1092 1500 1112 1500 c 2
 1172 1500 l 2
 1192 1500 1195 1497 1191 1479 c 2
 1092 1023 l 2
 1086 995 1084 990 1050 990 c 2
 1010 990 l 2
 979 990 978 997 980 1022 c 0
 997 1241 899 1398 736 1398 c 0
 384 1398 209 770 209 420 c 0
 209 186 278 106 456 106 c 0
 694 106 826 381 899 562 c 0
 905.866450984 579.025036002 914 590 939 590 c 2
 974 590 l 2
 1020 590 1023.0987569 582.271446759 1012 553 c 0
EndSplineSet
Substitution2: "'c2sc' Capitals to Small Capitals in Latin lookup 1 subtable" c.sc
EndChar

StartChar: D
Encoding: 68 68 15
Width: 1124
Flags: MW
AnchorPoint: "Anchor-0" 623 1500 basechar 0
AnchorPoint: "Anchor-1" 303 0 basechar 0
AnchorPoint: "Anchor-2" 303 0 basechar 0
LayerCount: 2
Back
SplineSet
-123 34 m 258
 -115 72 l 258
 -108 104 -103 110 -72 110 c 258
 -18 110 l 258
 12 110 15 119 22 150 c 258
 287 1346 l 258
 295 1380 296 1390 262 1390 c 258
 234 1390 l 258
 192 1390 177 1391 185 1426 c 258
 195 1471 l 258
 201 1496 226 1500 257 1500 c 258
 742 1500 l 258
 1068 1500 1159 1176 1065 750 c 256
 971 324 715 0 409 0 c 258
 -96 0 l 258
 -126 0 -129 6 -123 34 c 258
224 110 m 258
 353 110 l 258
 621 110 764 296 865 750 c 256
 968 1214 885 1390 637 1390 c 258
 510 1390 l 258
 493 1390 476 1385 467 1346 c 258
 201 144 l 258
 194 112 191 110 224 110 c 258
EndSplineSet
Fore
SplineSet
-80 32 m 2
 -80 78 l 2
 -80 110 -70 110 -38 110 c 2
 -6 110 l 2
 28 110 32 126 38 152 c 2
 291 1338 l 2
 301 1386 298 1390 238 1390 c 2
 232 1390 l 2
 195 1390 194 1399 194 1436 c 2
 194 1458 l 2
 194 1492 197 1500 230 1500 c 2
 726 1500 l 2
 1012 1500 1106 1306 1106 1040 c 0
 1106 494 832 0 406 0 c 2
 -48 0 l 2
 -73 0 -80 5 -80 32 c 2
278 110 m 2
 366 110 l 2
 674 110 906 596 906 1080 c 0
 906 1304 814 1390 656 1390 c 2
 566 1390 l 2
 509 1390 501 1384 491 1338 c 2
 238 152 l 2
 230 117 232 110 278 110 c 2
EndSplineSet
Substitution2: "'c2sc' Capitals to Small Capitals in Latin lookup 1 subtable" d.sc
EndChar

StartChar: E
Encoding: 69 69 16
Width: 1013
Flags: MW
AnchorPoint: "Anchor-0" 603 1500 basechar 0
AnchorPoint: "Anchor-1" 306 0 basechar 0
AnchorPoint: "Anchor-2" 306 0 basechar 0
AnchorPoint: "Anchor-3" 586 0 basechar 0
LayerCount: 2
Back
SplineSet
247 1390 m 258
 212 1390 l 258
 179 1390 178 1401 185 1432 c 258
 192 1462 l 258
 199 1493 205 1500 235 1500 c 258
 1037 1500 l 258
 1083 1500 1090 1498 1080 1452 c 258
 995 1070 l 258
 988 1038 992 1030 958 1030 c 258
 948 1030 l 258
 919 1030 920 1042 925 1068 c 256
 973 1312 839 1390 666 1390 c 258
 530 1390 l 258
 494 1390 484 1384 476 1346 c 258
 369 860 l 258
 363 831 361 816 373 816 c 258
 445 816 l 258
 555 816 626 897 652 1014 c 256
 657 1041 666 1046 686 1046 c 258
 719 1046 l 258
 741 1046 748 1039 743 1016 c 258
 637 536 l 258
 630 504 625 496 596 496 c 258
 563 496 l 258
 551 496 535 499 543 530 c 256
 568 647 560 736 421 736 c 258
 374 736 l 258
 349 736 339 728 331 692 c 258
 212 154 l 258
 204 117 207 110 246 110 c 258
 362 110 l 258
 576 110 745 190 814 478 c 256
 820 504 827 510 845 510 c 258
 853 510 l 258
 878 510 890 507 884 480 c 258
 786 34 l 258
 780 6 773 0 746 0 c 258
 -92 0 l 258
 -122 0 -131 4 -124 36 c 258
 -114 82 l 258
 -108 109 -99 110 -72 110 c 258
 -42 110 l 258
 7 110 14 116 25 166 c 258
 287 1348 l 258
 296 1389 288 1390 247 1390 c 258
EndSplineSet
Fore
SplineSet
343 692 m 2
 221 156 l 2
 211 114 216 110 270 110 c 2
 336 110 l 2
 599 110 707 189 786 472 c 0
 794 500 791 510 830 510 c 2
 860 510 l 2
 890 510 895 507 890 484 c 2
 787 46 l 2
 778 7 771 0 722 0 c 2
 -44 0 l 2
 -68 0 -80 3 -80 30 c 2
 -80 64 l 2
 -80 102 -77 110 -40 110 c 2
 -32 110 l 2
 14 110 12 115 20 152 c 2
 292 1345 l 2
 301 1386 292 1390 252 1390 c 2
 248 1390 l 2
 211 1390 208 1398 208 1436 c 2
 208 1468 l 2
 208 1497 230 1500 256 1500 c 2
 1022 1500 l 2
 1080 1500 1088 1499 1077 1452 c 2
 990 1072 l 2
 981 1035 983 1030 936 1030 c 2
 907 1030 l 2
 874 1030 885 1051 889 1074 c 0
 934 1313 881 1390 660 1390 c 2
 560 1390 l 2
 495 1390 499 1381 487 1330 c 2
 381 862 l 2
 372 822 374 816 426 816 c 2
 456 816 l 2
 570 816 603 891 650 1002 c 0
 659 1024 657 1046 689 1046 c 2
 720 1046 l 2
 756 1046 754 1037 747 1008 c 2
 635 532 l 2
 629 507 633 496 600 496 c 2
 568 496 l 2
 534 496 542 522 544 546 c 0
 554 655 548 736 456 736 c 2
 400 736 l 2
 350 736 352 732 343 692 c 2
EndSplineSet
Substitution2: "'c2sc' Capitals to Small Capitals in Latin lookup 1 subtable" e.sc
EndChar

StartChar: F
Encoding: 70 70 17
Width: 978
Flags: MW
AnchorPoint: "Anchor-0" 673 1500 basechar 0
AnchorPoint: "Anchor-1" 86 0 basechar 0
AnchorPoint: "Anchor-2" 86 0 basechar 0
LayerCount: 2
Back
SplineSet
267 1390 m 258
 200 1390 l 258
 181 1390 177 1392 181 1412 c 258
 196 1481 l 258
 199 1495 202 1500 216 1500 c 258
 1067 1500 l 258
 1088 1500 1089 1493 1084 1471 c 258
 991 1050 l 258
 987 1031 977 1030 958 1030 c 258
 936 1030 l 258
 916 1030 918 1035 922 1054 c 256
 976 1313 875 1390 646 1390 c 258
 520 1390 l 258
 495 1390 483 1376 478 1353 c 258
 363 836 l 258
 355 802 360 796 393 796 c 258
 484 796 l 258
 579 796 643 856 680 964 c 256
 689 992 692 1006 726 1006 c 258
 750 1006 l 258
 773 1006 781 1004 776 982 c 258
 670 503 l 258
 666 485 663 476 645 476 c 258
 593 476 l 258
 574 476 576 481 579 499 c 256
 600 623 568 696 462 696 c 258
 362 696 l 258
 334 696 330 688 324 659 c 258
 211 150 l 258
 204 118 206 110 240 110 c 258
 314 110 l 258
 333 110 342 109 338 90 c 258
 325 30 l 258
 319 4 309 0 285 0 c 258
 -107 0 l 258
 -127 0 -132 0 -128 20 c 258
 -112 92 l 258
 -108 109 -99 110 -81 110 c 258
 -15 110 l 258
 7 110 14 117 19 140 c 258
 290 1360 l 258
 296 1387 293 1390 267 1390 c 258
EndSplineSet
Fore
SplineSet
-110 42 m 2
 -110 78 l 2
 -110 107 -97 110 -70 110 c 2
 -24 110 l 2
 15 110 12 115 19 146 c 2
 292 1350 l 2
 300 1385 297 1390 252 1390 c 2
 238 1390 l 2
 197 1390 188 1391 188 1432 c 2
 188 1466 l 2
 188 1497 199 1500 228 1500 c 2
 1032 1500 l 2
 1089 1500 1088 1496 1077 1449 c 2
 990 1072 l 2
 982 1038 986 1030 942 1030 c 2
 914 1030 l 2
 880 1030 883 1044 888 1068 c 0
 935 1312 883 1390 660 1390 c 2
 560 1390 l 2
 505 1390 500 1386 490 1341 c 2
 372 820 l 2
 367 799 373 796 400 796 c 2
 466 796 l 2
 622 796 636 873 682 986 c 0
 690 1006 687 1026 716 1026 c 2
 756 1026 l 2
 781 1026 785 1021 781 1002 c 2
 661 478 l 2
 657 459 651 456 627 456 c 2
 604 456 l 2
 565 456 571 471 574 500 c 0
 587 612 580 696 456 696 c 2
 374 696 l 2
 355 696 344 696 340 680 c 2
 219 146 l 2
 213 117 214 110 252 110 c 2
 298 110 l 2
 323 110 324 101 324 76 c 2
 324 34 l 2
 324 3 313 0 284 0 c 2
 -76 0 l 2
 -109 0 -110 9 -110 42 c 2
EndSplineSet
Substitution2: "'c2sc' Capitals to Small Capitals in Latin lookup 1 subtable" f.sc
EndChar

StartChar: G
Encoding: 71 71 18
Width: 1150
Flags: MW
AnchorPoint: "Anchor-0" 815 1500 basechar 0
AnchorPoint: "Anchor-1" 387 0 basechar 0
AnchorPoint: "Anchor-2" 387 0 basechar 0
LayerCount: 2
Back
SplineSet
746 740 m 258
 1080 740 l 258
 1120 740 1129 737 1119 694 c 258
 1108 644 l 258
 1102 615 1094 610 1063 610 c 258
 1033 610 l 258
 1003 610 999 603 992 572 c 258
 967 462 l 258
 959 428 955 414 945 382 c 256
 880 170 697 -20 411 -20 c 256
 -5 -20 -48 304 51 750 c 256
 150 1196 386 1520 762 1520 c 256
 923 1520 1002 1447 1024 1379 c 256
 1030 1358 1041 1361 1056 1394 c 258
 1089 1464 l 258
 1098 1483 1110 1500 1127 1500 c 258
 1171 1500 l 258
 1187 1500 1196 1491 1192 1474 c 258
 1094 1034 l 258
 1089 1013 1082 990 1059 990 c 258
 1011 990 l 258
 976 990 975 997 978 1026 c 256
 997 1218 997 1408 751 1408 c 256
 493 1408 322 1114 241 750 c 256
 160 386 175 80 433 80 c 256
 563 80 689 215 745 344 c 256
 753 363 758 374 764 400 c 258
 803 578 l 258
 810 608 806 610 779 610 c 258
 711 610 l 258
 677 610 681 613 688 646 c 258
 701 702 l 258
 708 734 715 740 746 740 c 258
EndSplineSet
Fore
SplineSet
726 740 m 2
 1066 740 l 2
 1089 740 1104 737 1104 712 c 2
 1104 650 l 2
 1104 614 1097 610 1060 610 c 2
 1036 610 l 2
 1000 610 1005 594 997 568 c 2
 944 384 l 2
 936 358 928.631835938 339.822265625 919 318 c 0
 855 173 670 -20 418 -20 c 0
 132 -20 10 164 10 390 c 0
 10 852 244 1520 740 1520 c 0
 840 1520 937 1487 984 1436 c 0
 1017.06777831 1400.11794268 1015 1384 1043 1432 c 2
 1069 1476 l 2
 1079 1494 1089 1500 1118 1500 c 2
 1162 1500 l 2
 1192 1500 1193 1496 1188 1471 c 2
 1093 1026 l 2
 1087 1000 1082 990 1048 990 c 2
 1006 990 l 2
 979 990 977 998 979 1020 c 0
 998 1240 990 1398 776 1398 c 0
 354 1398 200 740 200 390 c 0
 200 196 292 84 410 84 c 0
 519 84 612 147 694 251 c 0
 714.158266091 276.566581384 728 293 739 330 c 2
 792 580 l 2
 799 606 791 610 762 610 c 2
 740 610 l 2
 710 610 704 615 704 644 c 2
 704 714 l 2
 704 733 708 740 726 740 c 2
EndSplineSet
Substitution2: "'c2sc' Capitals to Small Capitals in Latin lookup 1 subtable" g.sc
EndChar

StartChar: H
Encoding: 72 72 19
Width: 1196
Flags: MW
AnchorPoint: "Anchor-0" 765 1500 basechar 0
AnchorPoint: "Anchor-1" 446 0 basechar 0
AnchorPoint: "Anchor-2" 446 0 basechar 0
LayerCount: 2
Back
SplineSet
477 1347 m 258
 375 888 l 258
 364 837 366 830 419 830 c 258
 809 830 l 258
 861 830 864 841 876 894 c 258
 975 1338 l 258
 984 1380 995 1390 953 1390 c 258
 880 1390 l 258
 852 1390 849 1403 855 1429 c 258
 861 1458 l 258
 869 1494 876 1500 911 1500 c 258
 1281 1500 l 258
 1313 1500 1320 1496 1312 1462 c 258
 1304 1424 l 258
 1298 1396 1287 1390 1257 1390 c 258
 1231 1390 l 258
 1187 1390 1176 1388 1166 1344 c 258
 900 144 l 258
 894 116 899 110 929 110 c 258
 973 110 l 258
 1000 110 1011 107 1005 78 c 258
 998 44 l 258
 989 2 977 0 938 0 c 258
 578 0 l 258
 542 0 540 7 548 44 c 258
 554 74 l 258
 560 102 564 110 591 110 c 258
 680 110 l 258
 699 110 705 123 713 160 c 258
 827 672 l 258
 837 715 829 720 789 720 c 258
 385 720 l 258
 345 720 337 717 328 678 c 258
 211 150 l 258
 204 119 207 110 240 110 c 258
 309 110 l 258
 336 110 341 105 335 76 c 258
 329 50 l 258
 319 5 312 0 268 0 c 258
 -92 0 l 258
 -125 0 -131 5 -123 40 c 258
 -117 68 l 258
 -109 104 -102 110 -67 110 c 258
 -29 110 l 258
 3 110 13 112 20 144 c 258
 288 1351 l 258
 295 1383 287 1390 257 1390 c 258
 211 1390 l 258
 177 1390 178 1401 186 1436 c 258
 192 1462 l 258
 199 1494 211 1500 241 1500 c 258
 611 1500 l 258
 638 1500 649 1497 643 1468 c 258
 635 1428 l 258
 628 1396 620 1390 589 1390 c 258
 525 1390 l 258
 491 1390 485 1383 477 1347 c 258
EndSplineSet
Fore
SplineSet
-110 44 m 2
 -110 80 l 2
 -110 108 -95 110 -70 110 c 2
 -26 110 l 2
 20 110 15.7048869752 112.063379978 26 160 c 2
 282 1352 l 2
 289 1385 283 1390 246 1390 c 2
 214 1390 l 2
 183 1390 174 1391 174 1422 c 2
 174 1464 l 2
 174 1491 175 1500 202 1500 c 2
 600 1500 l 2
 633 1500 634 1491 634 1458 c 2
 634 1430 l 2
 634 1396 629 1390 596 1390 c 2
 544 1390 l 2
 492 1390 488 1386 479 1343 c 2
 378 872 l 2
 370 835 373 830 420 830 c 2
 820 830 l 2
 866 830 861 840 869 876 c 2
 970 1348 l 2
 978 1384 975 1390 934 1390 c 2
 902 1390 l 2
 872 1390 864 1393 864 1422 c 2
 864 1468 l 2
 864 1495 872 1500 898 1500 c 2
 1270 1500 l 2
 1304 1500 1304 1500 1304 1466 c 2
 1304 1434 l 2
 1304 1395 1298 1390 1260 1390 c 2
 1234 1390 l 2
 1179 1390 1179 1387 1169 1342 c 2
 915 156 l 2
 906.414383133 115.911253528 908 110 960 110 c 2
 1008 110 l 2
 1037 110 1040 102 1040 72 c 2
 1040 32 l 2
 1040 7 1035 0 1008 0 c 2
 614 0 l 2
 581 0 570 3 570 38 c 2
 570 74 l 2
 570 108 583 110 614 110 c 2
 660 110 l 2
 696 110 705.853488078 112.031435508 714 150 c 2
 826 672 l 2
 835 712 834 720 782 720 c 2
 390 720 l 2
 336 720 343 705 334 662 c 2
 223 148 l 2
 216.291837392 116.93697675 218 110 258 110 c 2
 302 110 l 2
 339 110 340 101 340 64 c 2
 340 38 l 2
 340 7 336 0 306 0 c 2
 -68 0 l 2
 -106 0 -110 8 -110 44 c 2
EndSplineSet
Substitution2: "'c2sc' Capitals to Small Capitals in Latin lookup 1 subtable" h.sc
EndChar

StartChar: I
Encoding: 73 73 20
Width: 520
Flags: MW
AnchorPoint: "Anchor-0" 420 1500 basechar 0
AnchorPoint: "Anchor-1" 97 0 basechar 0
AnchorPoint: "Anchor-2" 97 0 basechar 0
AnchorPoint: "Anchor-3" 97 0 basechar 0
LayerCount: 2
Back
SplineSet
485 1354 m 258
 219 154 l 258
 212 121 218 110 247 110 c 258
 307 110 l 258
 326 110 326 97 322 78 c 258
 312 32 l 258
 307 8 293 0 265 0 c 258
 -85 0 l 258
 -113 0 -124 7 -118 32 c 258
 -107 82 l 258
 -102 103 -93 110 -55 110 c 258
 -49 110 l 258
 -14 110 20 114 30 160 c 258
 296 1356 l 258
 302 1382 303 1390 273 1390 c 258
 217 1390 l 258
 191 1390 185 1399 190 1420 c 258
 202 1474 l 258
 208 1500 215 1500 238 1500 c 258
 602 1500 l 258
 632 1500 637 1497 630 1466 c 258
 622 1432 l 258
 614 1397 596 1390 571 1390 c 258
 531 1390 l 258
 499 1390 492 1387 485 1354 c 258
EndSplineSet
Fore
SplineSet
-105 34 m 2
 -105 82 l 2
 -105 105 -97 110 -75 110 c 2
 -31 110 l 2
 15 110 21 112 30 151 c 2
 295 1348 l 2
 304 1387 299 1390 249 1390 c 2
 217 1390 l 2
 191 1390 191 1395 191 1421 c 2
 191 1464 l 2
 191 1494 196 1500 225 1500 c 2
 585 1500 l 2
 613 1500 621 1496 621 1466 c 2
 621 1422 l 2
 621 1393 613 1390 583 1390 c 2
 539 1390 l 2
 497 1390 502 1379 495 1346 c 2
 232 150 l 2
 223 111 231 110 279 110 c 2
 311 110 l 2
 353 110 355 102 355 60 c 2
 355 38 l 2
 355 8 352 0 323 0 c 2
 -67 0 l 2
 -98 0 -105 4 -105 34 c 2
EndSplineSet
Substitution2: "'c2sc' Capitals to Small Capitals in Latin lookup 1 subtable" i.sc
EndChar

StartChar: J
Encoding: 74 74 21
Width: 844
Flags: MW
AnchorPoint: "Anchor-0" 665 1500 basechar 0
AnchorPoint: "Anchor-1" 168 0 basechar 0
AnchorPoint: "Anchor-2" 168 0 basechar 0
LayerCount: 2
Back
SplineSet
-98 280 m 256
 -71 404 9 470 89 470 c 256
 159 470 190 424 174 352 c 256
 145 222 82 244 63 160 c 256
 55 126 78 90 172 90 c 256
 304 90 366 200 428 480 c 258
 617 1331 l 258
 627 1376 628 1390 583 1390 c 258
 495 1390 l 258
 453 1390 451 1397 461 1440 c 258
 466 1460 l 258
 475 1499 489 1500 525 1500 c 258
 945 1500 l 258
 968 1500 984 1498 978 1472 c 258
 968 1424 l 258
 962 1397 957 1390 931 1390 c 258
 865 1390 l 258
 822 1390 819 1382 809 1338 c 258
 632 540 l 258
 561 220 450 -20 128 -20 c 256
 -66 -20 -133 120 -98 280 c 256
EndSplineSet
Fore
SplineSet
-100 250 m 0
 -100 424 -22 480 58 480 c 0
 128 480 186 434 186 362 c 0
 186 244 58 216 58 162 c 0
 58 128 78 90 172 90 c 0
 314 90 359 214 422 480 c 2
 621 1362 l 2
 627 1389 619 1390 586 1390 c 2
 514 1390 l 2
 481 1390 472 1391 472 1424 c 2
 472 1460 l 2
 472 1496 480 1500 514 1500 c 2
 936 1500 l 2
 955 1500 972 1497 972 1476 c 2
 972 1428 l 2
 972 1395 966 1390 932 1390 c 2
 858 1390 l 2
 820 1390 824 1381 817 1352 c 2
 622 540 l 2
 542 220 454 -20 172 -20 c 0
 -22 -20 -100 110 -100 250 c 0
EndSplineSet
Substitution2: "'c2sc' Capitals to Small Capitals in Latin lookup 1 subtable" j.sc
EndChar

StartChar: K
Encoding: 75 75 22
Width: 1253
Flags: MW
AnchorPoint: "Anchor-0" 735 1500 basechar 0
AnchorPoint: "Anchor-1" 500 0 basechar 0
AnchorPoint: "Anchor-2" 500 0 basechar 0
LayerCount: 2
Back
SplineSet
-124 38 m 258
 -115 78 l 258
 -109 105 -101 110 -76 110 c 258
 -30 110 l 258
 9 110 15 120 23 156 c 258
 289 1358 l 258
 296 1390 296 1390 264 1390 c 258
 208 1390 l 258
 179 1390 175 1388 182 1418 c 258
 194 1470 l 258
 199 1494 206 1500 229 1500 c 258
 621 1500 l 258
 644 1500 650 1495 644 1470 c 258
 635 1432 l 258
 626 1393 616 1390 580 1390 c 258
 534 1390 l 258
 488 1390 484 1380 474 1334 c 258
 340 732 l 258
 327 675 341 663 373 705 c 256
 975 1356 l 258
 998 1382 979 1390 954 1390 c 258
 886 1390 l 258
 850 1390 857 1398 865 1432 c 258
 873 1464 l 258
 880 1497 892 1500 923 1500 c 258
 1275 1500 l 258
 1307 1500 1309 1493 1302 1460 c 258
 1296 1434 l 258
 1288 1397 1282 1390 1246 1390 c 258
 1188 1390 l 258
 1139 1390 1139 1382 1115 1356 c 258
 760 966 l 274
 736 941 740 905 748 880 c 266
 965 146 l 258
 974 119 987 110 1033 110 c 258
 1067 110 l 258
 1100 110 1107 105 1099 70 c 258
 1091 34 l 258
 1083 0 1083 0 1049 0 c 258
 642 0 l 258
 613 0 610 7 616 34 c 258
 623 66 l 258
 631 102 625 110 660 110 c 258
 673 110 l 258
 720 110 750 129 742 150 c 258
 586 720 l 258
 575 747 550 757 522 726 c 258
 311 490 l 256
 293 463 275 439 265 394 c 258
 211 150 l 258
 203 115 208 110 244 110 c 258
 306 110 l 258
 338 110 341 102 334 72 c 258
 327 40 l 258
 319 6 313 0 280 0 c 258
 -98 0 l 258
 -128 0 -131 7 -124 38 c 258
EndSplineSet
Fore
SplineSet
-110 38 m 2
 -110 86 l 2
 -110 109 -101 110 -78 110 c 2
 -32 110 l 2
 13 110 17 114 25 151 c 2
 290 1356 l 2
 296 1383 294 1390 258 1390 c 2
 216 1390 l 2
 191 1390 190 1399 190 1424 c 2
 190 1480 l 2
 190 1499 199 1500 218 1500 c 2
 586 1500 l 2
 615 1500 620 1494 620 1464 c 2
 620 1434 l 2
 620 1399 619 1390 584 1390 c 2
 522 1390 l 2
 492 1390 496 1381 491 1358 c 2
 350 720 l 2
 332 637 342 658 390 700 c 2
 972 1357 l 2
 994.847926913 1382.79224739 987 1390 944 1390 c 2
 902 1390 l 2
 868 1390 864 1398 864 1430 c 2
 864 1466 l 2
 864 1493 868 1500 894 1500 c 2
 1272 1500 l 2
 1297 1500 1298 1491 1298 1466 c 2
 1298 1428 l 2
 1298 1400 1293 1390 1263 1390 c 2
 1220 1390 l 2
 1175 1390 1154.28020824 1383.49265712 1130 1357 c 2
 702 890 l 2
 663.544921875 847.037109375 658 844 712 814 c 0
 1086 602 784 110 1024 110 c 2
 1080 110 l 2
 1117 110 1122 104 1122 66 c 2
 1122 38 l 2
 1122 4 1114 0 1082 0 c 2
 972 0 l 2
 501 0 813.318359375 552.731445312 623 720 c 0
 588.147358218 750.631574573 574.390625 740.516601562 544 709 c 2
 336 499 l 2
 307.148940067 469.871526029 293 460 282 410 c 2
 223 142 l 2
 217 114 222 110 258 110 c 2
 296 110 l 2
 327 110 330 102 330 70 c 2
 330 30 l 2
 330 0 320 0 290 0 c 2
 -78 0 l 2
 -107 0 -110 8 -110 38 c 2
EndSplineSet
Substitution2: "'c2sc' Capitals to Small Capitals in Latin lookup 1 subtable" k.sc
EndChar

StartChar: L
Encoding: 76 76 23
Width: 976
Flags: MW
AnchorPoint: "Anchor-0" 393 1500 basechar 0
AnchorPoint: "Anchor-1" 559 943 basechar 0
AnchorPoint: "Anchor-2" 376 0 basechar 0
LayerCount: 2
Back
SplineSet
254 1390 m 258
 207 1390 l 258
 181 1390 178 1396 184 1424 c 258
 194 1471 l 258
 200 1496 208 1500 234 1500 c 258
 590 1500 l 258
 622 1500 630 1498 623 1466 c 258
 614 1424 l 258
 608 1395 598 1390 571 1390 c 258
 527 1390 l 258
 497 1390 485 1384 478 1351 c 258
 209 142 l 258
 203 113 214 110 244 110 c 258
 412 110 l 258
 580 110 716 230 775 482 c 256
 779 501 783 510 802 510 c 258
 844 510 l 258
 871 510 881 509 875 482 c 258
 778 46 l 258
 770 9 766 0 729 0 c 258
 -89 0 l 258
 -120 0 -131 3 -124 36 c 258
 -115 78 l 258
 -110 102 -106 110 -83 110 c 258
 -35 110 l 258
 3 110 13 112 21 150 c 258
 288 1352 l 258
 295 1385 289 1390 254 1390 c 258
EndSplineSet
Fore
SplineSet
-110 32 m 2
 -110 84 l 2
 -110 107 -93 110 -72 110 c 2
 -32 110 l 2
 19 110 20 112 29 154 c 2
 287 1357 l 2
 293 1387 291 1390 256 1390 c 2
 218 1390 l 2
 189 1390 188 1399 188 1428 c 2
 188 1464 l 2
 188 1491 189 1500 216 1500 c 2
 576 1500 l 2
 603 1500 610 1495 610 1466 c 2
 610 1424 l 2
 610 1397 606 1390 580 1390 c 2
 522 1390 l 2
 488 1390 491 1383 485 1356 c 2
 231 166 l 2
 222 122 228 110 286 110 c 2
 392 110 l 2
 584 110 692 189 771 470 c 0
 780 501 784 510 826 510 c 2
 854 510 l 2
 875 510 880 503 876 487 c 2
 772 42 l 2
 764 9 759 0 716 0 c 2
 -70 0 l 2
 -101 0 -110 1 -110 32 c 2
EndSplineSet
Substitution2: "'c2sc' Capitals to Small Capitals in Latin lookup 1 subtable" l.sc
EndChar

StartChar: M
Encoding: 77 77 24
Width: 1440
Flags: MW
AnchorPoint: "Anchor-0" 835 1500 basechar 0
AnchorPoint: "Anchor-1" 496 0 basechar 0
AnchorPoint: "Anchor-2" 496 0 basechar 0
LayerCount: 2
Back
SplineSet
321 1390 m 258
 267 1390 l 258
 240 1390 234 1394 240 1420 c 258
 250 1466 l 258
 257 1498 271 1500 300 1500 c 258
 632 1500 l 258
 676 1500 667 1485 670 1454 c 258
 630 478 l 258
 631 439 623 411 634 411 c 256
 643 411 649 433 665 468 c 258
 1111 1466 l 258
 1126 1493 1125 1500 1162 1500 c 258
 1472 1500 l 258
 1501 1500 1507 1495 1500 1464 c 258
 1494 1440 l 258
 1484 1397 1479 1390 1437 1390 c 258
 1410 1390 l 258
 1373 1390 1364 1370 1357 1336 c 258
 1143 152 l 258
 1137 119 1139 110 1175 110 c 258
 1221 110 l 258
 1259 110 1259 110 1251 72 c 258
 1244 42 l 258
 1236 8 1232 0 1199 0 c 258
 828 0 l 258
 797 0 781 5 788 38 c 258
 794 62 l 258
 803 101 805 110 844 110 c 258
 900 110 l 258
 935 110 943 120 949 152 c 258
 1119 1079 l 258
 1129 1131 1159 1246 1150 1246 c 256
 1128 1246 1090 1143 1070 1082 c 256
 576 16 l 258
 563 -8 554 -20 520 -20 c 258
 479 -20 l 258
 431 -20 430 0 427 34 c 256
 465 1228 l 256
 471 1271 506 1360 481 1360 c 256
 474 1360 466 1340 449 1278 c 258
 160 175 l 258
 146 120 154 110 211 110 c 258
 233 110 l 258
 271 110 279 106 270 66 c 258
 264 40 l 258
 256 5 239 0 203 0 c 258
 -91 0 l 258
 -128 0 -134 4 -126 40 c 258
 -120 68 l 258
 -112 105 -105 110 -69 110 c 258
 -31 110 l 258
 2 110 19 125 26 154 c 258
 348 1350 l 258
 355 1377 351 1390 321 1390 c 258
EndSplineSet
Fore
SplineSet
1103 1220 m 2
 590 6 l 2
 578 -16 567 -20 532 -20 c 2
 468 -20 l 2
 440 -20 436 -5 433 18 c 2
 480 1298 l 2
 476 1329 482 1354 471 1354 c 0
 463 1354 461 1336 454 1306 c 2
 168 146 l 2
 159 111 166 110 210 110 c 2
 240 110 l 2
 261 110 270 105 270 82 c 2
 270 28 l 2
 270 1 261 0 234 0 c 2
 -72 0 l 2
 -101 0 -110 1 -110 30 c 2
 -110 74 l 2
 -110 103 -106 110 -78 110 c 2
 -36 110 l 2
 21 110 24 111 36 156 c 2
 337 1346 l 2
 347 1387 343 1390 290 1390 c 2
 282 1390 l 2
 252 1390 244 1393 244 1422 c 2
 244 1462 l 2
 244 1499 259 1500 292 1500 c 2
 588 1500 l 2
 655 1500 674.988122606 1495.54109652 672 1434 c 2
 630 569 l 2
 626.583984375 494.5703125 617 464 637 464 c 0
 655 464 662.268447682 509.219737478 689 569 c 2
 1091 1468 l 2
 1102.99957285 1494.83486564 1115 1500 1156 1500 c 2
 1452 1500 l 2
 1476 1500 1486 1496 1486 1470 c 2
 1486 1428 l 2
 1486 1393 1478 1390 1442 1390 c 2
 1396 1390 l 2
 1367 1390 1356 1389 1352 1364 c 2
 1142 148 l 2
 1136 115 1140 110 1180 110 c 2
 1224 110 l 2
 1261 110 1262 102 1262 65 c 2
 1262 38 l 2
 1262 1 1253 0 1216 0 c 2
 856 0 l 2
 827 0 822 6 822 36 c 2
 822 68 l 2
 822 103 827 110 864 110 c 2
 920 110 l 2
 962 110 957 118 963 152 c 2
 1152 1200 l 2
 1168.60446727 1292.07133176 1176 1331 1160 1331 c 0
 1143 1331 1132.98703428 1290.96346904 1103 1220 c 2
EndSplineSet
Substitution2: "'c2sc' Capitals to Small Capitals in Latin lookup 1 subtable" m.sc
EndChar

StartChar: N
Encoding: 78 78 25
Width: 1090
Flags: MW
AnchorPoint: "Anchor-0" 615 1500 basechar 0
AnchorPoint: "Anchor-1" 396 0 basechar 0
AnchorPoint: "Anchor-2" 396 0 basechar 0
LayerCount: 2
Back
SplineSet
232 1390 m 258
 212 1390 l 258
 183 1390 180 1398 186 1425 c 258
 193 1455 l 258
 201 1490 204 1500 239 1500 c 258
 423 1500 l 258
 500 1500 490 1486 512 1445 c 256
 704 368 l 258
 711 329 730 317 748 397 c 258
 958 1343 l 258
 968 1387 958 1390 916 1390 c 258
 918 1390 l 258
 888 1390 847 1387 855 1421 c 258
 860 1443 l 258
 869 1483 880 1500 921 1500 c 258
 1183 1500 l 258
 1208 1500 1232 1500 1226 1471 c 258
 1218 1434 l 258
 1210 1400 1206 1390 1192 1390 c 258
 1146 1390 l 258
 1104 1390 1097 1383 1087 1339 c 258
 796 25 l 258
 791 1 785 -20 758 -20 c 258
 632 -20 l 258
 601 -20 591 -12 582 5 c 256
 400 1075 l 258
 393 1120 357 1116 335 1017 c 258
 144 153 l 258
 136 116 139 110 178 110 c 258
 230 110 l 258
 261 110 261 98 255 69 c 258
 249 39 l 258
 241 4 231 0 198 0 c 258
 -88 0 l 258
 -123 0 -130 3 -122 37 c 258
 -114 73 l 258
 -106 107 -91 110 -60 110 c 258
 -51 110 l 258
 -4 110 6 116 16 161 c 258
 277 1341 l 258
 287 1387 279 1390 232 1390 c 258
EndSplineSet
Fore
SplineSet
234 1390 m 2
 227 1390 l 2
 198 1390 190 1393 190 1421 c 2
 190 1471 l 2
 190 1495 198 1500 220 1500 c 2
 440 1500 l 2
 482 1500 500.781711928 1494.65692678 506 1467 c 2
 706 407 l 2
 711.421398018 378.266590506 717 360 728 360 c 0
 738 360 743.231669606 374.17137179 751 409 c 2
 962 1355 l 2
 968 1383 954 1390 922 1390 c 2
 894 1390 l 2
 859 1390 856 1397 856 1433 c 2
 856 1467 l 2
 856 1496 865 1500 892 1500 c 2
 1184 1500 l 2
 1213 1500 1216 1493 1216 1463 c 2
 1216 1423 l 2
 1216 1396 1211 1390 1182 1390 c 2
 1130 1390 l 2
 1095 1390 1096 1387 1090 1359 c 2
 794 1 l 2
 791 -14 789 -20 769 -20 c 2
 617 -20 l 2
 594 -20 580.775073436 -11.693832266 577 11 c 2
 403 1057 l 2
 398.134734239 1084.9223948 384 1098 376 1098 c 0
 362 1098 350.964326234 1083.00776198 344 1051 c 2
 146 141 l 2
 139 106 144 110 184 110 c 2
 222 110 l 2
 246 110 260 107 260 81 c 2
 260 41 l 2
 260 2 248 0 212 0 c 2
 -78 0 l 2
 -103 0 -110 3 -110 27 c 2
 -110 75 l 2
 -110 103 -107 110 -80 110 c 2
 -16 110 l 2
 17 110 14 115 20 141 c 2
 277 1343 l 2
 285 1382 285 1390 234 1390 c 2
EndSplineSet
Substitution2: "'c2sc' Capitals to Small Capitals in Latin lookup 1 subtable" n.sc
EndChar

StartChar: O
Encoding: 79 79 26
Width: 1050
Flags: MW
AnchorPoint: "Anchor-0" 705 1500 basechar 0
AnchorPoint: "Anchor-1" 336 0 basechar 0
AnchorPoint: "Anchor-2" 336 0 basechar 0
LayerCount: 2
Back
SplineSet
51 750 m 256
 168 1276 366 1520 692 1520 c 256
 1018 1520 1108 1276 991 750 c 256
 874 224 657 -20 351 -20 c 256
 25 -20 -66 224 51 750 c 256
256 750 m 256
 153 286 175 80 373 80 c 256
 591 80 683 286 786 750 c 256
 889 1214 868 1420 670 1420 c 256
 472 1420 359 1214 256 750 c 256
EndSplineSet
Fore
SplineSet
700 1520 m 1
 926 1520 1050 1406 1050 1090 c 0
 1050 724 846 -20 350 -20 c 1
 360 80 l 1
 638 80 860 846 860 1190 c 0
 860 1344 828 1420 710 1420 c 1
 700 1520 l 1
350 -20 m 1
 124 -20 10 94 10 410 c 0
 10 776 214 1520 700 1520 c 1
 710 1420 l 1
 422 1420 190 654 190 310 c 0
 190 156 242 80 360 80 c 1
 350 -20 l 1
EndSplineSet
Substitution2: "'c2sc' Capitals to Small Capitals in Latin lookup 1 subtable" o.sc
EndChar

StartChar: P
Encoding: 80 80 27
Width: 1006
Flags: MW
AnchorPoint: "Anchor-0" 575 1500 basechar 0
AnchorPoint: "Anchor-1" 102 0 basechar 0
AnchorPoint: "Anchor-2" 102 0 basechar 0
LayerCount: 2
Back
SplineSet
264 1390 m 258
 201 1390 l 258
 177 1390 178 1399 183 1423 c 258
 193 1464 l 258
 200 1495 209 1500 238 1500 c 258
 711 1500 l 258
 1023 1500 1095 1340 1037 1080 c 256
 979 820 836 660 524 660 c 258
 388 660 l 258
 333 660 324 659 312 604 c 258
 216 173 l 258
 204 118 206 110 260 110 c 258
 310 110 l 258
 341 110 341 101 334 70 c 258
 329 48 l 258
 320 8 316 0 276 0 c 258
 -78 0 l 258
 -119 0 -132 2 -122 46 c 258
 -114 82 l 258
 -109 106 -101 110 -76 110 c 258
 -34 110 l 258
 7 110 15 120 23 158 c 258
 290 1364 l 258
 295 1387 288 1390 264 1390 c 258
389 770 m 258
 519 770 l 258
 681 770 771 872 817 1080 c 256
 863 1288 818 1390 656 1390 c 258
 505 1390 l 258
 479 1390 484 1378 478 1351 c 258
 358 814 l 258
 349 772 347 770 389 770 c 258
EndSplineSet
Fore
SplineSet
406 770 m 2
 514 770 l 2
 716 770 834 952 834 1230 c 0
 834 1328 776 1390 654 1390 c 2
 526 1390 l 2
 490 1390 490 1388 484 1358 c 2
 368 813 l 2
 360 774 359 770 406 770 c 2
322 610 m 2
 228 160 l 2
 220 120 217 110 270 110 c 2
 302 110 l 2
 333 110 340 105 340 72 c 2
 340 28 l 2
 340 3 328 0 302 0 c 2
 -84 0 l 2
 -111 0 -120 1 -120 28 c 2
 -120 76 l 2
 -120 110 -110 110 -76 110 c 2
 -22 110 l 2
 27 110 21 124 29 162 c 2
 284 1353 l 2
 291 1386 290 1390 250 1390 c 2
 220 1390 l 2
 195 1390 190 1397 190 1420 c 2
 190 1466 l 2
 190 1497 201 1500 230 1500 c 2
 674 1500 l 2
 936 1500 1054 1420 1054 1210 c 0
 1054 920 886 660 524 660 c 2
 386 660 l 2
 337 660 331 650 322 610 c 2
EndSplineSet
Substitution2: "'c2sc' Capitals to Small Capitals in Latin lookup 1 subtable" p.sc
EndChar

StartChar: Q
Encoding: 81 81 28
Width: 1050
Flags: MW
AnchorPoint: "Anchor-0" 985 1500 basechar 0
LayerCount: 2
Back
SplineSet
51 750 m 256
 168 1276 356 1520 692 1520 c 256
 1028 1520 1108 1276 991 750 c 256
 930 477 839 208 651 72 c 256
 614 45 623 43 630 20 c 256
 652 -51 670 -74 725 -74 c 256
 810 -74 845 34 865 139 c 256
 868 157 876 164 897 164 c 258
 933 164 l 258
 964 164 964 160 963 131 c 256
 939 -82 859 -250 680 -250 c 256
 547 -250 549 -144 538 -20 c 256
 535 12 532 4 487 -5 c 256
 448 -13 410 -20 351 -20 c 256
 15 -20 -66 224 51 750 c 256
240 137 m 256
 269 100 317 80 373 80 c 256
 422 80 459 86 494 106 c 256
 528 125 534 129 535 161 c 256
 538 275 528 430 418 430 c 256
 312 430 250 304 225 196 c 256
 216 157 228 152 240 137 c 256
654 302 m 256
 702 416 740 544 786 750 c 256
 867 1114 898 1420 670 1420 c 256
 442 1420 337 1114 256 750 c 256
 220 589 194 431 194 324 c 256
 194 278 200 291 212 345 c 256
 239 465 327 606 453 606 c 256
 580 606 600 402 604 273 c 256
 606 214 633 251 654 302 c 256
EndSplineSet
Fore
SplineSet
190 310 m 0
 190 156 242 80 360 80 c 0
 638 80 860 846 860 1190 c 0
 860 1344 828 1420 710 1420 c 0
 422 1420 190 654 190 310 c 0
-140 -328 m 0
 -140 -158 20 -54 178 -54 c 0
 457 -54 367 -408 502 -408 c 0
 566 -408 586 -372 586 -338 c 0
 586 -282 526 -282 526 -210 c 0
 526 -136 592 -94 646 -94 c 0
 720 -94 768 -148 768 -216 c 0
 768 -406 618 -500 460 -500 c 0
 161 -500 301 -146 126 -146 c 0
 64 -146 42 -178 42 -212 c 0
 42 -262 102 -272 102 -344 c 0
 102 -418 42 -460 -12 -460 c 0
 -86 -460 -140 -404 -140 -328 c 0
10 410 m 0
 10 776 214 1520 700 1520 c 0
 926 1520 1050 1406 1050 1090 c 0
 1050 724 846 -20 350 -20 c 0
 124 -20 10 94 10 410 c 0
EndSplineSet
Substitution2: "'c2sc' Capitals to Small Capitals in Latin lookup 1 subtable" q.sc
EndChar

StartChar: R
Encoding: 82 82 29
Width: 1073
Flags: MW
AnchorPoint: "Anchor-0" 545 1500 basechar 0
AnchorPoint: "Anchor-1" 426 0 basechar 0
AnchorPoint: "Anchor-2" 426 0 basechar 0
LayerCount: 2
Back
SplineSet
979 230 m 256
 937 79 878 -20 714 -20 c 256
 318 -20 904 690 511 690 c 258
 377 690 l 258
 333 690 329 682 319 638 c 258
 210 144 l 258
 203 113 210 110 242 110 c 258
 311 110 l 258
 339 110 340 103 334 74 c 258
 324 29 l 258
 318 4 311 0 285 0 c 258
 -101 0 l 258
 -126 0 -131 6 -125 32 c 258
 -115 75 l 258
 -108 105 -100 110 -72 110 c 258
 -36 110 l 258
 5 110 13 113 22 153 c 258
 286 1342 l 258
 296 1385 289 1390 247 1390 c 258
 212 1390 l 258
 177 1390 178 1399 186 1435 c 258
 193 1466 l 258
 199 1492 204 1500 229 1500 c 258
 741 1500 l 258
 1033 1500 1058 1260 1020 1090 c 256
 984 926 896 834 771 766 c 256
 732 745 733 718 768 690 c 256
 957 533 674 110 824 110 c 256
 856 110 890 142 918 242 c 256
 922 255 927 258 934 258 c 266
 968 258 l 274
 975 258 986 255 979 230 c 256
394 810 m 258
 567 810 l 258
 669 810 778 902 822 1100 c 256
 866 1298 797 1390 695 1390 c 258
 522 1390 l 258
 475 1390 486 1390 476 1343 c 258
 368 858 l 258
 359 817 351 810 394 810 c 258
EndSplineSet
Fore
SplineSet
990 221 m 0
 964 124 916 -20 738 -20 c 0
 600 -20 558 64 558 174 c 0
 558 324 637 396 637 546 c 0
 637 636 614 690 488 690 c 2
 378 690 l 2
 347 690 337 682 331 656 c 2
 225 144 l 2
 219 116 222 110 258 110 c 2
 298 110 l 2
 318 110 330 106 330 84 c 2
 330 40 l 2
 330 9 329 0 298 0 c 2
 -84 0 l 2
 -104 0 -110 6 -110 28 c 2
 -110 76 l 2
 -110 104 -105 110 -78 110 c 2
 -16 110 l 2
 24 110 19 119 26 150 c 2
 285 1357 l 2
 291 1386 291 1390 256 1390 c 2
 226 1390 l 2
 193 1390 190 1398 190 1432 c 2
 190 1464 l 2
 190 1499 199 1500 234 1500 c 2
 719 1500 l 2
 901 1500 1036 1380 1036 1200 c 0
 1036 993 940 842 760 755 c 0
 726.968112272 739.034587598 706 735 706 727 c 0
 706 718 727.228515625 711.142578125 760 690 c 0
 822 650 840 604 840 512 c 0
 840 400 778 242 778 168 c 0
 778 124 796 108 822 108 c 0
 869 108 895 169 916 239 c 0
 922.45703125 260.524414062 932.516601562 257.109375 953 258 c 2
 976 258 l 2
 995.485351562 258 996.879197011 246.66469654 990 221 c 0
418 810 m 2
 528 810 l 2
 700 810 828 1002 828 1220 c 0
 828 1308 790 1390 668 1390 c 2
 530 1390 l 2
 496 1390 490 1383 484 1354 c 2
 375 848 l 2
 367 812 373 810 418 810 c 2
EndSplineSet
Substitution2: "'c2sc' Capitals to Small Capitals in Latin lookup 1 subtable" r.sc
Substitution2: "'ss01' Style Set 1 lookup 3 subtable" R.alt
EndChar

StartChar: S
Encoding: 83 83 30
Width: 912
Flags: MW
AnchorPoint: "Anchor-0" 605 1500 basechar 0
AnchorPoint: "Anchor-1" 365 0 basechar 0
AnchorPoint: "Anchor-2" 365 0 basechar 0
LayerCount: 2
Back
SplineSet
756 1047 m 256
 772 1235 703 1408 577 1408 c 256
 465 1408 411 1338 385 1220 c 256
 303 849 899 920 770 340 c 256
 726 140 580 -30 368 -30 c 256
 197 -30 150 49 113 109 c 256
 100 144 93 135 68 95 c 258
 20 18 l 258
 3 -9 1 -10 -38 -10 c 258
 -69 -10 l 258
 -100 -10 -107 -6 -100 24 c 258
 2 482 l 258
 8 510 18 510 46 510 c 258
 88 510 l 258
 115 510 115 499 113 476 c 256
 95 316 169 72 331 72 c 256
 493 72 570 202 596 320 c 256
 694 760 111 700 217 1180 c 256
 264 1390 390 1520 592 1520 c 256
 688 1520 735 1466 769 1407 c 256
 781 1381 780 1381 803 1417 c 258
 850 1488 l 258
 857 1499 860 1500 876 1500 c 258
 940 1500 l 258
 965 1500 966 1493 960 1467 c 258
 865 1036 l 258
 859 1011 850 1010 825 1010 c 258
 781 1010 l 258
 745 1010 756 1015 756 1047 c 256
EndSplineSet
Fore
SplineSet
374 1160 m 0
 374 878 794 910 794 480 c 0
 794 180 616 -30 374 -30 c 0
 235 -30 157 28 111 118 c 0
 97.615234375 144.188476562 92 140 74 111 c 2
 27 18 l 2
 16 0 7 -10 -24 -10 c 2
 -73 -10 l 2
 -104 -10 -109 -7 -103 17 c 2
 4 487 l 2
 8 504 16 510 38 510 c 2
 100 510 l 2
 111 510 119.605639452 505.288131907 118 494 c 0
 85 262 178 78 344 78 c 0
 514 78 604 222 604 400 c 0
 604 752 190 706 190 1066 c 0
 190 1326 376 1530 554 1530 c 0
 633 1530 714 1486 754 1425 c 0
 777.655750994 1388.92497973 783 1388 810 1429 c 2
 840 1473 l 2
 852 1491 852 1500 883 1500 c 2
 921 1500 l 2
 963 1500 967 1495 960 1462 c 2
 870 1039 l 2
 864 1012 855 1010 822 1010 c 2
 786 1010 l 2
 745 1010 747 1020 751 1052 c 0
 776 1263 693 1418 566 1418 c 0
 458 1418 374 1324 374 1160 c 0
EndSplineSet
Substitution2: "'c2sc' Capitals to Small Capitals in Latin lookup 1 subtable" s.sc
EndChar

StartChar: T
Encoding: 84 84 31
Width: 1128
Flags: MW
AnchorPoint: "Anchor-0" 764 1500 basechar 0
AnchorPoint: "Anchor-1" 446 0 basechar 0
AnchorPoint: "Anchor-2" 446 0 basechar 0
LayerCount: 2
Back
SplineSet
148 41 m 258
 156 75 l 258
 163 107 175 110 205 110 c 258
 269 110 l 258
 317 110 325 115 336 165 c 258
 599 1355 l 258
 607 1393 612 1400 575 1400 c 258
 519 1400 l 258
 407 1400 286 1312 218 1031 c 256
 210 1000 204 990 170 990 c 258
 142 990 l 258
 108 990 113 1011 120 1041 c 258
 210 1447 l 258
 220 1493 225 1500 270 1500 c 258
 1190 1500 l 258
 1229 1500 1230 1493 1221 1453 c 258
 1125 1021 l 258
 1119 992 1110 990 1080 990 c 258
 1056 990 l 258
 1019 990 1022 1005 1028 1037 c 256
 1082 1314 1019 1400 899 1400 c 258
 827 1400 l 258
 792 1400 798 1393 790 1357 c 258
 526 167 l 258
 515 116 518 110 567 110 c 258
 631 110 l 258
 671 110 672 102 663 61 c 258
 658 42 l 258
 649 2 627 0 591 0 c 258
 185 0 l 258
 146 0 140 3 148 41 c 258
EndSplineSet
Fore
SplineSet
192 35 m 2
 192 82 l 2
 192 102 194 110 213 110 c 2
 273 110 l 2
 318 110 327 115 335 153 c 2
 594 1360 l 2
 601 1392 601 1400 559 1400 c 2
 544 1400 l 2
 381 1400 298 1312 220 1028 c 0
 214 1006 211 990 180 990 c 2
 141 990 l 2
 109 990 114 1010 119 1032 c 2
 216 1462 l 2
 223 1492 228 1500 267 1500 c 2
 1178 1500 l 2
 1230 1500 1231 1494 1222 1454 c 2
 1122 1022 l 2
 1116 994 1118 990 1082 990 c 2
 1056 990 l 2
 1015 990 1015 995 1022 1029 c 0
 1079 1316 1028 1400 864 1400 c 2
 849 1400 l 2
 812 1400 802 1394 795 1362 c 2
 536 152 l 2
 528 117 530 110 575 110 c 2
 629 110 l 2
 660 110 662 102 662 70 c 2
 662 40 l 2
 662 3 652 0 617 0 c 2
 219 0 l 2
 193 0 192 8 192 35 c 2
EndSplineSet
Substitution2: "'c2sc' Capitals to Small Capitals in Latin lookup 1 subtable" t.sc
EndChar

StartChar: U
Encoding: 85 85 32
Width: 1130
Flags: MW
AnchorPoint: "Anchor-0" 765 1500 basechar 0
AnchorPoint: "Anchor-1" 336 0 basechar 0
AnchorPoint: "Anchor-2" 336 0 basechar 0
AnchorPoint: "Anchor-3" 461 0 basechar 0
LayerCount: 2
Back
SplineSet
961 1390 m 258
 893 1390 l 258
 868 1390 864 1396 870 1423 c 258
 879 1461 l 258
 887 1495 896 1500 928 1500 c 258
 1224 1500 l 258
 1258 1500 1267 1497 1259 1461 c 258
 1251 1427 l 258
 1243 1393 1233 1390 1211 1390 c 258
 1167 1390 l 258
 1130 1390 1123 1387 1115 1351 c 258
 948 600 l 258
 853 170 714 -30 378 -30 c 256
 32 -30 27 234 108 600 c 258
 274 1349 l 258
 282 1387 268 1390 233 1390 c 258
 197 1390 l 258
 164 1390 165 1399 173 1433 c 258
 180 1465 l 258
 187 1497 200 1500 230 1500 c 258
 582 1500 l 258
 614 1500 627 1498 619 1463 c 258
 613 1435 l 258
 604 1394 594 1390 555 1390 c 258
 523 1390 l 258
 480 1390 472 1387 463 1345 c 258
 302 620 l 258
 235 316 197 90 435 90 c 256
 673 90 747 236 828 600 c 258
 993 1345 l 258
 1002 1384 999 1390 961 1390 c 258
EndSplineSet
Fore
SplineSet
476 1356 m 2
 292 620 l 2
 270 534 245 422 245 320 c 0
 245 180 292 90 462 90 c 0
 660 90 728 256 812 600 c 2
 995 1350 l 2
 1003 1382 1003 1390 959 1390 c 2
 905 1390 l 2
 876 1390 874 1398 874 1428 c 2
 874 1470 l 2
 874 1490 875 1500 895 1500 c 2
 1185 1500 l 2
 1221 1500 1234 1498 1234 1460 c 2
 1234 1424 l 2
 1234 1394 1225 1390 1197 1390 c 2
 1169 1390 l 2
 1123 1390 1124 1386 1115 1350 c 2
 932 600 l 2
 819.066036454 137.155887105 718 -30 432 -30 c 0
 158 -30 47 124 47 304 c 0
 47 378 72 517 92 600 c 2
 275 1346 l 2
 284 1381 285 1390 241 1390 c 2
 211 1390 l 2
 178 1390 174 1399 174 1430 c 2
 174 1468 l 2
 174 1497 181 1500 211 1500 c 2
 575 1500 l 2
 609 1500 614 1494 614 1458 c 2
 614 1420 l 2
 614 1396 608 1390 583 1390 c 2
 515 1390 l 2
 480 1390 483 1383 476 1356 c 2
EndSplineSet
Substitution2: "'c2sc' Capitals to Small Capitals in Latin lookup 1 subtable" u.sc
EndChar

StartChar: V
Encoding: 86 86 33
Width: 1210
Flags: MW
AnchorPoint: "Anchor-0" 755 1500 basechar 0
AnchorPoint: "Anchor-1" 442 20 basechar 0
AnchorPoint: "Anchor-2" 442 20 basechar 0
LayerCount: 2
Back
SplineSet
547 208 m 266
 1096 1353 l 258
 1110 1382 1103 1390 1066 1390 c 258
 1006 1390 l 258
 990 1390 989 1397 993 1414 c 258
 1009 1485 l 258
 1011 1492 1017 1500 1031 1500 c 258
 1334 1500 l 258
 1372 1500 1371 1495 1364 1462 c 258
 1358 1434 l 258
 1352 1406 1343 1390 1313 1390 c 258
 1271 1390 l 258
 1249 1390 1238 1376 1230 1361 c 258
 564 4 l 258
 562 1 558 -10 546 -10 c 258
 355 -10 l 258
 339 -10 337 5 335 16 c 258
 270 1341 l 258
 267 1366 277 1390 239 1390 c 258
 172 1390 l 258
 154 1390 136 1383 142 1409 c 258
 155 1465 l 258
 161 1490 166 1500 188 1500 c 258
 598 1500 l 258
 640 1500 631 1495 622 1454 c 258
 618 1435 l 258
 609 1395 604 1390 569 1390 c 258
 521 1390 l 258
 468 1390 464 1380 465 1334 c 258
 503 194 l 258
 504 134 521 153 547 208 c 266
EndSplineSet
Fore
SplineSet
332 33 m 2
 268 1351 l 2
 262 1382 257 1390 217 1390 c 2
 185 1390 l 2
 154 1390 150 1400 150 1429 c 2
 150 1465 l 2
 150 1499 159 1500 193 1500 c 2
 573 1500 l 2
 609 1500 610 1491 610 1455 c 2
 610 1425 l 2
 610 1393 602 1390 569 1390 c 2
 515 1390 l 2
 477 1390 460.930587544 1383.01210324 461 1349 c 2
 499 299 l 2
 502.59909923 199.551205496 497 162 512 162 c 0
 531 162 549.98136369 216.751026243 587 295 c 2
 1088 1354 l 2
 1108 1387 1100 1390 1053 1390 c 2
 1039 1390 l 2
 1009 1390 1000 1391 1000 1421 c 2
 1000 1473 l 2
 1000 1499 1009 1500 1035 1500 c 2
 1319 1500 l 2
 1347 1500 1360 1498 1360 1467 c 2
 1360 1433 l 2
 1360 1398 1357 1390 1323 1390 c 2
 1299 1390 l 2
 1253 1390 1248 1386 1231 1359 c 2
 576 25 l 2
 560 0 550 -10 507 -10 c 2
 389 -10 l 2
 345 -10 339 -3 332 33 c 2
EndSplineSet
Substitution2: "'c2sc' Capitals to Small Capitals in Latin lookup 1 subtable" v.sc
EndChar

StartChar: W
Encoding: 87 87 34
Width: 1680
Flags: MW
AnchorPoint: "Anchor-0" 1035 1500 basechar 0
AnchorPoint: "Anchor-1" 816 0 basechar 0
AnchorPoint: "Anchor-2" 816 0 basechar 0
LayerCount: 2
Back
SplineSet
558 451 m 258
 875 1146 l 258
 894 1190 894 1212 897 1240 c 258
 894 1352 l 258
 894 1384 883 1390 843 1390 c 258
 855 1390 l 258
 820 1390 820 1398 828 1434 c 258
 832 1452 l 258
 842 1495 849 1500 890 1500 c 258
 1186 1500 l 258
 1217 1500 1221 1494 1214 1462 c 258
 1208 1436 l 258
 1198 1391 1178 1390 1167 1390 c 258
 1139 1390 l 258
 1116 1390 1093 1385 1092 1341 c 258
 1078 486 l 258
 1077 436 1062 364 1075 364 c 256
 1084 364 1097 370 1118 414 c 258
 1513 1358 l 258
 1529 1388 1515 1390 1503 1390 c 258
 1425 1390 l 258
 1410 1390 1410 1398 1418 1434 c 258
 1421 1450 l 258
 1430 1491 1435 1500 1476 1500 c 258
 1764 1500 l 258
 1804 1500 1812 1498 1803 1458 c 258
 1798 1434 l 258
 1789 1395 1781 1390 1743 1390 c 258
 1705 1390 l 258
 1662 1390 1658 1384 1646 1352 c 258
 1066 8 l 258
 1055 -19 1051 -20 1016 -20 c 258
 944 -20 l 258
 908 -20 896 -16 902 16 c 256
 921 826 l 258
 927 882 915 885 903 885 c 256
 884 886 866 851 846 796 c 258
 484 20 l 258
 475 -13 467 -20 422 -20 c 258
 360 -20 l 258
 322 -20 315 -7 315 20 c 258
 288 1350 l 258
 283 1383 275 1390 231 1390 c 258
 209 1390 l 258
 174 1390 169 1394 177 1428 c 258
 182 1454 l 258
 191 1494 197 1500 236 1500 c 258
 586 1500 l 258
 623 1500 638 1490 629 1450 c 258
 624 1425 l 258
 619 1404 600 1390 585 1390 c 266
 497 1390 l 258
 470 1390 475 1376 480 1338 c 258
 492 527 l 258
 498 464 483 375 506 375 c 256
 525 375 539 409 558 451 c 258
EndSplineSet
Fore
SplineSet
591 518 m 2
 877 1142 l 2
 891.487804878 1173.6097561 902 1185 897 1232 c 2
 893 1366 l 2
 891 1387 883 1390 860 1390 c 2
 851 1390 l 2
 825 1390 817 1393 817 1418 c 2
 817 1456 l 2
 817 1495 823 1500 861 1500 c 2
 1174 1500 l 2
 1198 1500 1202 1493 1202 1468 c 2
 1202 1424 l 2
 1202 1393 1194 1390 1162 1390 c 2
 1136 1390 l 2
 1108 1390 1091.51457548 1385.94825165 1091 1351 c 2
 1079 536 l 2
 1077.07418468 405.20504268 1064 364 1092 364 c 0
 1115 364 1136.37109375 457.951171875 1167 532 c 2
 1512 1354 l 2
 1530 1388 1516 1390 1492 1390 c 2
 1464 1390 l 2
 1434 1390 1430 1398 1430 1426 c 2
 1430 1478 l 2
 1430 1500 1430 1500 1452 1500 c 2
 1708 1500 l 2
 1733 1500 1748 1498 1748 1470 c 2
 1748 1426 l 2
 1748 1400 1744 1390 1716 1390 c 2
 1686 1390 l 2
 1654 1390 1655 1384 1644 1364 c 2
 1073 10 l 2
 1063 -9 1054 -20 1023 -20 c 2
 946 -20 l 2
 911 -20 902 -18 899 14 c 2
 919 712 l 2
 909 809 935 883 903 883 c 0
 877 883 850.719625666 802.295487549 808 710 c 2
 484 10 l 2
 472.762464368 -14.2786263648 460 -20 422 -20 c 2
 348 -20 l 2
 317 -20 320 -16 316 10 c 2
 280 1356 l 2
 275 1389 265 1390 228 1390 c 2
 220 1390 l 2
 184 1390 180 1397 180 1434 c 2
 180 1466 l 2
 180 1492 183 1500 208 1500 c 2
 566 1500 l 2
 592 1500 600 1496 600 1468 c 2
 600 1435 l 2
 600 1400 599 1390 564 1390 c 2
 514 1390 l 2
 477 1390 475 1382 479 1352 c 2
 491 526 l 2
 502 443 478 382 510 382 c 0
 535 382 551.43472023 431.675753228 591 518 c 2
EndSplineSet
Substitution2: "'c2sc' Capitals to Small Capitals in Latin lookup 1 subtable" w.sc
EndChar

StartChar: X
Encoding: 88 88 35
Width: 1250
Flags: MW
AnchorPoint: "Anchor-0" 795 1500 basechar 0
AnchorPoint: "Anchor-1" 456 0 basechar 0
AnchorPoint: "Anchor-2" 456 0 basechar 0
LayerCount: 2
Back
SplineSet
-152 34 m 258
 -141 87 l 258
 -137 105 -127 110 -111 110 c 258
 -43 110 l 258
 4 110 16 112 35 141 c 258
 498 697 l 258
 531 740 525 776 513 817 c 258
 339 1360 l 258
 332 1385 326 1390 314 1390 c 258
 264 1390 l 258
 233 1390 218 1392 226 1426 c 258
 235 1468 l 258
 241 1494 248 1500 273 1500 c 258
 670 1500 l 258
 693 1500 702 1499 697 1476 c 258
 685 1421 l 258
 679 1396 673 1390 649 1390 c 258
 585 1390 l 258
 557 1390 543 1385 550 1361 c 258
 665 930 l 258
 685 875 671 873 718 930 c 258
 1026 1358 l 258
 1042 1381 1043 1390 1013 1390 c 258
 928 1390 l 258
 918 1390 908 1390 915 1420 c 258
 926 1469 l 258
 932 1495 940 1500 964 1500 c 258
 1288 1500 l 258
 1323 1500 1331 1497 1323 1459 c 258
 1315 1421 l 258
 1309 1395 1300 1390 1275 1390 c 258
 1209 1390 l 258
 1173 1390 1166 1384 1150 1362 c 258
 781 859 l 258
 751 808 725 800 746 727 c 258
 962 148 l 258
 970 115 989 110 1023 110 c 258
 1065 110 l 258
 1084 110 1094 106 1087 75 c 258
 1078 38 l 258
 1071 8 1067 0 1038 0 c 258
 641 0 l 258
 617 0 611 4 616 27 c 258
 628 79 l 258
 634 106 645 110 650 110 c 258
 748 110 l 258
 761 110 750 124 745 141 c 258
 597 601 l 258
 579 655 578 648 539 601 c 258
 174 154 l 258
 145 119 172 110 192 110 c 258
 260 110 l 258
 267 110 274 106 268 79 c 258
 257 32 l 258
 251 7 246 0 222 0 c 258
 -130 0 l 258
 -156 0 -158 7 -152 34 c 258
EndSplineSet
Fore
SplineSet
306 1390 m 258
 256 1390 l 258
 225 1390 210 1392 210 1426 c 258
 210 1468 l 258
 210 1494 215 1500 240 1500 c 258
 637 1500 l 258
 660 1500 670 1499 670 1476 c 258
 670 1421 l 258
 670 1396 665 1390 641 1390 c 258
 577 1390 l 258
 549 1390 541 1387 548 1361 c 258
 660 942 l 258
 666 920 669.944614862 909 679 909 c 0
 687 909 697 920 713 942 c 258
 1015 1358 l 258
 1030 1378 1025 1390 995 1390 c 258
 920 1390 l 258
 910 1390 900 1390 900 1420 c 258
 900 1469 l 258
 900 1495 907 1500 931 1500 c 258
 1255 1500 l 258
 1290 1500 1300 1497 1300 1459 c 258
 1300 1421 l 258
 1300 1395 1292 1390 1267 1390 c 258
 1211 1390 l 258
 1175 1390 1162 1382 1148 1362 c 258
 781 859 l 258
 758 827 745 804 745 775 c 0
 745 761 749 745 755 727 c 258
 959 148 l 258
 974 115 995 110 1029 110 c 258
 1071 110 l 258
 1090 110 1100 106 1100 75 c 258
 1100 38 l 258
 1100 8 1097 0 1068 0 c 258
 671 0 l 258
 647 0 640 4 640 27 c 258
 640 79 l 258
 640 106 651 110 656 110 c 258
 734 110 l 258
 747 110 753 124 744 141 c 258
 603 583 l 258
 595 607 590 618 582 618 c 0
 573.937742252 618 564 606 545 583 c 258
 198 154 l 258
 177 119 206 110 226 110 c 258
 256 110 l 258
 283 110 290 106 290 79 c 258
 290 32 l 258
 290 7 286 0 262 0 c 258
 -90 0 l 258
 -116 0 -120 7 -120 34 c 258
 -120 87 l 258
 -120 105 -111 110 -95 110 c 258
 -37 110 l 258
 10 110 24 117 44 141 c 258
 503 697 l 258
 517 714 524 733 524 755 c 0
 524 773 520 793 512 817 c 258
 337 1360 l 258
 328 1386 318 1390 306 1390 c 258
EndSplineSet
Substitution2: "'c2sc' Capitals to Small Capitals in Latin lookup 1 subtable" x.sc
EndChar

StartChar: Y
Encoding: 89 89 36
Width: 1140
Flags: MW
AnchorPoint: "Anchor-0" 755 1500 basechar 0
AnchorPoint: "Anchor-1" 416 0 basechar 0
AnchorPoint: "Anchor-2" 416 0 basechar 0
LayerCount: 2
Back
SplineSet
208 34 m 258
 216 70 l 258
 224 107 234 110 268 110 c 258
 304 110 l 258
 338 110 346 115 353 148 c 258
 440 540 l 258
 453 600 449 623 439 658 c 258
 248 1354 l 258
 240 1387 232 1390 178 1390 c 258
 172 1390 l 258
 147 1390 138 1391 144 1416 c 258
 154 1462 l 258
 161 1493 167 1500 197 1500 c 258
 584 1500 l 258
 613 1500 617 1494 610 1464 c 258
 602 1432 l 258
 594 1397 585 1390 565 1390 c 258
 507 1390 l 258
 463 1390 457 1380 464 1352 c 258
 588 820 l 274
 607 769 607 769 646 822 c 266
 975 1348 l 258
 1002 1391 996 1390 948 1390 c 258
 862 1390 l 258
 852 1390 850 1395 856 1424 c 258
 863 1458 l 258
 871 1492 876 1500 909 1500 c 258
 1271 1500 l 258
 1302 1500 1301 1491 1294 1460 c 258
 1287 1432 l 258
 1279 1394 1271 1390 1232 1390 c 258
 1166 1390 l 258
 1138 1390 1128 1375 1100 1332 c 258
 698 704 l 258
 675 666 655 653 641 592 c 258
 543 150 l 258
 534 110 534 110 574 110 c 258
 644 110 l 258
 666 110 674 107 669 86 c 258
 659 40 l 258
 650 1 636 0 600 0 c 258
 246 0 l 258
 216 0 201 1 208 34 c 258
EndSplineSet
Fore
SplineSet
218 40 m 2
 218 76 l 2
 218 105 225 110 252 110 c 2
 296 110 l 2
 348 110 340 132 349 172 c 2
 438 558 l 2
 451 614 455 638 433 684 c 2
 243 1364 l 2
 232 1386 232 1390 198 1390 c 2
 192 1390 l 2
 160 1390 150 1393 150 1428 c 2
 150 1468 l 2
 150 1500 160 1500 192 1500 c 2
 555 1500 l 2
 583 1500 591 1497 591 1470 c 2
 591 1436 l 2
 591 1397 587 1390 549 1390 c 2
 483 1390 l 2
 441 1390 441 1382 455 1352 c 2
 582 887 l 2
 592.58397101 848.247665201 599 795 619 795 c 0
 633 795 652.07103153 836.080474497 675 873 c 2
 970 1348 l 2
 991.408203125 1384.70019531 975 1390 926 1390 c 2
 904 1390 l 2
 861 1390 860 1394 860 1437 c 2
 860 1462 l 2
 860 1492 863 1500 892 1500 c 2
 1246 1500 l 2
 1271 1500 1280 1499 1280 1474 c 2
 1280 1430 l 2
 1280 1397 1276 1390 1244 1390 c 2
 1186 1390 l 2
 1143 1390 1137.50498221 1384.23594306 1122 1360 c 2
 710 716 l 2
 683.165863674 674.05537914 660 656 646 596 c 2
 548 166 l 2
 538 124 543 110 600 110 c 2
 612 110 l 2
 651 110 658 106 658 68 c 2
 658 42 l 2
 658 3 647 0 610 0 c 2
 266 0 l 2
 227 0 218 1 218 40 c 2
EndSplineSet
Substitution2: "'c2sc' Capitals to Small Capitals in Latin lookup 1 subtable" y.sc
EndChar

StartChar: Z
Encoding: 90 90 37
Width: 1015
Flags: MW
AnchorPoint: "Anchor-0" 675 1500 basechar 0
AnchorPoint: "Anchor-1" 456 0 basechar 0
AnchorPoint: "Anchor-2" 456 0 basechar 0
LayerCount: 2
Back
SplineSet
296 1500 m 258
 1060 1500 l 258
 1085 1500 1086 1492 1080 1466 c 258
 1057 1364 l 258
 1046 1316 1011 1268 988 1238 c 258
 225 234 l 258
 188 185 164 160 158 132 c 256
 155 119 161 110 191 110 c 258
 449 110 l 258
 710 110 731 188 799 468 c 256
 806 494 809 510 839 510 c 258
 874 510 l 258
 906 510 905 497 899 468 c 258
 808 58 l 258
 796 4 789 0 733 0 c 258
 -87 0 l 258
 -115 0 -127 -6 -120 24 c 258
 -111 62 l 258
 -103 100 -91 114 -73 137 c 258
 812 1278 l 258
 843 1319 854 1339 862 1373 c 256
 865 1388 853 1390 841 1390 c 258
 613 1390 l 258
 402 1390 302 1312 242 1068 c 256
 234 1031 228 1030 191 1030 c 258
 173 1030 l 258
 136 1030 136 1041 144 1076 c 258
 227 1452 l 258
 238 1500 248 1500 296 1500 c 258
EndSplineSet
Fore
SplineSet
-90 36 m 2
 -90 68 l 2
 -90 101 -70.8202578611 122.611130693 -54 145 c 2
 818 1319 l 2
 843.23046875 1352.58300781 853 1367 853 1378 c 0
 853 1387 848 1390 788 1390 c 2
 670 1390 l 2
 412 1390 312 1314 243 1076 c 0
 234 1045 229 1030 195 1030 c 2
 170 1030 l 2
 131 1030 132 1041 139 1070 c 2
 230 1457 l 2
 238 1490 243 1500 286 1500 c 2
 1068 1500 l 2
 1101 1500 1110 1490 1110 1463 c 2
 1110 1433 l 2
 1110 1400 1099.97005728 1378.01638262 1079 1350 c 2
 220 189 l 2
 194.8359375 155.379882812 183 142 183 126 c 0
 183 110 194 110 258 110 c 2
 450 110 l 2
 705 110 715 184 793 448 c 0
 803 481 796 510 843 510 c 2
 865 510 l 2
 911 510 907 497 899 464 c 2
 800 44 l 2
 791 4 792 0 741 0 c 2
 -46 0 l 2
 -81 0 -90 11 -90 36 c 2
EndSplineSet
Substitution2: "'c2sc' Capitals to Small Capitals in Latin lookup 1 subtable" z.sc
EndChar

StartChar: a
Encoding: 97 97 38
Width: 818
Flags: MW
AnchorPoint: "Anchor-0" 447 1040 basechar 0
AnchorPoint: "Anchor-1" 289 0 basechar 0
AnchorPoint: "Anchor-2" 289 0 basechar 0
AnchorPoint: "Anchor-3" 661 20 basechar 0
LayerCount: 2
Fore
SplineSet
539 770 m 0
 539 868 520 976 453 976 c 0
 335 976 182 558 182 270 c 0
 182 152 193 74 249 74 c 0
 376 74 539 582 539 770 c 0
773 229 m 0
 706 80 646 -20 509 -20 c 0
 418 -20 392 31 393 76 c 0
 393 85 395 89 396 100 c 0
 397 114 392 115 384 100 c 0
 356 45 303 -20 225 -20 c 0
 51 -20 -6 140 -6 340 c 0
 -6 730 228 1058 450 1058 c 0
 527 1058 563 1001 578 961 c 0
 590 929 598 924 606 958 c 2
 619 1014 l 2
 623 1032 628 1040 649 1040 c 2
 746 1040 l 2
 786 1040 788 1034 780 1002 c 2
 573 138 l 2
 570 127 567 107 567 97 c 0
 567 83 569 74 580 74 c 0
 615 74 655 149 703 254 c 0
 711 271 709 276 728 269 c 2
 762 257 l 2
 780 251 781 246 773 229 c 0
EndSplineSet
Substitution2: "'smcp' Lowercase to Small Capitals in Latin lookup 0 subtable" a.sc
EndChar

StartChar: b
Encoding: 98 98 39
Width: 811
Flags: MW
AnchorPoint: "Anchor-0" 638 1040 basechar 0
AnchorPoint: "Anchor-1" 310 0 basechar 0
AnchorPoint: "Anchor-2" 310 0 basechar 0
LayerCount: 2
Fore
SplineSet
191 200 m 0
 191 111 218 60 282 60 c 0
 443 60 599 532 599 790 c 0
 599 878 571 950 498 950 c 0
 393 950 313 789 259 552 c 2
 196 264 l 2
 191 244 191 223 191 200 c 0
21 292 m 2
 278 1416 l 2
 286 1449 281 1450 267 1450 c 2
 261 1450 l 2
 233 1450 231 1467 231 1492 c 2
 231 1528 l 2
 231 1552 234 1560 257 1560 c 2
 453 1560 l 2
 486 1560 490 1556 484 1530 c 2
 361 992 l 2
 351 950 353 938 387 978 c 0
 418 1014 479 1058 547 1058 c 0
 664 1058 783 988 783 758 c 0
 783 368 593 -20 274 -20 c 0
 165 -20 86 74 27 199 c 0
 11 233 12 250 21 292 c 2
EndSplineSet
Substitution2: "'smcp' Lowercase to Small Capitals in Latin lookup 0 subtable" b.sc
EndChar

StartChar: c
Encoding: 99 99 40
Width: 742
Flags: MW
AnchorPoint: "Anchor-0" 482 1040 basechar 0
AnchorPoint: "Anchor-1" 309 0 basechar 0
AnchorPoint: "Anchor-2" 309 0 basechar 0
LayerCount: 2
Fore
SplineSet
743 804 m 0
 743 688 675 650 607 650 c 0
 552 650 495 682 495 756 c 0
 495 858 594 878 594 914 c 0
 594 938 544 976 486 976 c 0
 313 976 176 558 176 250 c 0
 176 142 209 78 292 78 c 0
 393 78 509 238 543 323 c 0
 551 342 558 346 588 346 c 2
 609 346 l 2
 649 346 658 342 648 314 c 0
 600 178 462 -20 260 -20 c 0
 85 -20 -5 160 -5 360 c 0
 -5 755 211 1060 472 1060 c 0
 673 1060 743 918 743 804 c 0
EndSplineSet
Substitution2: "'smcp' Lowercase to Small Capitals in Latin lookup 0 subtable" c.sc
EndChar

StartChar: d
Encoding: 100 100 41
Width: 819
Flags: MW
AnchorPoint: "Anchor-0" 551 1040 basechar 0
AnchorPoint: "Anchor-1" 1310 1040 basechar 0
AnchorPoint: "Anchor-2" 532 0 basechar 0
LayerCount: 2
Fore
SplineSet
539 770 m 0
 539 868 520 976 453 976 c 0
 335 976 183 558 183 270 c 0
 183 152 193 74 249 74 c 0
 376 74 539 582 539 770 c 0
773 229 m 0
 706 80 646 -20 509 -20 c 0
 418 -20 392 31 393 76 c 0
 393 85 395 89 396 100 c 0
 397 114 392 115 384 100 c 0
 356 45 303 -20 225 -20 c 0
 51 -20 -5 140 -5 340 c 0
 -5 730 228 1058 450 1058 c 0
 518 1058 564 993 574 961 c 0
 585 926 598 924 606 958 c 2
 711 1407 l 2
 716 1430 721 1450 692 1450 c 2
 684 1450 l 2
 666 1450 664 1458 665 1480 c 2
 666 1524 l 2
 667 1550 668 1560 690 1560 c 2
 860 1560 l 2
 901 1560 909 1559 901 1524 c 2
 573 138 l 2
 570 127 567 107 567 97 c 0
 567 83 569 74 580 74 c 0
 615 74 655 149 703 254 c 0
 711 271 709 276 728 269 c 2
 762 257 l 2
 780 251 781 246 773 229 c 0
EndSplineSet
Substitution2: "'smcp' Lowercase to Small Capitals in Latin lookup 0 subtable" d.sc
EndChar

StartChar: e
Encoding: 101 101 42
Width: 728
Flags: MW
AnchorPoint: "Anchor-0" 489 1040 basechar 0
AnchorPoint: "Anchor-1" 240 0 basechar 0
AnchorPoint: "Anchor-2" 240 0 basechar 0
AnchorPoint: "Anchor-3" 513 102 basechar 0
LayerCount: 2
Fore
SplineSet
-7 360 m 0
 -7 760 225 1060 501 1060 c 0
 626 1060 706 988 706 864 c 0
 706 630 456 470 233 397 c 0
 190 384 177 374 177 310 c 0
 177 162 215 78 288 78 c 0
 398 78 477 172 549 288 c 0
 560 305 567 306 596 306 c 2
 625 306 l 2
 663 306 668 302 651 272 c 0
 564 118 442 -20 254 -20 c 0
 78 -20 -7 160 -7 360 c 0
241 488 m 0
 416 568 538 716 540 894 c 0
 541 938 522 966 482 966 c 0
 389 966 258 773 207 556 c 0
 194 503 193 468 241 488 c 0
EndSplineSet
Substitution2: "'smcp' Lowercase to Small Capitals in Latin lookup 0 subtable" e.sc
EndChar

StartChar: f
Encoding: 102 102 43
Width: 468
Flags: MW
AnchorPoint: "Anchor-0" 809 1692 basechar 0
AnchorPoint: "Anchor-1" 71 0 basechar 0
AnchorPoint: "Anchor-2" 71 0 basechar 0
LayerCount: 2
Fore
SplineSet
-71 -266 m 2
 163 900 l 2
 169 929 166 930 143 930 c 2
 136 930 l 2
 120 930 112 933 112 958 c 2
 112 1004 l 2
 112 1036 120 1040 150 1040 c 2
 168 1040 l 2
 192 1040 191 1042 195 1062 c 2
 212 1144 l 2
 265 1407 345 1580 564 1580 c 0
 734 1580 829 1472 829 1358 c 0
 829 1272 781 1226 711 1226 c 0
 641 1226 595 1266 595 1322 c 0
 595 1382 637 1396 637 1436 c 0
 637 1460 612 1490 556 1490 c 0
 428 1490 432 1288 392 1100 c 2
 384 1062 l 2
 381 1046 385 1040 403 1040 c 2
 483 1040 l 2
 504 1040 510 1035 510 1010 c 2
 509 962 l 2
 509 936 505 930 481 930 c 2
 378 930 l 2
 357 930 356 930 352 910 c 2
 108 -272 l 2
 103 -296 94 -300 64 -300 c 2
 -42 -300 l 2
 -75 -300 -76 -291 -71 -266 c 2
EndSplineSet
Substitution2: "'smcp' Lowercase to Small Capitals in Latin lookup 0 subtable" f.sc
EndChar

StartChar: g
Encoding: 103 103 44
Width: 730
Flags: MW
AnchorPoint: "Anchor-0" 673 1040 basechar 0
AnchorPoint: "Anchor-1" 316 -565 basechar 0
AnchorPoint: "Anchor-2" 316 -565 basechar 0
LayerCount: 2
Fore
SplineSet
-143 -270 m 0
 -143 -154 -53 -66 40 -10 c 0
 69 8 62 1 39 13 c 0
 -13 38 -33 76 -33 128 c 0
 -33 236 64 309 167 350 c 0
 206 365 199 365 172 380 c 0
 100 421 64 502 64 600 c 0
 64 860 241 1060 459 1060 c 0
 476 1060 480 1059 486 1058 c 0
 500 1056 504 1052 508 1068 c 0
 555 1254 625 1340 720 1340 c 0
 812 1340 867 1290 867 1188 c 0
 867 1108 818 1058 758 1058 c 0
 702 1058 660 1095 660 1146 c 0
 660 1216 764 1256 706 1256 c 0
 679 1256 619 1219 580 1051 c 0
 577 1038 570 1031 580 1025 c 0
 629 997 688 914 688 788 c 0
 688 508 485 320 300 320 c 0
 294 320 289 320 285 320 c 0
 278 320 275 319 255 310 c 0
 192 282 123 242 123 202 c 0
 123 146 190 138 244 138 c 0
 253 138 322 138 327 138 c 0
 500 138 554 63 554 -104 c 0
 554 -356 344 -500 100 -500 c 0
 -89 -500 -143 -398 -143 -270 c 0
128 -23 m 0
 87 -74 37 -138 37 -264 c 0
 37 -344 75 -388 185 -388 c 0
 284 -388 427 -312 427 -144 c 0
 427 -53 401 -18 315 -18 c 0
 277 -18 231 -18 218 -18 c 0
 200 -18 197 -18 156 -14 c 0
 141 -12 136 -13 128 -23 c 0
232 524 m 0
 232 440 260 400 318 400 c 0
 428 400 523 646 523 862 c 0
 523 942.024996095 499 980 442 980 c 0
 327 980 232 728 232 524 c 0
EndSplineSet
Substitution2: "'smcp' Lowercase to Small Capitals in Latin lookup 0 subtable" g.sc
EndChar

StartChar: h
Encoding: 104 104 45
Width: 873
Flags: MW
AnchorPoint: "Anchor-0" 748 1035 basechar 0
AnchorPoint: "Anchor-1" 339 0 basechar 0
AnchorPoint: "Anchor-2" 339 0 basechar 0
LayerCount: 2
Fore
SplineSet
831 229 m 0
 763 79 713 -20 588 -20 c 0
 524 -20 464 7 464 99 c 0
 464 119 470 157 477 184 c 2
 600 660 l 2
 644 830 674 952 599 952 c 0
 477 952 311.853932584 603.033707865 250 335 c 2
 184 49 l 2
 177 18 174 0 133 0 c 2
 55 0 l 2
 -2 0 -6 4 4 49 c 2
 320 1415 l 2
 328 1449 322 1450 306 1450 c 2
 297 1450 l 2
 264 1450 263 1459 263 1493 c 2
 263 1521 l 2
 263 1554 267 1560 299 1560 c 2
 479 1560 l 2
 529 1560 532 1556 523 1517 c 2
 373 869 l 2
 358 804 369 808 404 869 c 0
 478 995 557 1058 660 1058 c 0
 791 1058 875 957 795 682 c 2
 653 192 l 2
 648 173 634 107 634 97 c 0
 634 80 637 74 645 74 c 0
 677 74 714 149 760 254 c 0
 768 270 773 276 792 268 c 2
 818 257 l 2
 835 250 838 246 831 229 c 0
EndSplineSet
Substitution2: "'smcp' Lowercase to Small Capitals in Latin lookup 0 subtable" h.sc
EndChar

StartChar: i
Encoding: 105 105 46
Width: 436
Flags: MW
AnchorPoint: "Anchor-1" 132 0 basechar 0
AnchorPoint: "Anchor-2" 132 0 basechar 0
AnchorPoint: "Anchor-3" 145 12 basechar 0
LayerCount: 2
Fore
SplineSet
402 990 m 2
 201 192 l 2
 196 173 182 107 182 97 c 0
 182 80 185 74 193 74 c 0
 225 74 262 149 308 254 c 0
 316 270 321 276 340 268 c 2
 366 257 l 2
 383 250 386 246 379 229 c 0
 311 79 261 -20 136 -20 c 0
 72 -20 2 7 2 99 c 0
 2 119 8 157 15 184 c 2
 193 896 l 2
 200 925 194 930 161 930 c 2
 159 930 l 2
 125 930 119 935 119 968 c 2
 119 1008 l 2
 119 1036 129 1040 155 1040 c 2
 361 1040 l 2
 411 1040 413 1035 402 990 c 2
255 1400 m 0
 255 1466 309 1520 375 1520 c 0
 441 1520 495 1466 493 1400 c 0
 491 1334 441 1280 375 1280 c 0
 309 1280 255 1334 255 1400 c 0
EndSplineSet
Substitution2: "'smcp' Lowercase to Small Capitals in Latin lookup 0 subtable" i.sc
EndChar

StartChar: j
Encoding: 106 106 47
Width: 355
Flags: MW
AnchorPoint: "Anchor-1" -208 -565 basechar 0
AnchorPoint: "Anchor-2" -208 -565 basechar 0
LayerCount: 2
Fore
SplineSet
347 991 m 2
 138 22 l 2
 72 -281 66 -520 -176 -520 c 0
 -324 -520 -398 -420 -398 -306 c 0
 -398 -207 -340 -138 -260 -138 c 0
 -192 -138 -144 -184 -144 -250 c 0
 -144 -320 -222 -334 -222 -374 c 0
 -222 -400 -210 -432 -156 -432 c 0
 6 -432 -52 -22 -2 208 c 2
 145 887 l 2
 154 927 148 930 98 930 c 2
 86 930 l 2
 61 930 58 937 58 963 c 2
 58 1001 l 2
 58 1032 61 1040 91 1040 c 2
 302 1040 l 2
 356 1040 356 1033 347 991 c 2
212 1400 m 0
 212 1466 266 1520 332 1520 c 0
 398 1520 452 1466 452 1400 c 0
 452 1334 398 1280 332 1280 c 0
 266 1280 212 1334 212 1400 c 0
EndSplineSet
Substitution2: "'smcp' Lowercase to Small Capitals in Latin lookup 0 subtable" j.sc
EndChar

StartChar: k
Encoding: 107 107 48
Width: 751
Flags: MW
AnchorPoint: "Anchor-0" 681 1040 basechar 0
AnchorPoint: "Anchor-1" 269 0 basechar 0
AnchorPoint: "Anchor-2" 269 0 basechar 0
LayerCount: 2
Fore
SplineSet
683 191 m 0
 622 43 571 -20 475 -20 c 0
 369 -20 336.782178218 57.8217821782 348 170 c 2
 359 280 l 2
 370.297029703 392.97029703 388 461 364 517 c 0
 356 534 348 533 332 529 c 0
 323 527 313 524 299 524 c 0
 285 524 277 526 268 528 c 0
 256 531 246 531 243 518 c 2
 128 21 l 2
 124 3 125 0 102 0 c 2
 -27 0 l 2
 -65 0 -55 9 -48 37 c 2
 270 1419 l 2
 276 1445 277 1450 255 1450 c 2
 245 1450 l 2
 224 1450 223 1459 223 1481 c 2
 223 1532 l 2
 223 1551 224 1560 243 1560 c 2
 456 1560 l 2
 481 1560 480 1547 476 1530 c 2
 292 735 l 2
 282 690 275 668 291 673 c 0
 306 677 313 678 325 678 c 0
 342 678 351 675 358 672 c 0
 372 666 385 656 404 691 c 0
 418 715 429 746 440 784 c 0
 489 960 531 1060 625 1060 c 0
 729 1060 765 972 765 898 c 0
 765 830 720 773 668 773 c 0
 620 773 589 806 589 856 c 0
 589 920.0078125 628 924 629 956 c 0
 629 976 623 980 611 980 c 0
 580 980 547 910 502 740 c 0
 491 700 476 667 459 640 c 0
 443 614 452.068150948 618.057728877 469 598 c 0
 534 521 542 447 530 282 c 2
 519 144 l 2
 515 90 521 84 533 84 c 0
 549 84 579 139 606 214 c 0
 617 244 621 246 644 240 c 2
 670 233 l 2
 690 228 695 220 683 191 c 0
EndSplineSet
Substitution2: "'smcp' Lowercase to Small Capitals in Latin lookup 0 subtable" k.sc
EndChar

StartChar: l
Encoding: 108 108 49
Width: 385
Flags: MW
AnchorPoint: "Anchor-0" 533 1696 basechar 0
AnchorPoint: "Anchor-1" 637 1040 basechar 0
AnchorPoint: "Anchor-2" 180 0 basechar 0
LayerCount: 2
Fore
SplineSet
479 1510 m 2
 191 192 l 2
 186 173 172 107 172 97 c 0
 172 80 175 74 183 74 c 0
 215 74 252 149 298 254 c 0
 306 270 311 276 330 268 c 2
 356 257 l 2
 373 250 376 246 369 229 c 0
 301 79 251 -20 126 -20 c 0
 62 -20 -8 7 -8 99 c 0
 -8 119 -2 157 5 184 c 2
 268 1416 l 2
 275 1445 269 1450 236 1450 c 2
 234 1450 l 2
 200 1450 194 1455 194 1488 c 2
 194 1528 l 2
 194 1556 204 1560 230 1560 c 2
 436 1560 l 2
 488 1560 490 1555 479 1510 c 2
EndSplineSet
Substitution2: "'smcp' Lowercase to Small Capitals in Latin lookup 0 subtable" l.sc
EndChar

StartChar: m
Encoding: 109 109 50
Width: 1180
Flags: MW
AnchorPoint: "Anchor-0" 860 1040 basechar 0
AnchorPoint: "Anchor-1" 600 0 basechar 0
AnchorPoint: "Anchor-2" 600 0 basechar 0
LayerCount: 2
Fore
SplineSet
175 1040 m 2
 361 1040 l 2
 404 1040 407 1043 399 1007 c 2
 366 891 l 2
 351 827 364 817 395 881 c 0
 434 961 486 1058 587 1058 c 0
 700 1058 749 989 751 887 c 0
 752 837 762 834 788 886 c 0
 842 995 902 1058 996 1058 c 0
 1147 1058 1205 961 1129 682 c 2
 998 192 l 2
 993 173 978 107 978 97 c 0
 978 80 981 74 989 74 c 0
 1021 74 1058 149 1104 254 c 0
 1112 270 1117 276 1136 268 c 2
 1162 257 l 2
 1179 250 1182 246 1175 229 c 0
 1107 79 1057 -20 932 -20 c 0
 868 -20 808 7 808 99 c 0
 808 119 814 158 821 184 c 2
 949 660 l 2
 994 827 1039 956 959 956 c 0
 848 956 712 587 642 306 c 2
 575 41 l 2
 566 6 562 0 518 0 c 2
 442 0 l 2
 382 0 389 5 401 52 c 2
 552 660 l 2
 593 826 633 956 552 956 c 0
 464 956 309 615 244 332 c 2
 177 42 l 2
 168 5 170 0 123 0 c 2
 39 0 l 2
 -21 0 -12 7 -1 54 c 2
 192 885 l 2
 201 925 204 930 184 930 c 2
 181 930 l 2
 146 930 137 932 137 967 c 2
 137 995 l 2
 137 1031 139 1040 175 1040 c 2
EndSplineSet
Substitution2: "'smcp' Lowercase to Small Capitals in Latin lookup 0 subtable" m.sc
EndChar

StartChar: n
Encoding: 110 110 51
Width: 873
Flags: MW
AnchorPoint: "Anchor-0" 571 1040 basechar 0
AnchorPoint: "Anchor-1" 339 0 basechar 0
AnchorPoint: "Anchor-2" 339 0 basechar 0
LayerCount: 2
Fore
SplineSet
179 1040 m 2
 359 1040 l 2
 409 1040 412 1036 403 997 c 2
 373 869 l 2
 358 804 369 808 404 869 c 0
 478 995 557 1058 660 1058 c 0
 791 1058 875 957 795 682 c 2
 653 192 l 2
 648 173 634 107 634 97 c 0
 634 80 637 74 645 74 c 0
 677 74 714 149 760 254 c 0
 768 270 773 276 792 268 c 2
 818 257 l 2
 835 250 838 246 831 229 c 0
 763 79 713 -20 588 -20 c 0
 524 -20 464 7 464 99 c 0
 464 119 470 157 477 184 c 2
 600 660 l 2
 644 830 674 952 599 952 c 0
 477 952 312 603 250 335 c 2
 184 49 l 2
 177 18 174 0 133 0 c 2
 55 0 l 2
 -2 0 -6 4 4 49 c 2
 200 895 l 2
 208 929 202 930 186 930 c 2
 177 930 l 2
 144 930 143 939 143 973 c 2
 143 1001 l 2
 143 1034 147 1040 179 1040 c 2
EndSplineSet
Substitution2: "'smcp' Lowercase to Small Capitals in Latin lookup 0 subtable" n.sc
EndChar

StartChar: o
Encoding: 111 111 52
Width: 787
Flags: MW
AnchorPoint: "Anchor-0" 516 1050 basechar 0
AnchorPoint: "Anchor-1" 362 0 basechar 0
AnchorPoint: "Anchor-2" 362 0 basechar 0
LayerCount: 2
Fore
SplineSet
-5 360 m 0
 -5 755 206 1060 487 1060 c 0
 681 1060 758 900 758 708 c 0
 758 310 569 -20 264 -20 c 0
 79 -20 -5 159 -5 360 c 0
176 250 m 0
 176 142 199 70 275 70 c 0
 460 70 575 536 575 790 c 0
 575 898 552 970 476 970 c 0
 291 970 176 504 176 250 c 0
EndSplineSet
Substitution2: "'smcp' Lowercase to Small Capitals in Latin lookup 0 subtable" o.sc
EndChar

StartChar: p
Encoding: 112 112 53
Width: 825
Flags: MW
AnchorPoint: "Anchor-0" 689 1040 basechar 0
AnchorPoint: "Anchor-1" 547 0 basechar 0
AnchorPoint: "Anchor-2" 547 0 basechar 0
LayerCount: 2
Fore
SplineSet
189 1038 m 2
 345 1038 l 2
 394 1038 394 1035 384 992 c 2
 374 949 l 2
 361 893 378 881 405 927 c 0
 452 1006 512 1058 585 1058 c 0
 718 1058 793 896 793 698 c 0
 793 308 567 -20 337 -20 c 0
 283 -20 243 7 221 57 c 0
 194 117 192 122 176 52 c 2
 61 -456 l 2
 54 -487 50 -502 10 -502 c 2
 -95 -502 l 2
 -131 -502 -131 -493 -125 -466 c 2
 186 876 l 2
 194 912 201 928 171 928 c 2
 165 928 l 2
 144 928 143 937 143 968 c 2
 143 997 l 2
 143 1035 153 1038 189 1038 c 2
251 268 m 0
 251 169.979593961 270 62 337 62 c 0
 455 62 607 480 607 768 c 0
 607 886 597 964 540 964 c 0
 411 964 251 456 251 268 c 0
EndSplineSet
Substitution2: "'smcp' Lowercase to Small Capitals in Latin lookup 0 subtable" p.sc
EndChar

StartChar: q
Encoding: 113 113 54
Width: 761
Flags: MW
AnchorPoint: "Anchor-0" 504 1040 basechar 0
AnchorPoint: "Anchor-1" 192 0 basechar 0
AnchorPoint: "Anchor-2" 192 0 basechar 0
LayerCount: 2
Fore
SplineSet
-5 339 m 0
 -5 729 229 1058 450 1058 c 0
 518 1058 548 1008 569 961 c 0
 583 929 595 924 602 952 c 2
 617 1014 l 2
 624 1035 630 1040 657 1040 c 2
 743 1040 l 2
 774 1040 781 1031 776 1007 c 2
 475 -359 l 2
 470 -382 469 -390 489 -390 c 2
 501 -390 l 2
 516 -390 523 -394 523 -418 c 2
 523 -458 l 2
 523 -491 522 -500 489 -500 c 2
 317 -500 l 2
 272 -500 259 -498 266 -468 c 2
 388 58 l 2
 396 92 386 100 364 69 c 0
 339 34 289 -20 224 -20 c 0
 50 -20 -5 139 -5 339 c 0
539 770 m 0
 539 868.020406039 520 976 453 976 c 0
 334 976 183 558 183 270 c 0
 183 151.983052065 193 74 249 74 c 0
 378 74 539 582 539 770 c 0
EndSplineSet
Substitution2: "'smcp' Lowercase to Small Capitals in Latin lookup 0 subtable" q.sc
EndChar

StartChar: r
Encoding: 114 114 55
Width: 736
Flags: MW
AnchorPoint: "Anchor-0" 484 1040 basechar 0
AnchorPoint: "Anchor-1" 105 0 basechar 0
AnchorPoint: "Anchor-2" 105 0 basechar 0
LayerCount: 2
Fore
SplineSet
172 1040 m 2
 335 1040 l 2
 382 1040 394 1035 386 998 c 2
 372 938 l 2
 359 882 374 896 398 936 c 0
 447 1017 484 1060 560 1060 c 0
 668 1060 740 988 740 902 c 0
 740 818 686 757 616 757 c 0
 540 757 496 799 496 871 c 0
 496 915.01171875 515 930 515 947 c 0
 515 953 511 957 504 957 c 0
 469 957 304.145953261 643.953410217 252 417 c 2
 164 34 l 2
 157 3 158 0 119 0 c 2
 17 0 l 2
 -24 0 -21 12 -14 42 c 2
 182 885 l 2
 191 926 191 930 161 930 c 2
 159 930 l 2
 137 930 135 939 135 972 c 2
 135 1013 l 2
 135 1032 146 1040 172 1040 c 2
EndSplineSet
Substitution2: "'smcp' Lowercase to Small Capitals in Latin lookup 0 subtable" r.sc
EndChar

StartChar: s
Encoding: 115 115 56
Width: 650
Flags: MW
AnchorPoint: "Anchor-0" 421 1040 basechar 0
AnchorPoint: "Anchor-1" 250 30 basechar 0
AnchorPoint: "Anchor-2" 250 30 basechar 0
LayerCount: 2
Fore
SplineSet
426 251 m 0
 426 487 87 478 87 770 c 0
 87 938 216 1064 398 1064 c 0
 544 1064 646 974 646 822 c 0
 646 742 591 704 527 704 c 0
 463 704 415 750 415 800 c 0
 415 868 479 889 479 929 c 0
 479 961 462 984 412 984 c 0
 320 984 249 924 249 822 c 0
 249 592 592 630 592 294 c 0
 592 116 482 -24 254 -24 c 0
 66 -24 -29 82 -29 222 c 0
 -29 328 29 386 99 386 c 0
 169 386 213 338 213 274 c 0
 212 198 135 171 135 131 c 0
 135 85 167 58 255 58 c 0
 359 58 426 149 426 251 c 0
EndSplineSet
Substitution2: "'smcp' Lowercase to Small Capitals in Latin lookup 0 subtable" s.sc
EndChar

StartChar: t
Encoding: 116 116 57
Width: 457
Flags: MW
AnchorPoint: "Anchor-0" 323 1277 basechar 0
AnchorPoint: "Anchor-1" 487 1153 basechar 0
AnchorPoint: "Anchor-2" 135 0 basechar 0
LayerCount: 2
Fore
SplineSet
128 1040 m 2
 176 1040 l 2
 199 1040 196 1045 200 1063 c 2
 231 1196 l 2
 237 1223 239 1219 267 1225 c 0
 307 1232 347 1250 371 1263 c 0
 390 1273 394 1276 411 1276 c 0
 428 1276 429 1273 425 1257 c 2
 380 1060 l 2
 376 1042 373 1040 393 1040 c 2
 436 1040 l 2
 461 1040 461 1037 460 1007 c 2
 458 958 l 2
 457 930 449 930 425 930 c 2
 367 930 l 2
 350 930 351 927 347 911 c 2
 179 214 l 2
 163 147 134 80 191 80 c 0
 233 80 287 171 307 238 c 0
 313 258 319 271 339 264 c 2
 374 251 l 2
 392 244 394 242 386 215 c 0
 352 100 276 -24 147 -24 c 0
 -8 -24 -23.481557769 96.2521228318 29 322 c 2
 165 907 l 2
 170 927 167 930 143 930 c 2
 124 930 l 2
 106 930 105 939 105 958 c 2
 105 1010 l 2
 105 1032 107 1040 128 1040 c 2
EndSplineSet
Substitution2: "'smcp' Lowercase to Small Capitals in Latin lookup 0 subtable" t.sc
Substitution2: "'ss01' Style Set 1 lookup 3 subtable" t.alt
EndChar

StartChar: u
Encoding: 117 117 58
Width: 856
Flags: MW
AnchorPoint: "Anchor-0" 491 1040 basechar 0
AnchorPoint: "Anchor-1" 282 0 basechar 0
AnchorPoint: "Anchor-2" 282 0 basechar 0
AnchorPoint: "Anchor-3" 702 30 basechar 0
LayerCount: 2
Fore
SplineSet
-22 811 m 0
 46 961 96 1060 231 1060 c 0
 338 1060 370 975 341 856 c 2
 225 380 l 2
 184 213 185 98 251 98 c 0
 337 98 521 420 583 687 c 2
 660 1025 l 2
 663 1037 667 1040 683 1040 c 2
 824 1040 l 2
 844 1040 845 1039 841 1023 c 2
 640 192 l 2
 628 144 607 74 632 74 c 0
 664 74 701 149 747 254 c 0
 755 270 760 276 779 268 c 2
 805 257 l 2
 822 250 825 246 818 229 c 0
 750 79 700 -20 575 -20 c 0
 470 -20 443 69 472 183 c 2
 489 249 l 2
 497 279 488 280 478 262 c 0
 394 118 305 -18 178 -18 c 0
 59 -18 -25 77 45 358 c 2
 166 848 l 2
 172 873 201 966 172 966 c 0
 136 966 97 891 49 786 c 0
 41 770 36 764 17 772 c 2
 -9 783 l 2
 -26 790 -29 794 -22 811 c 0
EndSplineSet
Substitution2: "'smcp' Lowercase to Small Capitals in Latin lookup 0 subtable" u.sc
EndChar

StartChar: v
Encoding: 118 118 59
Width: 754
Flags: MW
AnchorPoint: "Anchor-0" 435 1040 basechar 0
AnchorPoint: "Anchor-1" 317 0 basechar 0
AnchorPoint: "Anchor-2" 317 0 basechar 0
LayerCount: 2
Fore
SplineSet
534 806 m 0
 481 806 440 854 443 930 c 0
 445 990 495 1058 579 1058 c 0
 674 1058 735 960 735 838 c 0
 735 505 584 222 283 -52 c 0
 266 -69 260 -63 241 -51 c 2
 190 -23 l 2
 178 -15 181 -9 184 12 c 0
 192 64 192 138 186 210 c 0
 145 564 70 618 70 796 c 0
 70 892 123 954 263 1036 c 0
 289 1051 290 1051 304 1026 c 2
 313 1010 l 2
 324 990 332 986 312 972 c 0
 272 944 241 911 241 826 c 0
 241 700 312 585 331 299 c 0
 334 255 337 201 338 167 c 0
 338 144 340 133 357 155 c 0
 539 376 627 592 627 798 c 0
 627 822 620 835 610 835 c 0
 598 835 578 806 534 806 c 0
EndSplineSet
Substitution2: "'smcp' Lowercase to Small Capitals in Latin lookup 0 subtable" v.sc
EndChar

StartChar: w
Encoding: 119 119 60
Width: 1238
Flags: MW
AnchorPoint: "Anchor-0" 831 1040 basechar 0
AnchorPoint: "Anchor-1" 510 0 basechar 0
AnchorPoint: "Anchor-2" 510 0 basechar 0
LayerCount: 2
Fore
SplineSet
94 811 m 0
 162 961 212 1060 347 1060 c 0
 411 1060 471 1033 471 941 c 0
 471 921 464 883 457 856 c 2
 341 380 l 2
 300 213 301 98 367 98 c 0
 448 98 548 301 598 520 c 2
 710 1007 l 2
 717 1038 727 1040 766 1040 c 2
 853 1040 l 2
 902 1040 903 1036 894 995 c 2
 739 378 l 2
 697 211 678 96 746 96 c 0
 900 96 1149 600 1149 796 c 0
 1149 810 1149 834 1133 834 c 0
 1126 834 1113 826 1095 826 c 0
 1041 826 997 870 997 940 c 0
 997 1012 1054 1058 1126 1058 c 0
 1212 1058 1267 978 1267 856 c 0
 1267 587 995 -20 715 -20 c 0
 627 -20 576 10 565 103 c 0
 559 155 541 150 505 105 c 0
 448 30 394 -18 294 -18 c 0
 175 -18 91 77 161 358 c 2
 282 848 l 2
 287 867 301 933 301 943 c 0
 301 960 297 966 288 966 c 0
 252 966 213 891 165 786 c 0
 157 770 152 764 133 772 c 2
 107 783 l 2
 90 790 87 794 94 811 c 0
EndSplineSet
Substitution2: "'smcp' Lowercase to Small Capitals in Latin lookup 0 subtable" w.sc
EndChar

StartChar: x
Encoding: 120 120 61
Width: 774
Flags: MW
AnchorPoint: "Anchor-0" 476 1040 basechar 0
AnchorPoint: "Anchor-1" 307 0 basechar 0
AnchorPoint: "Anchor-2" 307 0 basechar 0
LayerCount: 2
Fore
SplineSet
-56 132 m 0
 -56 200 -10 272 67 272 c 0
 139 272 167 226 167 186 c 0
 166 132 139 132 139 110 c 0
 139 99 144 92 155 92 c 0
 187 92 238 208 288 438 c 0
 300 493 311 512 304 574 c 0
 292 684 277 803 267 859 c 0
 263 881 262 906 237 906 c 0
 211 906 164 818 109 724 c 0
 96 703 96 695 76 710 c 2
 48 731 l 2
 28 746 28 748 39 768 c 0
 122 925 208 1064 299 1064 c 0
 369 1064 396 1013 405 907 c 0
 408 878 415 836 416 800 c 0
 418 723 429 706 443 766 c 0
 479 918 517 1060 636 1060 c 0
 705 1060 762 1012 762 908 c 0
 762 829.993590007 717 778 645 778 c 0
 596 778 565 816 565 856 c 0
 565 900.045431091 578 904 579 926 c 0
 579 933 579 936 573 936 c 0
 550 936 519 794 475 600 c 0
 465 558 457 542 460 492 c 0
 468 339 480 291 501 185 c 0
 505 164 515 148 529 148 c 0
 560 148 585 202 630 288 c 0
 643 311 643 327 670 314 c 2
 693 302 l 2
 722 287 724 285 709 255 c 0
 634 101 567 -20 462 -20 c 0
 400 -20 371 30 358 147 c 0
 354 180 352 207 347 264 c 0
 345 291 331 336 318 280 c 0
 282 125 231 -20 94 -20 c 0
 7 -20 -56 48 -56 132 c 0
EndSplineSet
Substitution2: "'smcp' Lowercase to Small Capitals in Latin lookup 0 subtable" x.sc
EndChar

StartChar: y
Encoding: 121 121 62
Width: 738
Flags: MW
AnchorPoint: "Anchor-0" 435 1040 basechar 0
AnchorPoint: "Anchor-1" -24 -565 basechar 0
AnchorPoint: "Anchor-2" -24 -565 basechar 0
LayerCount: 2
Fore
SplineSet
573 828 m 0
 513 828 478 874 478 950 c 0
 478 1020.0285656 521 1078 595 1078 c 0
 691 1078 732 1012 732 920 c 0
 732 550 282 -520 -41 -520 c 0
 -145 -520 -227 -446 -227 -312 c 0
 -227 -220 -158 -136 -89 -136 c 0
 -28 -136 3 -171.9921875 3 -234 c 0
 3 -340 -93 -330 -93 -362 c 0
 -93 -386.020824299 -88 -420 -31 -420 c 0
 56 -420 172 -267 282 -59 c 0
 309 -10 317 -14 301 48 c 0
 236 331 193 727 158 849 c 0
 152 870 145 894 129 894 c 0
 108 894 73 798 46 711 c 0
 38 686 32 684 12 685 c 2
 -16 687 l 2
 -50 689 -41 704 -30 736 c 0
 24 887 89 1064 201 1064 c 0
 265 1064 281 1010 302 915 c 0
 335 768 367 572 410 310 c 0
 425 231 444 241 468 302 c 0
 575 567 629 783 629 828 c 0
 629 835 628 840 622 840 c 0
 615 840 601 828 573 828 c 0
EndSplineSet
Substitution2: "'smcp' Lowercase to Small Capitals in Latin lookup 0 subtable" y.sc
EndChar

StartChar: z
Encoding: 122 122 63
Width: 614
Flags: MW
AnchorPoint: "Anchor-0" 389 1040 basechar 0
AnchorPoint: "Anchor-1" 349 0 basechar 0
AnchorPoint: "Anchor-2" 349 0 basechar 0
LayerCount: 2
Fore
SplineSet
52 832 m 0
 125 941 198 1060 317 1060 c 0
 435 1060 448 982 518 982 c 0
 558 982 576 999 626 1043 c 0
 645 1059 654 1058 665 1044 c 2
 685 1019 l 2
 696 1006 696 1003 683 984 c 2
 182 247 l 2
 162 217 135 199 141 192 c 0
 148 185 178 201 198 210 c 0
 215 218 228 220 249 220 c 0
 306 220 315 176 364 176 c 0
 438 176 472 254 500 319 c 0
 508 338 511 343 531 337 c 2
 575 322 l 2
 590 317 591 312 580 284 c 0
 536 170 476 -20 326 -20 c 0
 248 -20 215 48 111 48 c 0
 79 48 55 43 -17 -8 c 0
 -37 -22 -37 -18 -52 0 c 2
 -62 16 l 2
 -77 35 -74 43 -61 62 c 2
 465 828 l 2
 481 851 502 863 498 870 c 0
 494 876 482 863 452 849 c 0
 427 837 402 830 377 830 c 0
 321 830 297 866 232 866 c 0
 189 866 171 843 128 784 c 0
 105 753 108 746 72 765 c 2
 44 780 l 2
 17 794 37 809 52 832 c 0
EndSplineSet
Substitution2: "'smcp' Lowercase to Small Capitals in Latin lookup 0 subtable" z.sc
EndChar

StartChar: comma
Encoding: 44 44 65
Width: 658
Flags: MW
LayerCount: 2
Fore
SplineSet
77 98 m 0
 77 164 135 216 211 216 c 0
 289 216 351 154 351 28 c 0
 351 -146 181 -296 16 -311 c 0
 1 -312 -7 -313 -7 -296 c 2
 -7 -253 l 2
 -7 -235 3 -232 18 -230 c 0
 109 -216 257 -124 246 -9 c 0
 244 7 235 -1 224 -8 c 0
 211 -16 194 -20 173 -20 c 0
 107 -20 77 32 77 98 c 0
EndSplineSet
EndChar

StartChar: exclam
Encoding: 33 33 67
Width: 638
Flags: MW
LayerCount: 2
Fore
SplineSet
20 100 m 0
 20 166 74 220 140 220 c 0
 206 220 260 166 260 100 c 0
 260 34 206 -20 140 -20 c 0
 74 -20 20 34 20 100 c 0
550 1294 m 0
 447 967 344 716 272 434 c 0
 267 415 264 410 239 410 c 2
 206 410 l 2
 188 410 184 412 188 428 c 0
 253 712 249 995 320 1350 c 0
 336 1430 362 1518 466 1518 c 0
 530 1518 570 1468 570 1404 c 0
 570 1368 560 1326 550 1294 c 0
EndSplineSet
EndChar

StartChar: quotesingle
Encoding: 39 39 70
Width: 398
Flags: MW
LayerCount: 2
Fore
SplineSet
424 1378 m 0
 384 1236 296 1111 270 996 c 0
 267 983 266 976 250 976 c 2
 208 976 l 2
 190 976 191 982 193 996 c 0
 210 1108 209 1214 218 1358 c 0
 224 1456 276 1516 348 1516 c 0
 400 1516 432 1482 432 1428 c 0
 432 1412 430 1396 424 1378 c 0
EndSplineSet
EndChar

StartChar: quoteleft
Encoding: 8216 8216 71
Width: 483
Flags: MW
LayerCount: 2
Fore
SplineSet
476 1190 m 0
 476 1124 418 1072 342 1072 c 0
 264 1072 202 1134 202 1260 c 0
 202 1434 372 1584 537 1599 c 0
 552 1600 560 1601 560 1584 c 2
 560 1541 l 2
 560 1523 550 1520 535 1518 c 0
 444 1504 296 1412 307 1297 c 0
 309 1281 318 1289 329 1296 c 0
 342 1304 359 1308 380 1308 c 0
 446 1308 476 1256 476 1190 c 0
EndSplineSet
EndChar

StartChar: quotedblleft
Encoding: 8220 8220 72
Width: 2673
Flags: MW
LayerCount: 2
Fore
SplineSet
2276 1190 m 0
 2276 1124 2218 1072 2142 1072 c 0
 2064 1072 2002 1134 2002 1260 c 0
 2002 1434 2172 1584 2337 1599 c 0
 2352 1600 2360 1601 2360 1584 c 2
 2360 1541 l 2
 2360 1523 2350 1520 2335 1518 c 0
 2244 1504 2096 1412 2107 1297 c 0
 2109 1281 2118 1289 2129 1296 c 0
 2142 1304 2159 1308 2180 1308 c 0
 2246 1308 2276 1256 2276 1190 c 0
2666 1190 m 0
 2666 1124 2608 1072 2532 1072 c 0
 2454 1072 2392 1134 2392 1260 c 0
 2392 1434 2562 1584 2727 1599 c 0
 2742 1600 2750 1601 2750 1584 c 2
 2750 1541 l 2
 2750 1523 2740 1520 2725 1518 c 0
 2634 1504 2486 1412 2497 1297 c 0
 2499 1281 2508 1289 2519 1296 c 0
 2532 1304 2549 1308 2570 1308 c 0
 2636 1308 2666 1256 2666 1190 c 0
EndSplineSet
EndChar

StartChar: quotedblright
Encoding: 8221 8221 73
Width: 873
Flags: MW
LayerCount: 2
Fore
SplineSet
237 1402 m 0
 237 1468 295 1520 371 1520 c 0
 449 1520 511 1458 511 1332 c 0
 511 1158 341 1008 176 993 c 0
 161 992 153 991 153 1008 c 2
 153 1051 l 2
 153 1069 163 1072 178 1074 c 0
 269 1088 417 1180 406 1295 c 0
 404 1311 395 1303 384 1296 c 0
 371 1288 354 1284 333 1284 c 0
 267 1284 237 1336 237 1402 c 0
627 1402 m 0
 627 1468 685 1520 761 1520 c 0
 839 1520 901 1458 901 1332 c 0
 901 1158 731 1008 566 993 c 0
 551 992 543 991 543 1008 c 2
 543 1051 l 2
 543 1069 553 1072 568 1074 c 0
 659 1088 807 1180 796 1295 c 0
 794 1311 785 1303 774 1296 c 0
 761 1288 744 1284 723 1284 c 0
 657 1284 627 1336 627 1402 c 0
EndSplineSet
EndChar

StartChar: quoteright
Encoding: 8217 8217 74
Width: 483
Flags: MW
LayerCount: 2
Fore
SplineSet
237 1402 m 0
 237 1468 295 1520 371 1520 c 0
 449 1520 511 1458 511 1332 c 0
 511 1158 341 1008 176 993 c 0
 161 992 153 991 153 1008 c 2
 153 1051 l 2
 153 1069 163 1072 178 1074 c 0
 269 1088 417 1180 406 1295 c 0
 404 1311 395 1303 384 1296 c 0
 371 1288 354 1284 333 1284 c 0
 267 1284 237 1336 237 1402 c 0
EndSplineSet
EndChar

StartChar: question
Encoding: 63 63 75
Width: 1100
Flags: MW
LayerCount: 2
Fore
SplineSet
553 438 m 0
 498 397 438 392 402 392 c 0
 281 392 210 466 210 570 c 0
 210 826 858 865 858 1200 c 0
 858 1348 760 1426 602 1426 c 0
 474 1426 358 1368 358 1324 c 0
 358 1264 420 1262 420 1160 c 0
 420 1076 354 1040 284 1040 c 0
 214 1040 150 1086 150 1182 c 0
 150 1366 338 1520 642 1520 c 0
 904 1520 1040 1400 1040 1180 c 0
 1040 726 351 729 351 567 c 0
 351 534 373 506 420 506 c 0
 444 506 489 511 530 546 c 0
 546 560 548 559 554 527 c 2
 566 476 l 2
 570 453 568 449 553 438 c 0
EndSplineSet
Refer: 1 46 N 1 0 0 1 298 0 2
EndChar

StartChar: parenleft
Encoding: 40 40 76
Width: 890
Flags: MW
LayerCount: 2
Fore
SplineSet
613 -275 m 2
 605 -313 l 2
 598 -348 589 -337 561 -326 c 0
 222 -193 60 117 60 470 c 0
 60 1001 426 1436 927 1588 c 0
 957 1597 968 1608 975 1573 c 2
 983 1535 l 2
 988 1508 994 1502 969 1493 c 0
 554 1347 290 946 290 470 c 0
 290 177 348 -63 593 -223 c 0
 618 -239 620 -240 613 -275 c 2
EndSplineSet
EndChar

StartChar: parenright
Encoding: 41 41 77
Width: 890
Flags: MW
LayerCount: 2
Fore
SplineSet
247 1539 m 2
 255 1577 l 2
 262 1612 271 1601 299 1590 c 0
 638 1457 800 1147 800 794 c 0
 800 263 434 -172 -67 -324 c 0
 -97 -333 -108 -344 -115 -309 c 2
 -123 -271 l 2
 -128 -244 -134 -238 -109 -229 c 0
 306 -83 570 318 570 794 c 0
 570 1087 512 1327 267 1487 c 0
 242 1503 240 1504 247 1539 c 2
EndSplineSet
EndChar

StartChar: asterisk
Encoding: 42 42 78
Width: 1270
Flags: MW
LayerCount: 2
Fore
SplineSet
754 962 m 0
 814 922 879 883 955 832 c 0
 1037 778 1063 702 1027 640 c 0
 987 570 910 598 869 643 c 0
 789 724 733 827 671 906 c 0
 644 941 632 971 627 900 c 0
 622 827 620 750 614 658 c 0
 608 560 556 500 484 500 c 0
 413 500 384 567 408 638 c 0
 438 746 496 844 534 935 c 0
 560 998 559 1001 501 972 c 0
 438 941 373 905 293 866 c 0
 205 822 127 838 91 900 c 0
 54 965 106 1021 173 1035 c 0
 282 1063 397 1062 495 1075 c 0
 570 1085 555 1091 508 1122 c 0
 450 1161 387 1199 313 1248 c 0
 231 1302 205 1378 241 1440 c 0
 281 1510 358 1482 399 1437 c 0
 482 1352 541 1245 605 1165 c 0
 625 1140 636 1111 640 1165 c 0
 646 1242 648 1323 654 1422 c 0
 660 1520 712 1580 784 1580 c 0
 855 1580 884 1513 860 1442 c 0
 828 1329 766 1227 729 1132 c 0
 711 1087 705 1078 750 1100 c 0
 818 1133 888 1171 975 1214 c 0
 1063 1258 1141 1242 1177 1180 c 0
 1214 1115 1162 1059 1095 1045 c 0
 984 1016 867 1019 768 1005 c 0
 702 996 710 991 754 962 c 0
EndSplineSet
EndChar

StartChar: at
Encoding: 64 64 79
Width: 2120
Flags: MW
LayerCount: 2
Fore
SplineSet
1328 692 m 0
 1328 776 1300 956 1168 956 c 0
 1020 956 870 728 870 480 c 0
 870 346 900 244 1028 244 c 0
 1150 244 1328 436 1328 692 c 0
1640 -161 m 0
 1474 -336 1245 -428 938 -428 c 0
 652 -428 130 -224 130 442 c 0
 130 1108 624 1580 1170 1580 c 0
 1716 1580 2010 1208 2010 842 c 0
 2010 522 1824 140 1482 140 c 0
 1376 140 1322 198 1289 267 c 0
 1269 309 1272 325 1223 271 c 0
 1148 188 1057 140 968 140 c 0
 810 140 668 251 668 460 c 0
 668 760 898 1058 1136 1058 c 0
 1239 1058 1311 1004 1351 912 c 0
 1379 848 1378 841 1393 905 c 2
 1417 1010 l 2
 1422 1033 1429 1040 1459 1040 c 2
 1550 1040 l 2
 1596 1040 1601 1027 1591 986 c 2
 1460 420 l 2
 1456 394 1432 264 1526 264 c 0
 1728 264 1884 542 1884 850 c 0
 1884 1204 1572 1474 1204 1474 c 0
 716 1474 340 1006 340 462 c 0
 340 -142 702 -318 990 -318 c 0
 1185 -318 1385 -255 1557 -86 c 0
 1588 -56 1588 -46 1620 -78 c 2
 1649 -107 l 2
 1674 -132 1664 -136 1640 -161 c 0
EndSplineSet
EndChar

StartChar: dollar
Encoding: 36 36 80
Width: 1320
Flags: MW
LayerCount: 2
Fore
SplineSet
1026 1142 m 0
 1026 1214 1090 1224 1090 1270 c 0
 1090 1317 1049 1385 934 1409 c 0
 914 1413 916 1407 911 1390 c 2
 778 920 l 2
 760 857 763 857 818 831 c 0
 982 752 1140 651 1140 410 c 0
 1140 131 901 -11 544 -19 c 0
 514 -20 513 -20 506 -44 c 2
 475 -152 l 2
 470 -171 466 -170 442 -170 c 2
 377 -170 l 2
 347 -170 351 -168 357 -146 c 2
 389 -31 l 2
 395 -10 396 -10 373 -6 c 0
 108 41 12 200 12 352 c 0
 12 448 82 504 140 504 c 0
 194 504 254 462 254 388 c 0
 254 316 190 306 190 260 c 0
 190 215 227 134 379 100 c 0
 409 93 422 85 431 116 c 2
 588 671 l 2
 598 708 592 707 561 722 c 0
 413 795 280 888 280 1100 c 0
 280 1333 522 1506 796 1519 c 0
 826 1520 827 1520 834 1544 c 2
 865 1651 l 2
 870 1668 869 1670 891 1670 c 2
 960 1670 l 2
 988 1670 987 1660 982 1641 c 2
 950 1530 l 2
 943 1504 953 1508 978 1502 c 0
 1149 1460 1268 1345 1268 1158 c 0
 1268 1062 1198 1026 1140 1026 c 0
 1086 1026 1026 1068 1026 1142 c 0
460 1150 m 0
 460 1039 532 975 630 922 c 0
 658 907 656 912 665 944 c 2
 791 1392 l 2
 797 1414 802 1418 774 1415 c 0
 594 1398 460 1309 460 1150 c 0
960 340 m 0
 960 493 866 571 747 633 c 0
 704 655 703 656 689 606 c 2
 548 106 l 2
 541 81 546 84 576 85 c 0
 825 95 960 208 960 340 c 0
EndSplineSet
EndChar

StartChar: numbersign
Encoding: 35 35 81
Width: 1320
Flags: MW
LayerCount: 2
Fore
SplineSet
625 1610 m 2
 670 1610 l 2
 712 1610 712 1603 704 1573 c 2
 578 1121 l 2
 569 1088 568 1080 614 1080 c 2
 876 1080 l 2
 906 1080 912 1095 918 1117 c 2
 1046 1573 l 2
 1055 1604 1058 1610 1098 1610 c 2
 1136 1610 l 2
 1170 1610 1166 1596 1160 1573 c 2
 1031 1113 l 2
 1023 1084 1017 1080 1056 1080 c 2
 1348 1080 l 2
 1372 1080 1380 1075 1380 1049 c 2
 1380 997 l 2
 1380 976 1374 970 1352 970 c 2
 1042 970 l 2
 997 970 990 963 980 929 c 2
 888 599 l 2
 878 563 882 560 930 560 c 2
 1194 560 l 2
 1228 560 1240 558 1240 521 c 2
 1240 491 l 2
 1240 452 1232 450 1192 450 c 2
 878 450 l 2
 847 450 846 449 839 425 c 2
 696 -87 l 2
 692 -102 685 -110 664 -110 c 2
 620 -110 l 2
 576 -110 578 -100 587 -69 c 2
 720 407 l 2
 731 447 727 450 674 450 c 2
 444 450 l 2
 394 450 390 450 379 411 c 2
 244 -73 l 2
 235 -104 228 -110 188 -110 c 2
 157 -110 l 2
 122 -110 122 -104 129 -79 c 2
 264 405 l 2
 274 441 278 450 220 450 c 2
 -26 450 l 2
 -54 450 -60 455 -60 485 c 2
 -60 527 l 2
 -60 553 -57 560 -32 560 c 2
 250 560 l 2
 293 560 307 563 318 601 c 2
 413 939 l 2
 421 968 420 970 381 970 c 2
 112 970 l 2
 85 970 80 976 80 1005 c 2
 80 1047 l 2
 80 1072 82 1080 106 1080 c 2
 414 1080 l 2
 454 1080 458 1102 466 1131 c 2
 593 1585 l 2
 597 1601 604 1610 625 1610 c 2
818 970 m 2
 568 970 l 2
 530 970 533 962 525 933 c 2
 434 607 l 2
 424 572 420 560 470 560 c 2
 700 560 l 2
 751 560 763 561 774 601 c 2
 870 945 l 2
 879 978 855 970 818 970 c 2
EndSplineSet
EndChar

StartChar: slash
Encoding: 47 47 82
Width: 1040
Flags: MW
LayerCount: 2
Fore
SplineSet
1034 1560 m 2
 1079 1560 l 2
 1117 1560 1122 1553 1108 1530 c 2
 21 -268 l 2
 5 -294 0 -300 -41 -300 c 2
 -73 -300 l 2
 -122 -300 -130 -286 -113 -258 c 2
 978 1526 l 2
 993 1551 994 1560 1034 1560 c 2
EndSplineSet
EndChar

StartChar: percent
Encoding: 37 37 83
Width: 1495
Flags: MW
LayerCount: 2
Fore
SplineSet
179 1080 m 0
 242 1366 381 1520 577 1520 c 0
 773 1520 842 1366 779 1080 c 0
 716 794 538 640 382 640 c 0
 186 640 116 794 179 1080 c 0
379 1080 m 0
 323 826 336 740 404 740 c 0
 472 740 523 826 579 1080 c 0
 635 1334 623 1420 555 1420 c 0
 487 1420 435 1334 379 1080 c 0
1308 1500 m 2
 1355 1500 l 2
 1390 1500 1385 1490 1366 1468 c 2
 316 28 l 2
 298 7 287 0 252 0 c 2
 209 0 l 2
 170 0 184 23 199 41 c 2
 1261 1478 l 2
 1272 1492 1285 1500 1308 1500 c 2
788 420 m 0
 851 706 990 860 1186 860 c 0
 1382 860 1451 706 1388 420 c 0
 1325 134 1147 -20 991 -20 c 0
 795 -20 725 134 788 420 c 0
988 420 m 0
 932 166 945 80 1013 80 c 0
 1081 80 1132 166 1188 420 c 0
 1244 674 1231 760 1163 760 c 0
 1095 760 1044 674 988 420 c 0
EndSplineSet
EndChar

StartChar: hyphen
Encoding: 45 45 84
Width: 640
Flags: MW
LayerCount: 2
Fore
SplineSet
48 710 m 2
 474 710 l 2
 497 710 500 706 500 682 c 2
 500 603 l 2
 500 579 498 570 472 570 c 2
 46 570 l 2
 21 570 20 574 20 600 c 2
 20 682 l 2
 20 705 27 710 48 710 c 2
EndSplineSet
Substitution2: "Single Substitution lookup 10 subtable" hyphen.sc
EndChar

StartChar: plus
Encoding: 43 43 86
Width: 1060
Flags: MW
LayerCount: 2
Fore
SplineSet
645 836 m 2
 913 836 l 2
 936 836 947 832 947 808 c 2
 947 751 l 2
 947 734 946 726 929 726 c 2
 626 726 l 2
 594 726 582 722 576 692 c 2
 512 389 l 2
 508 373 505 370 487 370 c 2
 419 370 l 2
 399 370 390 371 394 390 c 2
 458 685 l 2
 465 718 457 726 422 726 c 2
 156 726 l 2
 131 726 127 731 127 755 c 2
 127 809 l 2
 127 831 136 836 157 836 c 2
 451 836 l 2
 478 836 491 842 497 870 c 2
 558 1160 l 2
 563 1182 571 1190 596 1190 c 2
 654 1190 l 2
 674 1190 681 1183 676 1161 c 2
 615 874 l 2
 608 843 614 836 645 836 c 2
EndSplineSet
EndChar

StartChar: equal
Encoding: 61 61 87
Width: 1120
Flags: MW
LayerCount: 2
Fore
SplineSet
192 980 m 2
 1002 980 l 2
 1032 980 1035 976 1035 952 c 2
 1035 903 l 2
 1035 879 1033 870 999 870 c 2
 189 870 l 2
 157 870 155 874 155 900 c 2
 155 952 l 2
 155 975 165 980 192 980 c 2
129 680 m 2
 939 680 l 2
 969 680 972 676 972 652 c 2
 972 603 l 2
 972 579 970 570 936 570 c 2
 126 570 l 2
 94 570 92 574 92 600 c 2
 92 652 l 2
 92 675 102 680 129 680 c 2
EndSplineSet
EndChar

StartChar: less
Encoding: 60 60 88
Width: 1120
Flags: MW
LayerCount: 2
Fore
SplineSet
296 752 m 2
 892 505 l 2
 919 494 930 487 930 447 c 2
 930 405 l 2
 930 360 912 366 886 377 c 2
 152 678 l 2
 123 690 120 699 120 740 c 2
 120 820 l 2
 120 862 125 863 154 873 c 2
 1046 1187 l 2
 1072 1196 1080 1193 1080 1159 c 2
 1080 1113 l 2
 1080 1076 1070 1065 1044 1056 c 2
 298 799 l 2
 267 788 250 787 250 776 c 0
 250 765 263 766 296 752 c 2
EndSplineSet
EndChar

StartChar: greater
Encoding: 62 62 89
Width: 1120
Flags: MW
LayerCount: 2
Fore
SplineSet
824 798 m 2
 228 1045 l 2
 201 1056 190 1063 190 1103 c 2
 190 1145 l 2
 190 1190 208 1184 234 1173 c 2
 968 872 l 2
 997 860 1000 851 1000 810 c 2
 1000 730 l 2
 1000 688 995 687 966 677 c 2
 74 363 l 2
 48 354 40 357 40 391 c 2
 40 437 l 2
 40 474 50 485 76 494 c 2
 822 751 l 2
 853 762 870 763 870 774 c 0
 870 785 857 784 824 798 c 2
EndSplineSet
EndChar

StartChar: backslash
Encoding: 92 92 90
Width: 1040
Flags: MW
LayerCount: 2
Fore
SplineSet
379 1522 m 2
 829 -258 l 2
 837 -290 839 -300 795 -300 c 2
 729 -300 l 2
 697 -300 700 -293 694 -268 c 2
 251 1524 l 2
 244 1553 253 1560 287 1560 c 2
 337 1560 l 2
 369 1560 373 1547 379 1522 c 2
EndSplineSet
EndChar

StartChar: bracketleft
Encoding: 91 91 91
Width: 650
Flags: MW
LayerCount: 2
Fore
SplineSet
365 1560 m 2
 731 1560 l 2
 769 1560 770 1551 770 1512 c 2
 770 1484 l 2
 770 1453 758 1450 729 1450 c 2
 497 1450 l 2
 448 1450 444 1438 436 1400 c 2
 108 -122 l 2
 96 -177 90 -190 163 -190 c 2
 355 -190 l 2
 388 -190 390 -198 390 -232 c 2
 390 -262 l 2
 390 -300 372 -300 337 -300 c 2
 -49 -300 l 2
 -105 -300 -110 -297 -100 -252 c 2
 278 1506 l 2
 289 1558 301 1560 365 1560 c 2
EndSplineSet
EndChar

StartChar: braceleft
Encoding: 123 123 92
Width: 544
Flags: MW
LayerCount: 2
Fore
SplineSet
272 -300 m 0
 8 -294 -70 -211 -70 -20 c 0
 -70 214 170 344 170 470 c 0
 170 543 154 558 108 574 c 0
 90 580 90 593 90 617 c 2
 90 661 l 2
 90 686 98 683 116 689 c 0
 178 709 262 741 262 812 c 0
 262 938 210 988 210 1202 c 0
 210 1375 309 1551 618 1560 c 0
 637 1561 644 1554 644 1533 c 2
 644 1496 l 2
 644 1470 647 1467 622 1465 c 0
 506 1458 396 1394 396 1294 c 0
 396 1162 444 1142 444 942 c 0
 444 793 389 700 286 643 c 0
 236 615 256 609 271 585 c 0
 292 551 304 507 304 440 c 0
 304 240 116 100 116 -32 c 0
 116 -150 172 -199 280 -205 c 0
 302 -206 304 -207 304 -231 c 2
 304 -272 l 2
 304 -299 297 -301 272 -300 c 0
EndSplineSet
EndChar

StartChar: bracketright
Encoding: 93 93 93
Width: 650
Flags: MW
LayerCount: 2
Fore
SplineSet
285 -300 m 2
 -81 -300 l 2
 -119 -300 -120 -291 -120 -252 c 2
 -120 -224 l 2
 -120 -193 -108 -190 -79 -190 c 2
 153 -190 l 2
 202 -190 206 -178 214 -140 c 2
 542 1382 l 2
 554 1437 560 1450 487 1450 c 2
 295 1450 l 2
 262 1450 260 1458 260 1492 c 2
 260 1522 l 2
 260 1560 278 1560 313 1560 c 2
 699 1560 l 2
 755 1560 760 1557 750 1512 c 2
 372 -246 l 2
 361 -298 349 -300 285 -300 c 2
EndSplineSet
EndChar

StartChar: braceright
Encoding: 125 125 94
Width: 544
Flags: MW
LayerCount: 2
Fore
SplineSet
252 1560 m 0
 516 1554 594 1471 594 1280 c 0
 594 1046 354 916 354 790 c 0
 354 717 370 702 416 686 c 0
 434 680 434 667 434 643 c 2
 434 599 l 2
 434 574 426 577 408 571 c 0
 346 551 262 519 262 448 c 0
 262 322 314 272 314 58 c 0
 314 -115 215 -291 -94 -300 c 0
 -113 -301 -120 -294 -120 -273 c 2
 -120 -236 l 2
 -120 -210 -123 -207 -98 -205 c 0
 18 -198 128 -134 128 -34 c 0
 128 98 80 118 80 318 c 0
 80 467 135 560 238 617 c 0
 288 645 268 651 253 675 c 0
 232 709 220 753 220 820 c 0
 220 1020 408 1160 408 1292 c 0
 408 1410 352 1459 244 1465 c 0
 222 1466 220 1467 220 1491 c 2
 220 1532 l 2
 220 1559 227 1561 252 1560 c 0
EndSplineSet
EndChar

StartChar: bar
Encoding: 124 124 95
Width: 600
Flags: MW
LayerCount: 2
Fore
SplineSet
429 1560 m 2
 511 1560 l 2
 556 1560 560 1555 551 1512 c 2
 133 -454 l 2
 126 -486 122 -500 87 -500 c 2
 -9 -500 l 2
 -50 -500 -55 -495 -47 -456 c 2
 370 1506 l 2
 380 1551 384 1560 429 1560 c 2
EndSplineSet
EndChar

StartChar: asciitilde
Encoding: 126 126 96
Width: 1376
Flags: MW
LayerCount: 2
Fore
SplineSet
482 874 m 0
 394 874 335 818 306 709 c 0
 300 687 293 686 270 686 c 2
 220 686 l 2
 194 686 187 689 193 714 c 0
 249 924 404 1020 555 1020 c 0
 795 1020 755 832 937 832 c 0
 1022 832 1081 885 1111 989 c 0
 1118 1014 1125 1020 1153 1020 c 2
 1199 1020 l 2
 1224 1020 1234 1019 1227 992 c 0
 1173 777 1017 686 864 686 c 0
 590 686 638 874 482 874 c 0
EndSplineSet
EndChar

StartChar: asciicircum
Encoding: 94 94 97
Width: 1090
Flags: MW
LayerCount: 2
Fore
SplineSet
645 1399 m 2
 274 1138 l 2
 251 1122 247 1121 226 1134 c 2
 204 1147 l 2
 186 1159 193 1165 211 1180 c 2
 623 1520 l 2
 638 1532 646 1540 671 1540 c 2
 747 1540 l 2
 776 1540 784 1532 795 1518 c 2
 1061 1180 l 2
 1073 1165 1076 1159 1051 1147 c 2
 1028 1136 l 2
 1001 1122 996 1121 980 1138 c 2
 722 1397 l 2
 691 1428 690 1430 645 1399 c 2
EndSplineSet
EndChar

StartChar: grave
Encoding: 96 96 98
Width: 790
Flags: MW
LayerCount: 2
Fore
SplineSet
340 1440 m 2
 302 1441 270 1472 270 1510 c 0
 270 1548 304 1589 360 1576 c 2
 797 1470 l 2
 822 1464 838 1460 835 1440 c 0
 833 1421 826 1420 801 1421 c 2
 340 1440 l 2
EndSplineSet
EndChar

StartChar: uni203E
Encoding: 8254 8254 99
Width: 719
Flags: MW
LayerCount: 2
Fore
SplineSet
253 1859 m 2
 1218 1859 l 2
 1253 1859 1258 1855 1258 1831 c 2
 1258 1782 l 2
 1258 1758 1255 1749 1215 1749 c 2
 250 1749 l 2
 211 1749 210 1753 210 1779 c 2
 210 1831 l 2
 210 1854 221 1859 253 1859 c 2
EndSplineSet
EndChar

StartChar: uni2010
Encoding: 8208 8208 100
Width: 920
Flags: MW
LayerCount: 2
Fore
SplineSet
148 830 m 2
 774 830 l 2
 797 830 800 826 800 802 c 2
 800 753 l 2
 800 729 798 720 772 720 c 2
 146 720 l 2
 121 720 120 724 120 750 c 2
 120 802 l 2
 120 825 127 830 148 830 c 2
EndSplineSet
EndChar

StartChar: uni2011
Encoding: 8209 8209 101
Width: 920
Flags: MW
LayerCount: 2
Fore
SplineSet
148 830 m 2
 774 830 l 2
 797 830 800 826 800 802 c 2
 800 753 l 2
 800 729 798 720 772 720 c 2
 146 720 l 2
 121 720 120 724 120 750 c 2
 120 802 l 2
 120 825 127 830 148 830 c 2
EndSplineSet
EndChar

StartChar: endash
Encoding: 8211 8211 102
Width: 1432
Flags: MW
LayerCount: 2
Fore
SplineSet
169 830 m 2
 1267 830 l 2
 1307 830 1312 826 1312 802 c 2
 1312 753 l 2
 1312 729 1309 720 1263 720 c 2
 166 720 l 2
 122 720 120 724 120 750 c 2
 120 802 l 2
 120 825 132 830 169 830 c 2
EndSplineSet
EndChar

StartChar: figuredash
Encoding: 8210 8210 103
Width: 1224
Flags: MW
LayerCount: 2
Fore
SplineSet
160 830 m 2
 1066 830 l 2
 1099 830 1104 826 1104 802 c 2
 1104 753 l 2
 1104 729 1102 720 1064 720 c 2
 157 720 l 2
 121 720 120 724 120 750 c 2
 120 802 l 2
 120 825 130 830 160 830 c 2
EndSplineSet
EndChar

StartChar: emdash
Encoding: 8212 8212 104
Width: 2124
Flags: MW
LayerCount: 2
Fore
SplineSet
198 830 m 2
 1932 830 l 2
 1996 830 2004 826 2004 802 c 2
 2004 753 l 2
 2004 729 1999 720 1927 720 c 2
 192 720 l 2
 123 720 120 724 120 750 c 2
 120 802 l 2
 120 825 140 830 198 830 c 2
EndSplineSet
EndChar

StartChar: uni2015
Encoding: 8213 8213 105
Width: 2331
Flags: MW
LayerCount: 2
Fore
SplineSet
206 830 m 2
 2131 830 l 2
 2202 830 2211 826 2211 802 c 2
 2211 753 l 2
 2211 729 2205 720 2125 720 c 2
 200 720 l 2
 123 720 120 724 120 750 c 2
 120 802 l 2
 120 825 141 830 206 830 c 2
EndSplineSet
EndChar

StartChar: perthousand
Encoding: 8240 8240 106
Width: 2185
Flags: MW
LayerCount: 2
Fore
SplineSet
1478 420 m 0
 1541 706 1680 860 1876 860 c 0
 2072 860 2141 706 2078 420 c 0
 2015 134 1837 -20 1681 -20 c 0
 1485 -20 1415 134 1478 420 c 0
1678 420 m 0
 1622 166 1635 80 1703 80 c 0
 1771 80 1822 166 1878 420 c 0
 1934 674 1921 760 1853 760 c 0
 1785 760 1734 674 1678 420 c 0
179 1080 m 0
 242 1366 381 1520 577 1520 c 0
 773 1520 842 1366 779 1080 c 0
 716 794 538 640 382 640 c 0
 186 640 116 794 179 1080 c 0
379 1080 m 0
 323 826 336 740 404 740 c 0
 472 740 523 826 579 1080 c 0
 635 1334 623 1420 555 1420 c 0
 487 1420 435 1334 379 1080 c 0
1308 1500 m 2
 1355 1500 l 2
 1390 1500 1385 1490 1366 1468 c 2
 316 28 l 2
 298 7 287 0 252 0 c 2
 209 0 l 2
 170 0 184 23 199 41 c 2
 1261 1478 l 2
 1272 1492 1285 1500 1308 1500 c 2
788 420 m 0
 851 706 990 860 1186 860 c 0
 1382 860 1451 706 1388 420 c 0
 1325 134 1147 -20 991 -20 c 0
 795 -20 725 134 788 420 c 0
988 420 m 0
 932 166 945 80 1013 80 c 0
 1081 80 1132 166 1188 420 c 0
 1244 674 1231 760 1163 760 c 0
 1095 760 1044 674 988 420 c 0
EndSplineSet
EndChar

StartChar: uni2031
Encoding: 8241 8241 107
Width: 2875
Flags: MW
LayerCount: 2
Fore
SplineSet
2168 420 m 0
 2231 706 2370 860 2566 860 c 0
 2762 860 2831 706 2768 420 c 0
 2705 134 2527 -20 2371 -20 c 0
 2175 -20 2105 134 2168 420 c 0
2368 420 m 0
 2312 166 2325 80 2393 80 c 0
 2461 80 2512 166 2568 420 c 0
 2624 674 2611 760 2543 760 c 0
 2475 760 2424 674 2368 420 c 0
1478 420 m 0
 1541 706 1680 860 1876 860 c 0
 2072 860 2141 706 2078 420 c 0
 2015 134 1837 -20 1681 -20 c 0
 1485 -20 1415 134 1478 420 c 0
1678 420 m 0
 1622 166 1635 80 1703 80 c 0
 1771 80 1822 166 1878 420 c 0
 1934 674 1921 760 1853 760 c 0
 1785 760 1734 674 1678 420 c 0
179 1080 m 0
 242 1366 381 1520 577 1520 c 0
 773 1520 842 1366 779 1080 c 0
 716 794 538 640 382 640 c 0
 186 640 116 794 179 1080 c 0
379 1080 m 0
 323 826 336 740 404 740 c 0
 472 740 523 826 579 1080 c 0
 635 1334 623 1420 555 1420 c 0
 487 1420 435 1334 379 1080 c 0
1308 1500 m 2
 1355 1500 l 2
 1390 1500 1385 1490 1366 1468 c 2
 316 28 l 2
 298 7 287 0 252 0 c 2
 209 0 l 2
 170 0 184 23 199 41 c 2
 1261 1478 l 2
 1272 1492 1285 1500 1308 1500 c 2
788 420 m 0
 851 706 990 860 1186 860 c 0
 1382 860 1451 706 1388 420 c 0
 1325 134 1147 -20 991 -20 c 0
 795 -20 725 134 788 420 c 0
988 420 m 0
 932 166 945 80 1013 80 c 0
 1081 80 1132 166 1188 420 c 0
 1244 674 1231 760 1163 760 c 0
 1095 760 1044 674 988 420 c 0
EndSplineSet
EndChar

StartChar: uniFB00
Encoding: 64256 64256 108
Width: 934
Flags: MW
LayerCount: 2
Fore
SplineSet
668 1092 m 0
 673 1118 684 1148 684 1174 c 0
 684 1194 667 1188 645 1196 c 0
 607 1212 585 1242 585 1282 c 0
 585 1342 627 1356 627 1396 c 0
 627 1420 600 1450 546 1450 c 0
 438 1450 422 1310 382 1054 c 0
 377.986201113 1028.31168712 437 1040 460 1040 c 2
 602 1040 l 2
 648 1040 658 1044 668 1092 c 0
568 930 m 2
 432 930 l 2
 356 930 356 928 342 864 c 2
 114 -228 l 2
 102 -284 112 -300 40 -300 c 2
 -40 -300 l 2
 -107 -300 -67 -230 -58 -192 c 2
 152 852 l 1
 160 899 177 930 149 930 c 2
 146 930 l 2
 119 930 112 930 112 959 c 2
 112 988 l 2
 112 1020 112 1040 146 1040 c 2
 158 1040 l 2
 204 1040 190 1046 202 1104 c 0
 262 1366 334 1540 554 1540 c 0
 638 1540 678 1516 723 1476 c 0
 759.501185596 1443.55450169 774.433416293 1441.95629317 794 1478 c 0
 832 1548 922 1600 1030 1600 c 0
 1202 1600 1296 1492 1296 1378 c 0
 1296 1292 1248 1246 1178 1246 c 0
 1108 1246 1062 1286 1062 1342 c 0
 1062 1402 1104 1416 1104 1456 c 0
 1104 1480 1078 1510 1034 1510 c 0
 904 1510 902 1364 862 1120 c 1
 849 1059 836 1040 912 1040 c 2
 932 1040 l 2
 962 1040 976 1040 976 1012 c 2
 976 980 l 2
 976 913 945 930 894 930 c 2
 880 930 l 2
 816 930 818 922 808 872 c 2
 600 -100 l 2
 586 -168 598 -200 508 -200 c 2
 444 -200 l 2
 374 -200 407 -155 416 -112 c 2
 620 868 l 2
 631 918 637 930 568 930 c 2
EndSplineSet
LCarets2: 1 0
Ligature2: "'liga' Standard Ligatures lookup 0 subtable" f f
EndChar

StartChar: uniFB01
Encoding: 64257 64257 109
Width: 874
Flags: MW
LayerCount: 2
Fore
SplineSet
-61 -208 m 2
 157 880 l 2
 165 920 170 930 149 930 c 2
 146 930 l 2
 114 930 112 942 112 968 c 2
 112 1002 l 2
 112 1031 120 1040 150 1040 c 2
 163 1040 l 2
 192 1040 191 1042 199 1082 c 0
 256 1368 347 1580 575 1580 c 0
 757 1580 851 1472 851 1358 c 0
 851 1272 803 1226 733 1226 c 0
 663 1226 617 1266 617 1322 c 0
 617 1382 659 1396 659 1436 c 0
 659 1460 643 1490 579 1490 c 0
 459 1490 441 1344 391 1100 c 0
 382.614174396 1059.07717105 362 1040 423 1040 c 2
 789 1040 l 2
 826 1040 840.559570312 1035.10058594 833 1002 c 2
 648 192 l 2
 644 173 629 107 629 97 c 0
 629 80 632 74 640 74 c 0
 672 74 709 149 755 254 c 0
 763 270 768 276 787 268 c 2
 813 257 l 2
 830 250 833 246 826 229 c 0
 758 79 708 -20 583 -20 c 0
 519 -20 449 7 449 99 c 0
 449 119 456 157 462 184 c 2
 617 862 l 2
 630.73046875 922.061523438 638 930 553 930 c 2
 391 930 l 2
 347 930 355 918 347 884 c 2
 107 -268 l 2
 101 -298 99 -300 69 -300 c 2
 -37 -300 l 2
 -89 -300 -68 -244 -61 -208 c 2
EndSplineSet
LCarets2: 1 0
Ligature2: "'liga' Standard Ligatures lookup 0 subtable" f i
EndChar

StartChar: uniFB02
Encoding: 64258 64258 110
Width: 841
Flags: MW
LayerCount: 2
Fore
SplineSet
924 1510 m 2
 647 192 l 2
 643 173 628 107 628 97 c 0
 628 80 631 74 639 74 c 0
 671 74 708 149 754 254 c 0
 762 270 767 276 786 268 c 2
 812 257 l 2
 829 250 832 246 825 229 c 0
 757 79 707 -20 582 -20 c 0
 518 -20 448 7 448 99 c 0
 448 119 455 157 461 184 c 2
 668 1154 l 2
 678.028320312 1200.99414062 687.112259831 1232.05173302 662 1244 c 0
 637.602326083 1255.60827117 616 1290 616 1322 c 0
 616 1382 658 1396 658 1436 c 0
 658 1460 642 1490 578 1490 c 0
 458 1490 450 1354 390 1100 c 0
 382 1063 362 1040 420 1040 c 2
 444 1040 l 2
 476 1040 480 1044 480 1010 c 2
 480 964 l 2
 480 932 478 930 440 930 c 2
 398 930 l 2
 348 930 352 920 344 880 c 2
 112 -240 l 2
 102 -286 110 -300 52 -300 c 2
 -38 -300 l 2
 -77 -300 -66 -249 -60 -218 c 2
 158 882 l 2
 165 917 169 930 148 930 c 2
 146 930 l 2
 120 930 112 936 112 958 c 2
 112 1005 l 2
 112 1038 119 1040 144 1040 c 2
 165 1040 l 2
 189 1040 190 1044 198 1088 c 2
 210 1144 l 2
 266 1407 374 1580 574 1580 c 0
 654 1580 705.622520755 1567.28310943 766 1522 c 0
 790 1504 801.995166747 1506.20734654 826 1522 c 2
 902 1572 l 2
 951 1605 933.237304688 1553.95019531 924 1510 c 2
EndSplineSet
LCarets2: 1 0
Ligature2: "'liga' Standard Ligatures lookup 0 subtable" f l
EndChar

StartChar: uniFB03
Encoding: 64259 64259 111
Width: 1342
Flags: MW
LayerCount: 2
Fore
SplineSet
392 1098 m 0
 386.689810436 1056.277082 366 1040 426 1040 c 2
 598 1040 l 2
 652 1040 656 1040 666 1084 c 2
 682 1164 l 2
 690 1196 672 1186 646 1194 c 0
 604 1208 584 1240 584 1282 c 0
 584 1342 626 1356 626 1396 c 0
 626 1420 600 1450 546 1450 c 0
 444 1450 420 1318 392 1098 c 0
1317 1378 m 0
 1317 1292 1269 1246 1199 1246 c 0
 1129 1246 1083 1286 1083 1342 c 0
 1083 1402 1125 1416 1125 1456 c 0
 1125 1480 1109 1510 1045 1510 c 0
 935 1510 912 1374 862 1120 c 0
 851.272257579 1065.5030685 827 1040 908 1040 c 2
 1259 1040 l 2
 1309 1040 1302 1023 1293 984 c 2
 1115 192 l 2
 1111 173 1096 107 1096 97 c 0
 1096 80 1099 74 1107 74 c 0
 1139 74 1176 149 1222 254 c 0
 1230 270 1235 276 1254 268 c 2
 1280 257 l 2
 1297 250 1300 246 1293 229 c 0
 1225 79 1175 -20 1050 -20 c 0
 986 -20 916 7 916 99 c 0
 916 119 923 157 929 184 c 2
 1081 864 l 2
 1092 914 1112 930 1035 930 c 2
 872 930 l 2
 824 930 820 930 812 890 c 2
 592 -134 l 2
 582 -184 590 -200 526 -200 c 2
 448 -200 l 2
 386 -200 401 -187 410 -144 c 2
 626 898 l 2
 630 919 637 930 608 930 c 2
 384 930 l 2
 362 930 354 926 348 898 c 2
 110 -252 l 2
 100 -296 102 -300 48 -300 c 2
 -18 -300 l 2
 -97 -300 -75 -281 -66 -230 c 2
 160 894 l 2
 166 922 172 930 142 930 c 2
 139 930 l 2
 118 930 112 932 112 962 c 2
 112 1006 l 2
 112 1036 122 1040 140 1040 c 2
 166 1040 l 2
 192 1040 190 1044 198 1082 c 0
 252 1354 328 1540 556 1540 c 0
 656 1540 702.635742188 1506.2734375 729 1484 c 0
 767.194335938 1451.73242188 774.034802363 1461.90452891 834 1518 c 0
 897.457641905 1577.36253789 955 1600 1041 1600 c 0
 1243 1600 1317 1492 1317 1378 c 0
EndSplineSet
LCarets2: 2 0 0
Ligature2: "'liga' Standard Ligatures lookup 0 subtable" f f i
EndChar

StartChar: uniFB04
Encoding: 64260 64260 112
Width: 1342
Flags: MW
LayerCount: 2
Fore
SplineSet
659 1189 m 0
 609 1199 583 1236 583 1282 c 0
 583 1342 625 1356 625 1396 c 0
 625 1420 599 1450 545 1450 c 0
 451 1450 412 1312 382 1052 c 0
 379.592893732 1031.13841235 409 1040 428 1040 c 2
 594 1040 l 2
 670 1040 661 1065 674 1127 c 0
 682 1164 700 1180 659 1189 c 0
434 930 m 2
 356 930 356 928 342 864 c 2
 118 -212 l 2
 108 -260 104 -300 56 -300 c 2
 -10 -300 l 2
 -103 -300 -70 -245 -56 -176 c 2
 146 828 l 2
 158 891 173 930 148 930 c 2
 141 930 l 2
 115 930 111 936 111 980 c 2
 111 994 l 2
 111 1034 113 1040 143 1040 c 2
 164 1040 l 2
 200 1040 194 1062 202 1104 c 0
 250 1350 326 1540 556 1540 c 0
 626 1540 671.029296875 1528.36621094 711 1496 c 0
 757.868583053 1458.04824217 774.250075824 1454.76518954 824 1508 c 0
 883.724609375 1571.90820312 959 1600 1053 1600 c 0
 1115 1600 1166 1576 1200 1552 c 0
 1245.55282698 1519.84506331 1254 1499 1292 1526 c 2
 1367 1574 l 2
 1412 1604 1404.45699362 1556.90371071 1395 1512 c 2
 1117 192 l 2
 1113 173 1098 107 1098 97 c 0
 1098 80 1101 74 1109 74 c 0
 1141 74 1178 149 1224 254 c 0
 1232 270 1237 276 1256 268 c 2
 1282 257 l 2
 1299 250 1302 246 1295 229 c 0
 1227 79 1177 -20 1052 -20 c 0
 988 -20 918 7 918 99 c 0
 918 119 925 157 931 184 c 2
 1143 1184 l 2
 1153.37131176 1232.92128191 1144.82324219 1242.93066406 1116 1264 c 0
 1094.94824219 1279.38867188 1085 1300 1085 1342 c 0
 1085 1402 1127 1416 1127 1456 c 0
 1127 1480 1101 1510 1057 1510 c 0
 927 1510 916 1376 862 1120 c 0
 848 1059 838 1040 878 1040 c 2
 890 1040 l 2
 944 1040 949 1040 950 1009 c 2
 950 968 l 2
 950 932 946 930 922 930 c 2
 886 930 l 2
 828 930 820 924 804 852 c 2
 600 -94 l 2
 586 -160 600 -200 514 -200 c 2
 460 -200 l 2
 369 -200 406 -155 420 -90 c 2
 614 840 l 2
 626 900 657 930 566 930 c 2
 434 930 l 2
EndSplineSet
LCarets2: 2 0 0
Ligature2: "'liga' Standard Ligatures lookup 0 subtable" f f l
EndChar

StartChar: t.alt
Encoding: 65536 -1 113
Width: 730
Flags: MW
LayerCount: 2
Fore
SplineSet
93 1040 m 2
 253 1040 l 2
 276 1040 273 1045 277 1063 c 2
 294 1136 l 2
 300 1163 302 1159 330 1165 c 0
 370 1172 410 1190 434 1203 c 0
 453 1213 457 1216 474 1216 c 0
 491 1216 492 1213 488 1197 c 2
 457 1060 l 2
 453 1042 450 1040 473 1040 c 2
 650 1040 l 2
 679 1040 680 1037 680 1007 c 2
 680 958 l 2
 680 930 680 930 652 930 c 2
 446 930 l 2
 426 930 428 927 424 911 c 2
 266 214 l 2
 254 164 230 100 294 100 c 0
 347 100 408 141 460 208 c 0
 473 225 482 243 500 236 c 2
 535 223 l 2
 554 216 559 210 546 185 c 0
 485 70 378 -24 228 -24 c 0
 88 -24 42 62 66 172 c 2
 242 907 l 2
 247 927 244 930 220 930 c 2
 89 930 l 2
 71 930 70 939 70 958 c 2
 70 1010 l 2
 70 1032 72 1040 93 1040 c 2
EndSplineSet
EndChar

StartChar: R.alt
Encoding: 65537 -1 114
Width: 1073
Flags: MW
LayerCount: 2
Fore
SplineSet
906 0 m 2
 734 0 l 2
 606 0 558 76 558 176 c 0
 558 278 638 406 638 510 c 0
 638 612 624 690 504 690 c 2
 380 690 l 2
 335 690 340 681 332 646 c 2
 228 160 l 2
 219 116 220 110 276 110 c 2
 296 110 l 2
 322 110 330 106 330 78 c 2
 330 42 l 2
 330 7 325 0 288 0 c 2
 -74 0 l 2
 -106 0 -110 10 -110 40 c 2
 -110 70 l 2
 -110 105 -104 110 -70 110 c 2
 -26 110 l 2
 19 110 18 114 26 150 c 2
 282 1352 l 2
 289 1386 285 1390 242 1390 c 2
 230 1390 l 2
 198 1390 190 1393 190 1424 c 2
 190 1466 l 2
 190 1491 191 1500 216 1500 c 2
 721 1500 l 2
 913 1500 1034 1370 1034 1200 c 0
 1034 986 929 823 765 755 c 0
 682.3315318 720.722830259 709.936523438 715.610351562 772 680 c 0
 833 645 840 599 840 514 c 0
 840 394 776 258 776 178 c 0
 776 136 790 110 836 110 c 2
 910 110 l 2
 939 110 944 103 944 73 c 2
 944 41 l 2
 944 4 943 0 906 0 c 2
422 810 m 2
 534 810 l 2
 686 810 828 998 828 1216 c 0
 828 1354 776 1390 664 1390 c 2
 528 1390 l 2
 482 1390 488 1376 480 1340 c 2
 374 846 l 2
 365 804 374 810 422 810 c 2
EndSplineSet
EndChar

StartChar: breve
Encoding: 728 728 115
Width: 1000
Flags: MW
AnchorPoint: "Anchor-0" 658 1500 mark 0
LayerCount: 2
Fore
SplineSet
716 1680 m 256
 524 1680 491 1775 519 1919 c 0
 523 1936 529 1938 546 1938 c 2
 560 1938 l 2
 574 1938 577 1935 575 1922 c 0
 563 1832 617 1790 714 1790 c 256
 806 1790 880 1828 909 1909 c 0
 916 1928 911 1938 935 1938 c 2
 962 1938 l 2
 983 1938 982 1934 977 1914 c 0
 942 1774 865 1680 716 1680 c 256
EndSplineSet
EndChar

StartChar: dotaccent
Encoding: 729 729 116
Width: 1000
Flags: MW
AnchorPoint: "Anchor-0" 558 1040 mark 0
LayerCount: 2
Fore
SplineSet
631 1269 m 0
 566 1269 511 1325 511 1390 c 0
 511 1456 566 1510 631 1510 c 0
 697 1510 751 1456 751 1390 c 0
 751 1325 697 1269 631 1269 c 0
EndSplineSet
EndChar

StartChar: ring
Encoding: 730 730 117
Width: 1000
Flags: MW
AnchorPoint: "Anchor-0" 659 1500 mark 0
LayerCount: 2
Fore
SplineSet
713 1754 m 256
 773 1754 823 1795 837 1859 c 256
 850 1922 818 1967 758 1967 c 256
 698 1967 647 1922 634 1859 c 256
 620 1795 653 1754 713 1754 c 256
697 1680 m 0
 596 1680 535 1758 556 1859 c 0
 577 1960 673 2040 774 2040 c 0
 876 2040 937 1961 915 1859 c 0
 894 1758 798 1680 697 1680 c 0
EndSplineSet
EndChar

StartChar: ogonek
Encoding: 731 731 118
Width: 1000
Flags: MW
AnchorPoint: "Anchor-2" 361 47 mark 0
AnchorPoint: "Anchor-3" 361 47 mark 0
LayerCount: 2
Fore
SplineSet
255 -372 m 0
 142 -372 47 -335 71 -220 c 0
 95 -108 266 -2 388 70 c 0
 413 85 432 90 438 80 c 0
 445 69 431 54 411 36 c 0
 354 -16 285 -89 268 -170 c 0
 257 -221 271 -275 341 -275 c 0
 390 -275 431 -246 460 -214 c 0
 473 -199 482 -199 490 -207 c 2
 502 -217 l 2
 513 -226 511 -230 500 -245 c 0
 444 -318 372 -372 255 -372 c 0
EndSplineSet
EndChar

StartChar: tilde
Encoding: 732 732 119
Width: 1000
Flags: MW
AnchorPoint: "Anchor-0" 655 1500 mark 0
LayerCount: 2
Fore
SplineSet
863 1680 m 0
 759 1680 715 1717 682 1759 c 0
 656 1792 628 1838 558 1838 c 0
 503 1838 460 1794 440 1714 c 0
 436 1702 430 1700 417 1700 c 2
 375 1700 l 2
 352 1700 355 1710 361 1730 c 0
 400 1857 465 1954 609 1954 c 0
 713 1954 758 1918 788 1875 c 0
 810 1843 832 1796 895 1796 c 0
 948 1796 989 1837 1010 1912 c 0
 1014 1928 1018 1934 1037 1934 c 2
 1080 1934 l 2
 1098 1934 1098 1928 1094 1912 c 0
 1058 1764 990 1680 863 1680 c 0
EndSplineSet
EndChar

StartChar: hungarumlaut
Encoding: 733 733 120
Width: 1000
Flags: MW
AnchorPoint: "Anchor-0" 583 1500 mark 0
LayerCount: 2
Fore
SplineSet
807 1680 m 2
 784 1705 l 2
 763 1727 760 1729 782 1750 c 2
 972 1936 l 2
 1016 1979 1076 1962 1105 1924 c 256
 1133 1887 1120 1832 1077 1807 c 2
 844 1671 l 2
 825 1660 822 1664 807 1680 c 2
390 1685 m 2
 369 1706 l 2
 348 1729 356 1736 377 1756 c 2
 561 1936 l 2
 605 1979 661 1965 690 1927 c 256
 718 1890 713 1835 666 1807 c 2
 456 1687 l 2
 424 1668 415 1658 390 1685 c 2
EndSplineSet
EndChar

StartChar: gravecomb
Encoding: 768 768 121
Width: 0
Flags: MW
AnchorPoint: "Anchor-0" 730 1500 mark 0
LayerCount: 2
Fore
SplineSet
552 1920 m 256
 579 1966 647 1973 684 1936 c 2
 878 1747 l 2
 891 1734 892 1725 879 1711 c 2
 845 1675 l 2
 834 1663 830 1660 815 1669 c 2
 579 1807 l 2
 545 1827 523 1870 552 1920 c 256
EndSplineSet
EndChar

StartChar: acutecomb
Encoding: 769 769 122
Width: 0
Flags: MW
AnchorPoint: "Anchor-0" 588 1500 mark 0
LayerCount: 2
Fore
SplineSet
878 1920 m 256
 907 1870 885 1827 851 1807 c 2
 623 1674 l 2
 605 1663 599 1661 584 1677 c 2
 550 1713 l 2
 538 1726 538 1734 550 1745 c 2
 746 1936 l 2
 783 1973 851 1966 878 1920 c 256
EndSplineSet
EndChar

StartChar: uni0302
Encoding: 770 770 123
Width: 0
Flags: MW
AnchorPoint: "Anchor-0" 658 1500 mark 0
LayerCount: 2
Fore
SplineSet
439 1690 m 2
 424 1714 l 2
 412 1729 413 1729 431 1744 c 2
 659 1932 l 2
 676 1946 686 1949 715 1949 c 2
 800 1949 l 2
 826 1949 834 1944 843 1932 c 2
 994 1740 l 2
 1002 1730 1003 1730 990 1719 c 2
 961 1695 l 2
 943 1680 943 1682 929 1694 c 2
 775 1830 l 2
 760 1843 746 1844 725 1831 c 2
 474 1684 l 2
 457 1673 449 1677 439 1690 c 2
EndSplineSet
EndChar

StartChar: tildecomb
Encoding: 771 771 124
Width: 0
Flags: MW
AnchorPoint: "Anchor-0" 655 1500 mark 0
LayerCount: 2
Fore
SplineSet
863 1680 m 0
 759 1680 715 1717 682 1759 c 0
 656 1792 628 1838 558 1838 c 0
 503 1838 460 1794 440 1714 c 0
 436 1702 430 1700 417 1700 c 2
 375 1700 l 2
 352 1700 355 1710 361 1730 c 0
 400 1857 465 1954 609 1954 c 0
 713 1954 758 1918 788 1875 c 0
 810 1843 832 1796 895 1796 c 0
 948 1796 989 1837 1010 1912 c 0
 1014 1928 1018 1934 1037 1934 c 2
 1080 1934 l 2
 1098 1934 1098 1928 1094 1912 c 0
 1058 1764 990 1680 863 1680 c 0
EndSplineSet
EndChar

StartChar: uni0304
Encoding: 772 772 125
Width: 0
Flags: MW
AnchorPoint: "Anchor-0" 659 1500 mark 0
LayerCount: 2
Fore
SplineSet
469 1712 m 2
 469 1745 l 2
 469 1764 471 1772 489 1772 c 2
 915 1772 l 2
 940 1772 949 1768 949 1741 c 2
 949 1710 l 2
 949 1689 948 1680 927 1680 c 2
 504 1680 l 2
 478 1680 469 1684 469 1712 c 2
EndSplineSet
EndChar

StartChar: uni0306
Encoding: 774 774 126
Width: 0
Flags: MW
AnchorPoint: "Anchor-0" 658 1500 mark 0
LayerCount: 2
Fore
SplineSet
716 1680 m 256
 524 1680 491 1775 519 1919 c 0
 523 1936 529 1938 546 1938 c 2
 560 1938 l 2
 574 1938 577 1935 575 1922 c 0
 563 1832 617 1790 714 1790 c 256
 806 1790 880 1828 909 1909 c 0
 916 1928 911 1938 935 1938 c 2
 962 1938 l 2
 983 1938 982 1934 977 1914 c 0
 942 1774 865 1680 716 1680 c 256
EndSplineSet
EndChar

StartChar: uni0307
Encoding: 775 775 127
Width: 0
Flags: MW
AnchorPoint: "Anchor-0" 536 920 mark 0
LayerCount: 2
Fore
SplineSet
631 1269 m 0
 566 1269 511 1325 511 1390 c 0
 511 1456 566 1510 631 1510 c 0
 697 1510 751 1456 751 1390 c 0
 751 1325 697 1269 631 1269 c 0
EndSplineSet
EndChar

StartChar: uni0308
Encoding: 776 776 128
Width: 0
Flags: MW
AnchorPoint: "Anchor-0" 660 1500 mark 0
LayerCount: 2
Fore
SplineSet
880 1690 m 256
 827 1690 784 1733 784 1786 c 256
 784 1839 827 1883 880 1883 c 256
 933 1883 976 1839 976 1786 c 256
 976 1733 933 1690 880 1690 c 256
560 1690 m 256
 507 1690 464 1733 464 1786 c 256
 464 1839 507 1883 560 1883 c 256
 613 1883 656 1839 656 1786 c 256
 656 1733 613 1690 560 1690 c 256
EndSplineSet
EndChar

StartChar: uni030A
Encoding: 778 778 129
Width: 0
Flags: MW
AnchorPoint: "Anchor-0" 659 1500 mark 0
LayerCount: 2
Fore
SplineSet
713 1754 m 256
 773 1754 823 1795 837 1859 c 256
 850 1922 818 1967 758 1967 c 256
 698 1967 647 1922 634 1859 c 256
 620 1795 653 1754 713 1754 c 256
697 1680 m 0
 596 1680 535 1758 556 1859 c 0
 577 1960 673 2040 774 2040 c 0
 876 2040 937 1961 915 1859 c 0
 894 1758 798 1680 697 1680 c 0
EndSplineSet
EndChar

StartChar: uni030B
Encoding: 779 779 130
Width: 0
Flags: MW
AnchorPoint: "Anchor-0" 583 1500 mark 0
LayerCount: 2
Fore
SplineSet
807 1680 m 2
 784 1705 l 2
 763 1727 760 1729 782 1750 c 2
 972 1936 l 2
 1016 1979 1076 1962 1105 1924 c 256
 1133 1887 1120 1832 1077 1807 c 2
 844 1671 l 2
 825 1660 822 1664 807 1680 c 2
390 1685 m 2
 369 1706 l 2
 348 1729 356 1736 377 1756 c 2
 561 1936 l 2
 605 1979 661 1965 690 1927 c 256
 718 1890 713 1835 666 1807 c 2
 456 1687 l 2
 424 1668 415 1658 390 1685 c 2
EndSplineSet
EndChar

StartChar: uni030C
Encoding: 780 780 131
Width: 0
Flags: MW
AnchorPoint: "Anchor-0" 658 1500 mark 0
LayerCount: 2
Fore
SplineSet
597 1721 m 2
 468 1887 l 2
 455 1904 450 1911 472 1926 c 2
 493 1940 l 2
 518 1957 521 1953 541 1938 c 2
 675 1836 l 2
 709 1810 736 1809 781 1836 c 2
 972 1952 l 2
 996 1967 1000 1961 1014 1943 c 2
 1022 1935 l 2
 1037 1917 1040 1910 1018 1892 c 2
 803 1714 l 2
 785 1699 780 1690 748 1690 c 2
 668 1690 l 2
 627 1690 612 1702 597 1721 c 2
EndSplineSet
EndChar

StartChar: uni0311
Encoding: 785 785 132
Width: 0
Flags: MW
AnchorPoint: "Anchor-0" 658 1500 mark 0
LayerCount: 2
Fore
SplineSet
734 1938 m 256
 906 1938 959 1843 931 1699 c 0
 927 1682 921 1680 904 1680 c 2
 890 1680 l 2
 876 1680 873 1683 875 1696 c 0
 887 1786 833 1828 736 1828 c 256
 644 1828 570 1790 541 1709 c 0
 534 1690 539 1680 515 1680 c 2
 488 1680 l 2
 467 1680 468 1684 473 1704 c 0
 508 1844 585 1938 734 1938 c 256
EndSplineSet
EndChar

StartChar: uni0312
Encoding: 786 786 133
Width: 0
Flags: MW
AnchorPoint: "Anchor-0" 533 920 mark 0
LayerCount: 2
Fore
SplineSet
711 1198 m 0
 711 1145 665 1103 604 1103 c 0
 542 1103 492 1153 492 1254 c 0
 492 1393 628 1513 760 1525 c 0
 772 1526 778 1527 778 1513 c 2
 778 1478 l 2
 778 1464 770 1462 758 1460 c 0
 685 1449 567 1375 576 1283 c 0
 578 1270 584 1276 593 1282 c 0
 603 1288 617 1292 634 1292 c 0
 687 1292 711 1251 711 1198 c 0
EndSplineSet
EndChar

StartChar: dotbelowcomb
Encoding: 803 803 134
Width: 0
Flags: MW
AnchorPoint: "Anchor-1" 340 0 mark 0
AnchorPoint: "Anchor-2" 340 0 mark 0
LayerCount: 2
Fore
SplineSet
281 -410 m 0
 216 -410 161 -354 161 -289 c 0
 161 -223 216 -169 281 -169 c 0
 347 -169 401 -223 401 -289 c 0
 401 -354 347 -410 281 -410 c 0
EndSplineSet
EndChar

StartChar: uni0326
Encoding: 806 806 135
Width: 0
Flags: MW
AnchorPoint: "Anchor-1" 336 0 mark 0
AnchorPoint: "Anchor-2" 336 0 mark 0
LayerCount: 2
Fore
SplineSet
171 -296 m 0
 171 -243 217 -201 278 -201 c 0
 340 -201 390 -251 390 -352 c 0
 390 -491 254 -611 122 -623 c 0
 110 -624 104 -625 104 -611 c 2
 104 -576 l 2
 104 -562 112 -560 124 -558 c 0
 197 -547 315 -473 306 -381 c 0
 304 -368 298 -374 289 -380 c 0
 279 -386 265 -390 248 -390 c 0
 195 -390 171 -349 171 -296 c 0
EndSplineSet
EndChar

StartChar: uni0327
Encoding: 807 807 136
Width: 0
Flags: MW
AnchorPoint: "Anchor-1" 368 0 mark 0
AnchorPoint: "Anchor-2" 368 0 mark 0
LayerCount: 2
Fore
SplineSet
83 -480 m 2
 87 -463 l 2
 92 -441 103 -437 123 -436 c 0
 205 -430 296 -402 310 -336 c 0
 327 -256 244 -237 156 -229 c 0
 118 -225 118 -218 135 -200 c 2
 329 2 l 2
 337 11 345 12 361 12 c 2
 386 12 l 2
 416 12 423 7 409 -8 c 2
 295 -126 l 2
 273 -149 274 -147 309 -150 c 0
 416 -160 481 -198 457 -310 c 0
 426 -455 259 -505 102 -509 c 0
 81 -510 78 -502 83 -480 c 2
EndSplineSet
EndChar

StartChar: uni0328
Encoding: 808 808 137
Width: 0
Flags: MW
AnchorPoint: "Anchor-2" 361 47 mark 0
AnchorPoint: "Anchor-3" 361 47 mark 0
LayerCount: 2
Fore
SplineSet
255 -372 m 0
 142 -372 47 -335 71 -220 c 0
 95 -108 266 -2 388 70 c 0
 413 85 432 90 438 80 c 0
 445 69 431 54 411 36 c 0
 354 -16 285 -89 268 -170 c 0
 257 -221 271 -275 341 -275 c 0
 390 -275 431 -246 460 -214 c 0
 473 -199 482 -199 490 -207 c 2
 502 -217 l 2
 513 -226 511 -230 500 -245 c 0
 444 -318 372 -372 255 -372 c 0
EndSplineSet
EndChar

StartChar: exclamdown
Encoding: 161 161 139
Width: 638
Flags: MW
LayerCount: 2
Fore
SplineSet
508 940 m 0
 508 874 454 820 388 820 c 0
 322 820 268 874 268 940 c 0
 268 1006 322 1060 388 1060 c 0
 454 1060 508 1006 508 940 c 0
-22 -254 m 0
 81 73 184 324 256 606 c 0
 261 625 264 630 289 630 c 2
 322 630 l 2
 340 630 344 628 340 612 c 0
 275 328 279 45 208 -310 c 0
 192 -390 166 -478 62 -478 c 0
 -2 -478 -42 -428 -42 -364 c 0
 -42 -328 -32 -286 -22 -254 c 0
EndSplineSet
EndChar

StartChar: cent
Encoding: 162 162 140
Width: 744
Flags: MW
LayerCount: 2
Fore
SplineSet
595 1230 m 2
 655 1230 l 2
 676 1230 683 1224 676 1205 c 2
 193 -146 l 2
 187 -163 182 -170 163 -170 c 2
 109 -170 l 2
 87 -170 79 -163 85 -147 c 2
 568 1216 l 2
 572 1228 580 1230 595 1230 c 2
EndSplineSet
Refer: 40 99 N 1 0 0 1 0 0 2
EndChar

StartChar: sterling
Encoding: 163 163 141
Width: 1270
Flags: MW
LayerCount: 2
Fore
SplineSet
-50 -7 m 0
 -7 251 293 399 319 522 c 0
 335 598 329 660 283 660 c 2
 26 660 l 2
 0 660 -4 669 -3 696 c 2
 -3 740 l 2
 -2 765 12 770 36 770 c 2
 273 770 l 2
 323 770 307 784 299 813 c 0
 277 899 256 986 280 1100 c 0
 340 1380 579 1520 901 1520 c 0
 1205 1520 1323 1376 1288 1212 c 0
 1268 1116 1190 1080 1132 1080 c 0
 1078 1080 1026 1122 1042 1196 c 0
 1057 1268 1123 1278 1133 1324 c 0
 1144 1378 1031 1436 883 1436 c 0
 645 1436 537 1268 506 1120 c 0
 480 998 502 901 515 809 c 0
 520 772 521 770 571 770 c 2
 853 770 l 2
 880 770 884 770 884 743 c 2
 885 682 l 2
 885 666 874 660 856 660 c 2
 551 660 l 2
 524 660 519 654 514 629 c 0
 465 402 319 341 194 223 c 0
 164 195 109 155 125 143 c 0
 132 138 154 171 205 184 c 0
 231 191 261 194 295 194 c 0
 495 194 561 126 713 126 c 0
 832 126 946 183 981 294 c 0
 987 314 986 314 1008 314 c 2
 1059 314 l 2
 1083 314 1078 300 1073 280 c 0
 1005 17 832 -60 661 -60 c 0
 387 -60 323 60 197 60 c 0
 127 60 89 31 59 -15 c 0
 50 -28 49 -40 29 -40 c 2
 -37 -40 l 2
 -61 -40 -53 -27 -50 -7 c 0
EndSplineSet
EndChar

StartChar: currency
Encoding: 164 164 142
Width: 1140
Flags: MW
LayerCount: 2
Fore
SplineSet
14 248 m 1
 -44 321 l 1
 148 479 l 1
 97 563 91 653 116 770 c 256
 141 887 185 977 272 1061 c 1
 147 1219 l 1
 236 1292 l 1
 360 1134 l 1
 445 1196 542 1229 672 1229 c 256
 802 1229 883 1196 943 1135 c 1
 1134 1292 l 1
 1191 1219 l 1
 1000 1061 l 1
 1051 977 1057 887 1032 770 c 0
 1007 654 964 563 877 478 c 1
 1000 321 l 1
 912 248 l 1
 788 405 l 1
 703 344 606 310 477 310 c 256
 347 310 263 344 204 405 c 1
 14 248 l 1
503 433 m 0
 706 433 860 571 902 770 c 256
 944 969 848 1107 646 1107 c 0
 443 1107 288 969 246 770 c 256
 204 571 301 433 503 433 c 0
EndSplineSet
EndChar

StartChar: yen
Encoding: 165 165 143
Width: 1140
Flags: MW
LayerCount: 2
Fore
SplineSet
154 460 m 2
 876 460 l 2
 906 460 910 456 910 432 c 2
 910 383 l 2
 910 359 907 350 873 350 c 2
 151 350 l 2
 119 350 118 354 118 380 c 2
 118 432 l 2
 118 455 127 460 154 460 c 2
224 740 m 2
 946 740 l 2
 976 740 980 736 980 712 c 2
 980 663 l 2
 980 639 977 630 943 630 c 2
 221 630 l 2
 189 630 188 634 188 660 c 2
 188 712 l 2
 188 735 197 740 224 740 c 2
EndSplineSet
Refer: 36 89 N 1 0 0 1 0 0 2
EndChar

StartChar: brokenbar
Encoding: 166 166 144
Width: 479
Flags: MW
LayerCount: 2
Fore
SplineSet
372 1560 m 1
 485 1560 l 1
 327 818 l 1
 214 818 l 1
 372 1560 l 1
111 332 m 1
 224 332 l 1
 47 -500 l 1
 -66 -500 l 1
 111 332 l 1
EndSplineSet
EndChar

StartChar: section
Encoding: 167 167 145
Width: 1068
Flags: MW
LayerCount: 2
Fore
SplineSet
834 1316 m 0
 848 1382 731 1418 627 1418 c 0
 501 1418 380 1362 360 1268 c 0
 311 1036 1004 1076 935 750 c 0
 914 653 854 564 745 494 c 1
 806 447 841 382 820 284 c 0
 776 76 536 -20 326 -20 c 0
 110 -20 -104 64 -55 296 c 0
 -35 392 47 448 105 448 c 0
 159 448 211 406 195 332 c 0
 180 260 113 250 103 204 c 0
 89 138 241 82 345 82 c 0
 471 82 633 138 653 232 c 0
 702 464 -12 424 57 750 c 0
 86 885 157 940 267 1006 c 1
 206 1053 171 1118 192 1216 c 0
 236 1424 437 1520 627 1520 c 0
 843 1520 1037 1436 992 1224 c 0
 972 1128 890 1072 832 1072 c 0
 778 1072 727 1114 743 1188 c 0
 758 1260 824 1270 834 1316 c 0
339 963 m 1
 317 932 277 879 263 814 c 0
 228 649 488 626 667 541 c 1
 711 583 739 635 750 686 c 0
 785 853 517 875 339 963 c 1
EndSplineSet
EndChar

StartChar: dieresis
Encoding: 168 168 146
Width: 1000
Flags: MW
AnchorPoint: "Anchor-0" 660 1500 mark 0
LayerCount: 2
Fore
SplineSet
880 1690 m 256
 827 1690 784 1733 784 1786 c 256
 784 1839 827 1883 880 1883 c 256
 933 1883 976 1839 976 1786 c 256
 976 1733 933 1690 880 1690 c 256
560 1690 m 256
 507 1690 464 1733 464 1786 c 256
 464 1839 507 1883 560 1883 c 256
 613 1883 656 1839 656 1786 c 256
 656 1733 613 1690 560 1690 c 256
EndSplineSet
EndChar

StartChar: copyright
Encoding: 169 169 147
Width: 1441
Flags: MW
LayerCount: 2
Fore
SplineSet
927 1520 m 256
 1371 1520 1475 1192 1377 750 c 256
 1279 306 1028 -20 586 -20 c 256
 142 -20 38 308 136 750 c 256
 234 1193 485 1520 927 1520 c 256
606 73 m 256
 989 73 1193 349 1282 750 c 256
 1371 1151 1287 1427 906 1427 c 256
 523 1427 319 1151 230 750 c 256
 141 347 225 73 606 73 c 256
EndSplineSet
Refer: 14 67 N 0.6 0 0 0.6 394 290 2
EndChar

StartChar: ordfeminine
Encoding: 170 170 148
Width: 703
Flags: MW
LayerCount: 2
Fore
SplineSet
553 1348 m 0
 553 1449 532 1538 435 1538 c 0
 334 1538 207 1353 207 1180 c 0
 207 1079 250 1014 327 1014 c 0
 436 1014 553 1211 553 1348 c 0
786 1149 m 0
 740 1034 660 952 577 952 c 0
 521 952 491 986 491 1028 c 0
 491 1045 492 1052 494 1059 c 0
 496 1067 492 1067 485 1059 c 0
 433 996 367 952 293 952 c 0
 186 952 87 1012 87 1180 c 0
 87 1420 294 1599 425 1599 c 0
 505 1599 550 1561 573 1499 c 0
 586 1465 586 1471 592 1497 c 2
 609 1572 l 2
 611 1583 615 1588 629 1588 c 2
 695 1588 l 2
 720 1588 723 1584 718 1565 c 2
 599 1071 l 2
 597 1064 597 1055 597 1049 c 0
 597 1036 603 1026 619 1026 c 0
 657 1026 711 1089 740 1163 c 0
 744 1174 744 1176 755 1172 c 2
 779 1163 l 2
 790 1159 790 1160 786 1149 c 0
EndSplineSet
EndChar

StartChar: guillemotleft
Encoding: 171 171 149
Width: 1390
Flags: MW
LayerCount: 2
Fore
SplineSet
867 775 m 1
 1251 380 l 1
 1172 290 l 1
 609 750 l 1
 620 800 l 1
 1378 1260 l 1
 1419 1170 l 1
 867 775 l 1
307 775 m 1
 691 380 l 1
 612 290 l 1
 49 750 l 1
 60 800 l 1
 818 1260 l 1
 859 1170 l 1
 307 775 l 1
EndSplineSet
EndChar

StartChar: logicalnot
Encoding: 172 172 150
Width: 971
Flags: MW
LayerCount: 2
Fore
SplineSet
665 406 m 1
 731 716 l 1
 112 716 l 1
 136 830 l 1
 868 830 l 1
 778 406 l 1
 665 406 l 1
EndSplineSet
EndChar

StartChar: uni00AD
Encoding: 173 173 151
Width: 920
Flags: MW
LayerCount: 2
Fore
SplineSet
164 830 m 2
 790 830 l 2
 813 830 815 826 810 802 c 2
 800 753 l 2
 795 729 791 720 765 720 c 2
 139 720 l 2
 114 720 113 724 119 750 c 2
 130 802 l 2
 135 825 143 830 164 830 c 2
EndSplineSet
EndChar

StartChar: registered
Encoding: 174 174 152
Width: 1441
Flags: MW
LayerCount: 2
Fore
SplineSet
927 1520 m 256
 1371 1520 1475 1192 1377 750 c 256
 1279 306 1028 -20 586 -20 c 256
 142 -20 38 308 136 750 c 256
 234 1193 485 1520 927 1520 c 256
606 73 m 256
 989 73 1193 349 1282 750 c 256
 1371 1151 1287 1427 906 1427 c 256
 523 1427 319 1151 230 750 c 256
 141 347 225 73 606 73 c 256
EndSplineSet
Refer: 29 82 N 0.6 0 0 0.6 403 306 2
EndChar

StartChar: degree
Encoding: 176 176 154
Width: 639
Flags: MW
LayerCount: 2
Fore
SplineSet
318 1359 m 0
 302 1286 348 1230 421 1230 c 0
 495 1230 563 1286 579 1359 c 0
 595 1433 551 1490 477 1490 c 0
 404 1490 334 1433 318 1359 c 0
209 1359 m 256
 238 1495 364 1600 500 1600 c 256
 637 1600 719 1496 690 1359 c 256
 661 1223 534 1120 398 1120 c 256
 262 1120 180 1223 209 1359 c 256
EndSplineSet
EndChar

StartChar: plusminus
Encoding: 177 177 155
Width: 1059
Flags: MW
LayerCount: 2
Fore
SplineSet
390 361 m 1
 465 716 l 1
 112 716 l 1
 136 828 l 1
 489 828 l 1
 564 1180 l 1
 677 1180 l 1
 602 828 l 1
 955 828 l 1
 931 716 l 1
 578 716 l 1
 503 361 l 1
 390 361 l 1
-42 -15 m 1
 -18 97 l 1
 801 97 l 1
 777 -15 l 1
 -42 -15 l 1
EndSplineSet
EndChar

StartChar: uni00B2
Encoding: 178 178 156
Width: 675
Flags: MW
LayerCount: 2
Fore
SplineSet
704 1109 m 0
 713 952 610 902 506 902 c 0
 378 902 306 974 218 974 c 0
 183 974 164 958 152 932 c 0
 148 922 145 914 129 914 c 2
 100 914 l 2
 87 914 86 920 86 931 c 0
 91 1098 257 1224 430 1333 c 0
 519 1389 682 1509 682 1646 c 0
 682 1741 621 1776 526 1776 c 0
 431 1776 344 1722 344 1690 c 0
 344 1662 400 1657 400 1602 c 0
 400 1558 361 1532 329 1532 c 0
 288 1532 249 1559 249 1611 c 0
 249 1721 368 1826 544 1826 c 0
 701 1826 816 1772 816 1634 c 0
 816 1490 630 1358 460 1274 c 0
 342 1215 212 1105 162 1036 c 0
 148 1016 140 994 150 994 c 0
 161 994 160 1012 176 1029 c 0
 204 1057 266 1075 314 1075 c 0
 404 1075 452 1023 543 1023 c 0
 613 1023 643 1055 647 1110 c 0
 649 1124 648 1126 664 1126 c 2
 688 1126 l 2
 702 1126 703 1123 704 1109 c 0
EndSplineSet
EndChar

StartChar: uni00B3
Encoding: 179 179 157
Width: 638
Flags: MW
LayerCount: 2
Fore
SplineSet
98 1093 m 0
 98 1151 140 1172 175 1172 c 0
 207 1172 243 1146 243 1102 c 0
 243 1059 205 1054 205 1026 c 0
 205 994 256 952 357 952 c 0
 488 952 571 1077 571 1184 c 0
 571 1264 543 1325 424 1344 c 0
 396 1348 370 1336 370 1371 c 2
 370 1382 l 2
 370 1417 397 1406 424 1410 c 0
 575 1433 643 1547 643 1659 c 0
 643 1730 578 1776 489 1776 c 0
 412 1776 373 1736 373 1704 c 0
 373 1676 411 1670 411 1627 c 0
 411 1583 375 1557 343 1557 c 0
 308 1557 266 1578 266 1636 c 0
 266 1734 343 1826 513 1826 c 0
 652 1826 764 1767 764 1641 c 0
 764 1505 683 1451 579 1402 c 0
 534 1381 528 1389 528 1376 c 0
 528 1366 551 1370 576 1360 c 0
 653 1330 692 1276 692 1184 c 0
 692 1022 562 902 369 902 c 0
 187 902 98 995 98 1093 c 0
EndSplineSet
EndChar

StartChar: acute
Encoding: 180 180 158
Width: 790
Flags: MW
LayerCount: 2
Fore
SplineSet
795 1440 m 2
 334 1421 l 2
 309 1420 302 1421 300 1440 c 0
 297 1460 313 1464 338 1470 c 2
 775 1576 l 2
 831 1589 865 1548 865 1510 c 0
 865 1472 833 1441 795 1440 c 2
EndSplineSet
EndChar

StartChar: mu
Encoding: 181 181 159
Width: 856
Flags: MW
LayerCount: 2
Fore
SplineSet
283.122070312 847 m 1
 -18.8779296875 -242 l 2
 -54.8779296875 -413 36.1220703125 -423 46.1220703125 -415 c 0
 55.1220703125 -407 46.1220703125 -407 46.1220703125 -352 c 0
 46.1220703125 -287 97.1220703125 -246 172.122070312 -246 c 0
 242.122070312 -246 286.122070312 -288 286.122070312 -360 c 0
 286.122070312 -453 189.122070312 -520 89.1220703125 -520 c 0
 -72.8779296875 -520 -165.877929688 -409 -130.877929688 -242 c 2
 171.122070312 847 l 1
 283.122070312 847 l 1
EndSplineSet
Refer: 58 117 N 1 0 0 1 0.122828 0 2
EndChar

StartChar: paragraph
Encoding: 182 182 160
Width: 1232
Flags: MW
LayerCount: 2
Fore
SplineSet
663 -144 m 2
 983 1358 l 2
 989 1385 974 1387 945 1387 c 2
 901 1387 l 2
 863 1387 861 1379 853 1342 c 2
 538 -136 l 2
 531 -168 538 -187 575 -187 c 2
 611 -187 l 2
 653 -187 654 -184 663 -144 c 2
206 1039 m 0
 206 1286 338 1500 626 1500 c 2
 1159 1500 l 2
 1187 1500 1196 1496 1196 1466 c 2
 1196 1428 l 2
 1196 1390 1188 1387 1149 1387 c 2
 1139 1387 l 2
 1097 1387 1099 1376 1090 1336 c 2
 776 -132 l 2
 769 -165 779 -187 817 -187 c 2
 831 -187 l 2
 857 -187 866 -188 866 -214 c 2
 866 -259 l 2
 866 -293 860 -300 827 -300 c 2
 371 -300 l 2
 345 -300 325 -299 325 -270 c 2
 325 -246 l 2
 325 -197 326 -187 375 -187 c 2
 383 -187 l 2
 415 -187 418 -185 425 -154 c 2
 615 740 l 2
 615 775 606 779 573 779 c 2
 496 779 l 2
 299 779 206 862 206 1039 c 0
EndSplineSet
EndChar

StartChar: cedilla
Encoding: 184 184 162
Width: 1000
Flags: MW
AnchorPoint: "Anchor-1" 368 0 mark 0
AnchorPoint: "Anchor-2" 368 0 mark 0
LayerCount: 2
Fore
SplineSet
83 -480 m 2
 87 -463 l 2
 92 -441 103 -437 123 -436 c 0
 205 -430 296 -402 310 -336 c 0
 327 -256 244 -237 156 -229 c 0
 118 -225 118 -218 135 -200 c 2
 329 2 l 2
 337 11 345 12 361 12 c 2
 386 12 l 2
 416 12 423 7 409 -8 c 2
 295 -126 l 2
 273 -149 274 -147 309 -150 c 0
 416 -160 481 -198 457 -310 c 0
 426 -455 259 -505 102 -509 c 0
 81 -510 78 -502 83 -480 c 2
EndSplineSet
EndChar

StartChar: uni00B9
Encoding: 185 185 163
Width: 630
Flags: MW
LayerCount: 2
Fore
SplineSet
-24 935 m 2
 -24 960 l 2
 -24 977 -17 978 0 978 c 2
 155 978 l 2
 177 978 182 984 186 1003 c 2
 318 1616 l 2
 318 1638 316 1644 295 1644 c 2
 173 1644 l 2
 156 1644 146 1645 146 1664 c 2
 146 1682 l 2
 146 1704 149 1710 172 1710 c 0
 288 1711 348 1719 412 1835 c 0
 419 1847 423 1860 443 1860 c 2
 460 1860 l 2
 475 1860 483 1858 480 1844 c 2
 300 1009 l 2
 294 982 303 978 332 978 c 2
 460 978 l 2
 476 978 486 977 486 960 c 2
 486 936 l 2
 486 917 485 912 466 912 c 2
 -4 912 l 2
 -22 912 -24 916 -24 935 c 2
EndSplineSet
EndChar

StartChar: ordmasculine
Encoding: 186 186 164
Width: 654
Flags: MW
LayerCount: 2
Fore
SplineSet
10 1178 m 0
 10 1406 176 1598 369 1598 c 0
 514 1598 608 1502 608 1370 c 0
 608 1142 442 950 249 950 c 0
 104 950 10 1046 10 1178 c 0
136 1178 m 0
 136 1089 166 1004 249 1004 c 0
 380 1004 482 1185 482 1370 c 0
 482 1459 452 1544 369 1544 c 0
 238 1544 136 1363 136 1178 c 0
EndSplineSet
EndChar

StartChar: guillemotright
Encoding: 187 187 165
Width: 1390
Flags: MW
LayerCount: 2
Fore
SplineSet
533 775 m 1
 149 1170 l 1
 228 1260 l 1
 790 800 l 1
 779 750 l 1
 22 290 l 1
 -19 380 l 1
 533 775 l 1
1093 775 m 1
 709 1170 l 1
 788 1260 l 1
 1350 800 l 1
 1339 750 l 1
 582 290 l 1
 541 380 l 1
 1093 775 l 1
EndSplineSet
EndChar

StartChar: onequarter
Encoding: 188 188 166
Width: 2000
Flags: MW
LayerCount: 2
Fore
SplineSet
1502 1440 m 1
 1630 1440 l 1
 508 -60 l 1
 370 -60 l 1
 1502 1440 l 1
EndSplineSet
Refer: 6 52 N 0.6 0 0 0.6 1070 4 2
Refer: 3 49 N 0.6 0 0 0.6 214 632 2
EndChar

StartChar: onehalf
Encoding: 189 189 167
Width: 2000
Flags: MW
LayerCount: 2
Fore
SplineSet
1502 1450 m 1
 1630 1450 l 1
 508 -50 l 1
 370 -50 l 1
 1502 1450 l 1
EndSplineSet
Refer: 4 50 N 0.6 0 0 0.6 1152 -16 2
Refer: 3 49 N 0.6 0 0 0.6 214 622 2
EndChar

StartChar: threequarters
Encoding: 190 190 168
Width: 2000
Flags: MW
LayerCount: 2
Fore
SplineSet
1502 1400 m 1
 1630 1400 l 1
 508 -100 l 1
 370 -100 l 1
 1502 1400 l 1
EndSplineSet
Refer: 6 52 N 0.6 0 0 0.6 1070 -36 2
Refer: 5 51 N 0.6 0 0 0.6 130 614 2
EndChar

StartChar: questiondown
Encoding: 191 191 169
Width: 1100
Flags: MW
LayerCount: 2
Fore
SplineSet
407 602 m 0
 462 643 522 648 558 648 c 0
 679 648 750 574 750 470 c 0
 750 214 102 175 102 -160 c 0
 102 -308 200 -386 358 -386 c 0
 486 -386 602 -328 602 -284 c 0
 602 -224 540 -222 540 -120 c 0
 540 -36 606 0 676 0 c 0
 746 0 810 -46 810 -142 c 0
 810 -326 622 -480 318 -480 c 0
 56 -480 -80 -360 -80 -140 c 0
 -80 314 609 311 609 473 c 0
 609 506 587 534 540 534 c 0
 516 534 471 529 430 494 c 0
 414 480 412 481 406 513 c 2
 394 564 l 2
 390 587 392 591 407 602 c 0
722 940 m 0
 722 874 668 820 602 820 c 0
 536 820 482 874 482 940 c 0
 482 1006 536 1060 602 1060 c 0
 668 1060 722 1006 722 940 c 0
EndSplineSet
EndChar

StartChar: multiply
Encoding: 215 215 170
Width: 1003
Flags: MW
LayerCount: 2
Fore
SplineSet
548 881 m 2
 799 1088 l 2
 819 1104 830 1109 843 1092 c 2
 880 1047 l 2
 889 1035 894 1028 879 1016 c 2
 618 801 l 2
 591 778 586 770 603 748 c 2
 767 539 l 2
 776 527 771 521 756 508 c 2
 716 477 l 2
 699 463 694 459 683 473 c 2
 524 677 l 2
 505 702 495 700 465 675 c 2
 216 470 l 2
 195 452 188 453 175 470 c 2
 140 513 l 2
 128 529 133 538 151 553 c 2
 406 765 l 2
 429 784 432 792 416 813 c 2
 255 1018 l 2
 242 1034 242 1042 263 1060 c 2
 302 1090 l 2
 319 1104 325 1100 337 1085 c 2
 496 882 l 2
 514 859 521 859 548 881 c 2
EndSplineSet
EndChar

StartChar: divide
Encoding: 247 247 171
Width: 1119
Flags: MW
LayerCount: 2
Fore
SplineSet
135 836 m 2
 994 836 l 2
 1014 836 1020 830 1020 808 c 2
 1020 742 l 2
 1020 727 1012 724 996 724 c 2
 132 724 l 2
 106 724 100 729 100 754 c 2
 100 796 l 2
 100 829 103 836 135 836 c 2
369 430 m 0
 369 496 425 550 491 550 c 0
 557 550 610 496 610 430 c 0
 610 364 557 310 491 310 c 0
 425 310 369 364 369 430 c 0
509 1140 m 0
 509 1206 565 1260 631 1260 c 0
 697 1260 750 1206 750 1140 c 0
 750 1074 697 1020 631 1020 c 0
 565 1020 509 1074 509 1140 c 0
EndSplineSet
EndChar

StartChar: dotlessi
Encoding: 305 305 172
Width: 436
Flags: MW
AnchorPoint: "Anchor-0" 279 1040 basechar 0
AnchorPoint: "Anchor-1" 137 0 basechar 0
AnchorPoint: "Anchor-2" 137 0 basechar 0
LayerCount: 2
Fore
SplineSet
402 990 m 2
 201 192 l 2
 196 173 182 107 182 97 c 0
 182 80 185 74 193 74 c 0
 225 74 262 149 308 254 c 0
 316 270 321 276 340 268 c 2
 366 257 l 2
 383 250 386 246 379 229 c 0
 311 79 261 -20 136 -20 c 0
 72 -20 2 7 2 99 c 0
 2 119 8 157 15 184 c 2
 193 896 l 2
 200 925 194 930 161 930 c 2
 159 930 l 2
 125 930 119 935 119 968 c 2
 119 1008 l 2
 119 1036 129 1040 155 1040 c 2
 361 1040 l 2
 411 1040 413 1035 402 990 c 2
EndSplineSet
EndChar

StartChar: uni1E9E
Encoding: 7838 7838 173
Width: 1432
Flags: MW
LayerCount: 2
Fore
SplineSet
-56 0 m 1
 -55.61328125 110 l 1
 25.38671875 110 l 1
 196.53515625 882 l 2
 286.54296875 1288 567.975585938 1520 1003.97558594 1520 c 0
 1260.97558594 1520 1479.71191406 1388 1526.08007812 1322 c 1
 1096.18847656 828.493164062 l 1
 1353.27539062 770.454101562 1383.14941406 591.577148438 1342.89453125 410 c 0
 1285.25390625 150 1059.56640625 -20 837.56640625 -20 c 0
 583.56640625 -20 467.93359375 126 500.079101562 271 c 0
 518.2578125 353 582.337890625 412 662.337890625 412 c 0
 733.337890625 412 769.25390625 362 753.291015625 290 c 0
 741.125 235.123046875 692.190429688 193.479492188 641.291992188 182.72265625 c 1
 668.03515625 124.1484375 742.254882812 97 824.50390625 97 c 0
 962.50390625 97 1091.21582031 222 1132.89453125 410 c 0
 1165.70605469 558 1167.9453125 735 869.9453125 735 c 1
 894.997070312 848 l 1
 1287.75976562 1298 l 1
 1222.16992188 1363 1086.92480469 1407 978.924804688 1407 c 0
 600.924804688 1407 468.141601562 1205 391.87890625 861 c 2
 225.38671875 110 l 1
 305.38671875 110 l 1
 305 0 l 1
 -56 0 l 1
EndSplineSet
EndChar

StartChar: guilsinglleft
Encoding: 8249 8249 186
Width: 830
Flags: MW
LayerCount: 2
Fore
SplineSet
307 775 m 1
 691 380 l 1
 612 290 l 1
 49 750 l 1
 60 800 l 1
 818 1260 l 1
 859 1170 l 1
 307 775 l 1
EndSplineSet
EndChar

StartChar: guilsinglright
Encoding: 8250 8250 187
Width: 830
Flags: MW
LayerCount: 2
Fore
SplineSet
533 775 m 1
 149 1170 l 1
 228 1260 l 1
 790 800 l 1
 779 750 l 1
 22 290 l 1
 -19 380 l 1
 533 775 l 1
EndSplineSet
EndChar

StartChar: dagger
Encoding: 8224 8224 189
Width: 1186
Flags: MW
LayerCount: 2
Fore
SplineSet
604 1074 m 0
 627 1207 615 1237 624 1361 c 0
 625 1375 627 1386 630 1398 c 0
 647 1476 697 1520 756 1520 c 0
 815 1520 847 1476 830 1398 c 0
 827 1386 825 1375 820 1361 c 0
 777 1238 752 1207 719 1078 c 0
 712 1048 700 1032 735 1035 c 0
 812 1042 880 1058 995 1074 c 0
 1009 1076 1021 1076 1033 1076 c 0
 1111 1076 1146 1035 1133 976 c 0
 1120 917 1068 876 990 876 c 0
 978 876 968 876 954 878 c 0
 851 893 791 907 722 915 c 0
 692 918 684 925 677 889 c 0
 648 740 635 610 665 524 c 0
 674 497 670 495 653 465 c 0
 555 298 484 -17 389 -465 c 0
 384 -489 378 -500 352 -500 c 2
 298 -500 l 2
 277 -500 273 -492 277 -473 c 0
 376 -6 442 318 407 482 c 0
 402 506 414 511 430 533 c 0
 491 617 531 741 564 881 c 0
 574 924 566 919 527 915 c 0
 456 907 392 893 286 878 c 0
 272 876 260 876 248 876 c 0
 170 876 134 917 147 976 c 0
 160 1035 213 1076 291 1076 c 0
 303 1076 313 1076 327 1074 c 0
 424 1060 484 1046 548 1038 c 0
 589 1033 596 1028 604 1074 c 0
EndSplineSet
EndChar

StartChar: daggerdbl
Encoding: 8225 8225 190
Width: 1186
Flags: MW
LayerCount: 2
Fore
SplineSet
600 1056 m 0
 627 1204 614 1231 624 1361 c 0
 625 1375 627 1386 630 1398 c 0
 647 1476 697 1520 756 1520 c 0
 815 1520 847 1476 830 1398 c 0
 827 1386 825 1375 820 1361 c 0
 774 1231 749 1204 714 1056 c 0
 708 1033 710 1033 732 1035 c 0
 810 1042 878 1058 995 1074 c 0
 1009 1076 1021 1076 1033 1076 c 0
 1111 1076 1146 1035 1133 976 c 0
 1120 917 1068 876 990 876 c 0
 978 876 968 876 954 878 c 0
 847 894 787 909 714 916 c 0
 690 918 683 924 678 896 c 0
 649 745 636 613 665 526 c 0
 673 500 674 501 654 474 c 0
 589 387 545 257 511 109 c 0
 504 80 506 80 534 83 c 0
 611 90 678 106 793 122 c 0
 807 124 818 124 830 124 c 0
 908 124 944 83 931 24 c 0
 918 -35 866 -76 788 -76 c 0
 776 -76 765 -76 751 -74 c 0
 648 -59 588 -44 520 -36 c 0
 486 -32 483 -30 476 -68 c 0
 452 -206 463 -235 454 -361 c 0
 453 -375 451 -386 448 -398 c 0
 431 -476 381 -520 322 -520 c 0
 263 -520 231 -476 248 -398 c 0
 251 -386 253 -375 258 -361 c 0
 303 -233 327 -205 363 -60 c 0
 371 -27 360 -33 330 -36 c 0
 258 -44 192 -59 83 -74 c 0
 69 -76 58 -76 46 -76 c 0
 -32 -76 -68 -35 -55 24 c 0
 -42 83 10 124 88 124 c 0
 100 124 111 124 125 122 c 0
 229 107 289 92 359 84 c 0
 383 81 395 74 400 104 c 0
 430 260 444 397 410 484 c 0
 402 505 411 507 426 528 c 0
 489 614 531 741 565 886 c 0
 575 929 556 918 520 914 c 0
 452 906 389 892 286 878 c 0
 272 876 260 876 248 876 c 0
 170 876 134 917 147 976 c 0
 160 1035 213 1076 291 1076 c 0
 303 1076 313 1076 327 1074 c 0
 433 1058 493 1044 564 1036 c 0
 588 1033 595 1027 600 1056 c 0
EndSplineSet
EndChar

StartChar: uni2074
Encoding: 8308 8308 192
Width: 757
Flags: MW
LayerCount: 2
Fore
SplineSet
569 969 m 2
 569 935 l 2
 569 921 564 919 550 919 c 2
 270 919 l 2
 255 919 251 922 251 938 c 2
 251 965 l 2
 251 981 254 985 269 985 c 2
 354 985 l 2
 367 985 375 989 377 1000 c 2
 413 1172 l 2
 417 1190 411 1195 393 1195 c 2
 109 1195 l 2
 91 1195 87 1197 79 1205 c 2
 63 1221 l 2
 52 1232 54 1236 61 1252 c 0
 145 1451 495 1549 556 1787 c 0
 561 1805 555 1819 580 1819 c 2
 646 1819 l 2
 671 1819 675 1816 672 1794 c 0
 639 1547 240 1426 157 1290 c 0
 146 1271 151 1261 185 1261 c 2
 420 1261 l 2
 433 1261 434 1265 436 1276 c 2
 451 1351 l 2
 455 1370 459 1370 469 1378 c 0
 497 1400 539 1428 557 1482 c 0
 561 1492 562 1501 577 1501 c 2
 580 1501 l 2
 596 1501 596 1496 593 1482 c 2
 550 1287 l 2
 545 1265 554 1261 576 1261 c 2
 628 1261 l 2
 644 1261 647 1257 647 1240 c 2
 647 1213 l 2
 647 1197 642 1195 625 1195 c 2
 554 1195 l 2
 535 1195 531 1189 527 1172 c 2
 491 1007 l 2
 487 989 489 985 508 985 c 2
 548 985 l 2
 563 985 569 984 569 969 c 2
EndSplineSet
EndChar

StartChar: Euro
Encoding: 8364 8364 193
Width: 1449
Flags: MW
LayerCount: 2
Fore
SplineSet
1028 1404 m 0
 680 1404 576 1114 499 750 c 0
 422 386 393 98 691 98 c 0
 992 98 1140 325 1177 464 c 0
 1180 476 1186 480 1200 480 c 2
 1270 480 l 2
 1284 480 1291 479 1288 466 c 0
 1240 266 1027 -20 646 -20 c 0
 270 -20 174 304 269 750 c 0
 364 1196 637 1520 1043 1520 c 0
 1337 1520 1440 1356 1397 1152 c 0
 1377 1056 1299 1020 1241 1020 c 0
 1187 1020 1135 1062 1151 1136 c 0
 1166 1208 1233 1218 1243 1264 c 0
 1254 1318 1246 1404 1028 1404 c 0
EndSplineSet
Refer: 87 61 N 1 0 0 1 -70 -30 2
EndChar

StartChar: partialdiff
Encoding: 8706 8706 194
Width: 1100
Flags: MW
LayerCount: 2
Fore
SplineSet
200 470 m 0
 154 252 179 70 357 70 c 0
 555 70 696 262 759 560 c 0
 793 720 701 862 535 862 c 0
 377 862 248 698 200 470 c 0
488 1382 m 0
 482 1356 526 1338 511 1266 c 0
 495 1192 426 1150 372 1150 c 0
 314 1150 252 1186 272 1282 c 0
 307 1446 471 1520 635 1520 c 0
 957 1520 1099 1220 997 740 c 0
 876 170 680 -20 358 -20 c 0
 76 -20 -68 150 -0 470 c 0
 70 800 290 960 512 960 c 0
 644 960 734 913 785 839 c 0
 798 820 799 806 808 810 c 0
 816 814 815 827 820 860 c 0
 877 1203 839 1436 607 1436 c 0
 529 1436 494 1408 488 1382 c 0
EndSplineSet
EndChar

StartChar: emptyset
Encoding: 8709 8709 195
Width: 1140
Flags: MW
LayerCount: 2
Fore
SplineSet
48 311 m 1
 1019 1282 l 1
 1102 1209 l 1
 131 238 l 1
 48 311 l 1
242 770 m 0
 242 592 358 433 571 433 c 0
 784 433 898 592 898 770 c 0
 898 948 784 1107 571 1107 c 0
 358 1107 242 948 242 770 c 0
112 770 m 0
 112 1020 289 1229 571 1229 c 0
 853 1229 1028 1020 1028 770 c 0
 1028 520 853 310 571 310 c 0
 289 310 112 520 112 770 c 0
EndSplineSet
EndChar

StartChar: product
Encoding: 8719 8719 196
Width: 1770
Flags: MW
LayerCount: 2
Fore
SplineSet
610 1347 m 2
 355 150 l 2
 349 120 360 110 393 110 c 2
 562 110 l 2
 589 110 595 105 595 76 c 2
 595 50 l 2
 595 5 589 0 545 0 c 2
 -15 0 l 2
 -48 0 -55 5 -55 40 c 2
 -55 68 l 2
 -55 104 -49 110 -14 110 c 2
 124 110 l 2
 146 110 159 113 165 144 c 2
 420 1351 l 2
 426 1382 411 1390 381 1390 c 2
 235 1390 l 2
 201 1390 200 1401 200 1436 c 2
 200 1462 l 2
 200 1494 210 1500 240 1500 c 2
 1780 1500 l 2
 1812 1500 1820 1496 1820 1462 c 2
 1820 1424 l 2
 1820 1396 1811 1390 1781 1390 c 2
 1655 1390 l 2
 1611 1390 1609 1386 1600 1344 c 2
 1345 144 l 2
 1339 117 1352 110 1382 110 c 2
 1526 110 l 2
 1553 110 1565 107 1565 78 c 2
 1565 44 l 2
 1565 2 1554 0 1515 0 c 2
 955 0 l 2
 919 0 915 7 915 44 c 2
 915 74 l 2
 915 102 917 110 944 110 c 2
 1113 110 l 2
 1152 110 1147 125 1155 160 c 2
 1410 1338 l 2
 1419 1380 1404 1390 1361 1390 c 2
 657 1390 l 2
 615 1390 618 1383 610 1347 c 2
EndSplineSet
EndChar

StartChar: summation
Encoding: 8721 8721 197
Width: 1305
Flags: MW
LayerCount: 2
Fore
SplineSet
225 1500 m 1
 1329 1500 l 1
 1242 1090 l 1
 1128 1090 l 1
 1173 1304 1166 1387 932 1387 c 2
 431 1387 l 1
 715 813 l 1
 116 113 l 1
 640 113 l 2
 913 113 958 196 1012 450 c 1
 1125 450 l 1
 1029 0 l 1
 -104 0 l 1
 527 750 l 1
 201 1387 l 1
 225 1500 l 1
EndSplineSet
EndChar

StartChar: minus
Encoding: 8722 8722 198
Width: 1224
Flags: MW
LayerCount: 2
Fore
SplineSet
160 830 m 2
 1066 830 l 2
 1099 830 1104 826 1104 802 c 2
 1104 753 l 2
 1104 729 1102 720 1064 720 c 2
 157 720 l 2
 121 720 120 724 120 750 c 2
 120 802 l 2
 120 825 130 830 160 830 c 2
EndSplineSet
EndChar

StartChar: uni2219
Encoding: 8729 8729 200
Width: 440
Flags: MW
LayerCount: 2
Fore
SplineSet
105 770 m 0
 105 836 159 890 225 890 c 0
 291 890 345 836 345 770 c 0
 345 704 291 650 225 650 c 0
 159 650 105 704 105 770 c 0
EndSplineSet
EndChar

StartChar: radical
Encoding: 8730 8730 201
Width: 1130
Flags: MW
LayerCount: 2
Fore
SplineSet
1101 1390 m 1
 503 -20 l 1
 375 -20 l 1
 192 421 l 1
 68 363 l 1
 47 450 l 1
 305 580 l 1
 460 160 l 1
 1038 1500 l 1
 1289 1500 l 1
 1265 1390 l 1
 1101 1390 l 1
EndSplineSet
EndChar

StartChar: infinity
Encoding: 8734 8734 202
Width: 1813
Flags: MW
LayerCount: 2
Fore
SplineSet
1622 780 m 0
 1622 948 1517 1047 1364 1047 c 0
 1237 1047 1126 945 1031 825 c 0
 1004 791 992 784 1020 748 c 0
 1117 623 1232 513 1364 513 c 0
 1517 513 1622 622 1622 780 c 0
1763 780 m 0
 1763 540 1606 401 1364 401 c 0
 1209 401 1061 508 946 644 c 0
 906 691 910 696 870 648 c 0
 754 510 606 401 449 401 c 0
 207 401 50 550 50 780 c 0
 50 1020 207 1159 449 1159 c 0
 611 1159 763 1044 881 899 c 0
 906 868 904 864 930 896 c 0
 1048 1043 1201 1159 1364 1159 c 0
 1606 1159 1763 1020 1763 780 c 0
786 820 m 0
 688 942 568 1047 439 1047 c 0
 286 1047 191 928 191 780 c 0
 191 622 286 513 439 513 c 0
 569 513 691 621 789 744 c 0
 818 780 815 784 786 820 c 0
EndSplineSet
EndChar

StartChar: integral
Encoding: 8747 8747 203
Width: 782
Flags: MW
LayerCount: 2
Fore
SplineSet
222 1144 m 2
 222 1406 356 1580 616 1580 c 0
 818 1580 952 1472 952 1358 c 0
 952 1272 904 1226 834 1226 c 0
 764 1226 718 1266 718 1322 c 0
 718 1382 760 1396 760 1436 c 0
 760 1460 724 1490 620 1490 c 0
 460 1490 402 1354 402 1100 c 2
 402 -85 l 2
 402 -347 268 -521 8 -521 c 0
 -194 -521 -328 -413 -328 -299 c 0
 -328 -213 -280 -167 -210 -167 c 0
 -140 -167 -94 -207 -94 -263 c 0
 -94 -323 -136 -337 -136 -377 c 0
 -136 -401 -100 -431 4 -431 c 0
 164 -431 222 -295 222 -41 c 2
 222 1144 l 2
EndSplineSet
EndChar

StartChar: approxequal
Encoding: 8776 8776 204
Width: 1200
Flags: MW
LayerCount: 2
Fore
SplineSet
842 864 m 0
 724 864 637 942 596 1007 c 0
 559 1065 513 1091 460 1091 c 0
 353 1091 293 1036 276 957 c 0
 273 941 271 925 271 907 c 2
 271 907 271 905 271 904 c 0
 269 893 257 882 246 882 c 2
 163 882 l 2
 154 882 148 888 147 897 c 0
 137 1028 235 1164 382 1203 c 0
 409 1210 437 1214 466 1214 c 0
 591 1214 677 1133 718 1071 c 0
 755 1014 787 987 838 987 c 0
 927 987 978 1035 994 1110 c 0
 998 1129 1000 1149 999 1171 c 0
 999 1172 999 1173 999 1174 c 0
 1001 1185 1012 1196 1023 1196 c 2
 1106 1196 l 2
 1114 1196 1122 1190 1122 1181 c 0
 1126 1038 1027 900 894 870 c 0
 877 866 860 864 842 864 c 0
735 364 m 0
 617 364 531 442 490 507 c 0
 453 565 407 591 354 591 c 0
 247 591 186 536 169 457 c 0
 166 441 165 425 165 407 c 2
 165 407 165 405 165 404 c 0
 163 393 151 382 140 382 c 2
 57 382 l 2
 48 382 42 388 41 397 c 0
 31 528 129 664 276 703 c 0
 303 710 331 714 360 714 c 0
 485 714 570 633 611 571 c 0
 648 514 681 487 732 487 c 0
 821 487 872 535 888 610 c 0
 892 629 893 649 892 671 c 0
 892 672 892 673 892 674 c 0
 894 685 906 696 917 696 c 2
 1000 696 l 2
 1008 696 1016 690 1016 681 c 0
 1020 538 921 400 788 370 c 0
 771 366 753 364 735 364 c 0
EndSplineSet
EndChar

StartChar: notequal
Encoding: 8800 8800 205
Width: 1119
Flags: MW
LayerCount: 2
Fore
SplineSet
190 282 m 2
 859 1239 l 2
 884 1274 890 1276 906 1265 c 2
 938 1243 l 2
 954 1232 957 1225 929 1185 c 2
 259 228 l 2
 232 190 229 191 212 203 c 2
 178 226 l 2
 163 237 168 250 190 282 c 2
129 680 m 2
 939 680 l 2
 969 680 972 676 972 652 c 2
 972 603 l 2
 972 579 970 570 936 570 c 2
 126 570 l 2
 94 570 92 574 92 600 c 2
 92 652 l 2
 92 675 102 680 129 680 c 2
192 980 m 2
 1002 980 l 2
 1032 980 1035 976 1035 952 c 2
 1035 903 l 2
 1035 879 1033 870 999 870 c 2
 189 870 l 2
 157 870 155 874 155 900 c 2
 155 952 l 2
 155 975 165 980 192 980 c 2
EndSplineSet
EndChar

StartChar: lessequal
Encoding: 8804 8804 206
Width: 1119
Flags: MW
LayerCount: 2
Fore
SplineSet
24 170 m 2
 835 170 l 2
 865 170 869 166 869 142 c 2
 869 93 l 2
 869 69 866 60 832 60 c 2
 22 60 l 2
 -10 60 -12 64 -12 90 c 2
 -12 142 l 2
 -12 165 -3 170 24 170 c 2
296 752 m 2
 892 505 l 2
 919 494 930 487 930 447 c 2
 930 405 l 2
 930 360 912 366 886 377 c 2
 152 678 l 2
 123 690 120 699 120 740 c 2
 120 820 l 2
 120 862 125 863 154 873 c 2
 1046 1187 l 2
 1072 1196 1080 1193 1080 1159 c 2
 1080 1113 l 2
 1080 1076 1070 1065 1044 1056 c 2
 298 799 l 2
 267 788 250 787 250 776 c 0
 250 765 263 766 296 752 c 2
EndSplineSet
EndChar

StartChar: greaterequal
Encoding: 8805 8805 207
Width: 1119
Flags: MW
LayerCount: 2
Fore
SplineSet
26 170 m 2
 837 170 l 2
 867 170 871 166 871 142 c 2
 871 93 l 2
 871 69 868 60 834 60 c 2
 24 60 l 2
 -8 60 -10 64 -10 90 c 2
 -10 142 l 2
 -10 165 -1 170 26 170 c 2
824 798 m 2
 228 1045 l 2
 201 1056 190 1063 190 1103 c 2
 190 1145 l 2
 190 1190 208 1184 234 1173 c 2
 968 872 l 2
 997 860 1000 851 1000 810 c 2
 1000 730 l 2
 1000 688 995 687 966 677 c 2
 74 363 l 2
 48 354 40 357 40 391 c 2
 40 437 l 2
 40 474 50 485 76 494 c 2
 822 751 l 2
 853 762 870 763 870 774 c 0
 870 785 857 784 824 798 c 2
EndSplineSet
EndChar

StartChar: lozenge
Encoding: 9674 9674 208
Width: 1200
Flags: MW
LayerCount: 2
Fore
SplineSet
495 240 m 257
 321 702 l 257
 711 1182 l 257
 869 722 l 257
 495 240 l 257
458 30 m 257
 991 712 l 257
 748 1392 l 257
 191 712 l 257
 458 30 l 257
EndSplineSet
EndChar

StartChar: uniF8E8
Encoding: 63720 63720 209
Width: 1125
Flags: MW
LayerCount: 2
Fore
SplineSet
556 724 m 256
 786 724 996 889 1047 1130 c 256
 1098 1371 957 1536 728 1536 c 256
 498 1536 287 1371 236 1130 c 256
 184 888 327 724 556 724 c 256
740 1592 m 256
 1006 1592 1160 1395 1104 1130 c 256
 1048 864 809 668 544 668 c 256
 278 668 123 865 179 1130 c 256
 235 1396 475 1592 740 1592 c 256
880 915 m 0
 867 880 837 856 793 856 c 0
 733 856 717 886 717 926 c 0
 717 962 730 1006 730 1042 c 0
 730 1082 716 1112 656 1112 c 2
 545 1112 l 2
 534 1112 530 1109 528 1100 c 2
 490 915 l 2
 488 905 488 903 501 903 c 2
 559 903 l 2
 566 903 571 902 571 894 c 2
 571 878 l 2
 571 867 570 864 559 864 c 2
 342 864 l 2
 335 864 333 866 333 874 c 2
 333 891 l 2
 333 901 335 903 345 903 c 2
 403 903 l 2
 417 903 415 907 418 918 c 2
 511 1352 l 2
 513 1362 514 1364 501 1364 c 2
 454 1364 l 2
 442 1364 441 1367 441 1379 c 2
 441 1391 l 2
 441 1404 444 1404 457 1404 c 2
 714 1404 l 2
 837 1404 872 1346 872 1281 c 0
 872 1217 834 1163 758 1139 c 0
 745 1135 738 1136 738 1133 c 0
 738 1130 745 1130 758 1125 c 0
 795 1110 805 1081 805 1048 c 0
 805 1008 789 962 789 935 c 0
 789 919 799 906 816 906 c 0
 829 906 846 910 857 928 c 0
 861 935 862 935 870 931 c 2
 875 928 l 2
 882 924 883 924 880 915 c 0
559 1155 m 2
 663 1155 l 2
 718 1155 800 1203 800 1281 c 0
 800 1331 776 1364 714 1364 c 2
 599 1364 l 2
 587 1364 585 1361 583 1351 c 2
 544 1169 l 2
 541 1156 543 1155 559 1155 c 2
EndSplineSet
EndChar

StartChar: uniF8E9
Encoding: 63721 63721 210
Width: 1125
Flags: MW
LayerCount: 2
Fore
SplineSet
556 724 m 256
 786 724 996 889 1047 1130 c 256
 1098 1371 957 1536 728 1536 c 256
 498 1536 287 1371 236 1130 c 256
 184 888 327 724 556 724 c 256
740 1592 m 256
 1006 1592 1160 1395 1104 1130 c 256
 1048 864 809 668 544 668 c 256
 278 668 123 865 179 1130 c 256
 235 1396 475 1592 740 1592 c 256
848 1039 m 0
 804 953 723 847 581 847 c 0
 456 847 365 923 365 1074 c 0
 365 1226 496 1401 682 1401 c 0
 763 1401 813 1376 844 1339 c 0
 852 1330 851 1330 857 1340 c 2
 885 1388 l 2
 888 1392 891 1394 898 1394 c 2
 920 1394 l 2
 927 1394 928 1392 927 1386 c 2
 891 1222 l 2
 889 1212 888 1210 876 1210 c 2
 862 1210 l 2
 851 1210 850 1213 851 1222 c 0
 857 1301 785 1357 687 1357 c 0
 535 1357 448 1200 448 1074 c 0
 448 957 494 892 590 892 c 0
 686 892 763 977 800 1042 c 0
 803 1048 807 1052 816 1052 c 2
 834 1052 l 2
 851 1052 853 1049 848 1039 c 0
EndSplineSet
EndChar

StartChar: uniF8EA
Encoding: 63722 63722 211
Width: 1426
Flags: MW
LayerCount: 2
Fore
SplineSet
277 988 m 2
 277 1005 l 2
 277 1012 278 1015 285 1015 c 2
 346 1015 l 2
 362 1015 365 1016 368 1030 c 2
 461 1465 l 2
 464 1477 464 1479 449 1479 c 2
 422 1479 l 2
 327 1479 294 1447 266 1345 c 0
 264 1337 262 1331 251 1331 c 2
 237 1331 l 2
 225 1331 227 1339 229 1347 c 2
 264 1501 l 2
 267 1512 269 1515 283 1515 c 2
 738 1515 l 2
 757 1515 757 1512 754 1498 c 2
 718 1343 l 2
 716 1333 717 1331 704 1331 c 2
 694 1331 l 2
 679 1331 679 1333 682 1345 c 0
 703 1448 690 1479 595 1479 c 2
 553 1479 l 2
 540 1479 537 1477 534 1465 c 2
 441 1030 l 2
 438 1017 439 1015 455 1015 c 2
 514 1015 l 2
 525 1015 526 1012 526 1000 c 2
 526 989 l 2
 526 976 522 975 509 975 c 2
 287 975 l 2
 278 975 277 978 277 988 c 2
1292 1414 m 2
 1054 977 l 2
 1050 969 1046 968 1033 968 c 2
 1010 968 l 2
 1000 968 998 973 997 981 c 2
 938 1442 l 2
 937 1453 939 1462 935 1462 c 0
 932 1462 932 1456 929 1445 c 2
 826 1028 l 2
 823 1015 825 1015 841 1015 c 2
 895 1015 l 2
 903 1015 906 1013 906 1005 c 2
 906 985 l 2
 906 975 903 975 893 975 c 2
 704 975 l 2
 694 975 690 976 690 986 c 2
 690 1002 l 2
 690 1012 692 1015 702 1015 c 2
 753 1015 l 2
 774 1015 775 1015 779 1031 c 2
 887 1460 l 2
 891 1475 889 1475 870 1475 c 2
 824 1475 l 2
 813 1475 810 1477 810 1487 c 2
 810 1501 l 2
 810 1514 816 1515 828 1515 c 2
 966 1515 l 2
 990 1515 994 1513 997 1491 c 2
 1042 1105 l 2
 1045 1078 1042 1067 1049 1067 c 0
 1055 1067 1062 1084 1073 1105 c 2
 1288 1503 l 2
 1293 1512 1296 1515 1311 1515 c 2
 1458 1515 l 2
 1467 1515 1470 1513 1470 1504 c 2
 1470 1489 l 2
 1470 1476 1467 1475 1454 1475 c 2
 1398 1475 l 2
 1388 1475 1383 1475 1382 1466 c 2
 1306 1028 l 2
 1304 1016 1306 1015 1320 1015 c 2
 1383 1015 l 2
 1396 1015 1396 1011 1396 998 c 2
 1396 989 l 2
 1396 976 1393 975 1380 975 c 2
 1164 975 l 2
 1154 975 1152 977 1152 988 c 2
 1152 999 l 2
 1152 1012 1154 1015 1167 1015 c 2
 1226 1015 l 2
 1241 1015 1240 1018 1242 1030 c 2
 1310 1407 l 2
 1316 1440 1322 1454 1316 1454 c 0
 1310 1454 1305 1438 1292 1414 c 2
EndSplineSet
EndChar

StartChar: uniFF10
Encoding: 65296 65296 212
Width: 880
Flags: MW
LayerCount: 2
Fore
SplineSet
116 750 m 0
 241 1316 401 1520 647 1520 c 0
 913 1520 961 1316 836 750 c 0
 711 184 532 -20 306 -20 c 0
 60 -20 -9 184 116 750 c 0
336 750 m 0
 218 216 220 80 328 80 c 0
 456 80 498 216 616 750 c 0
 734 1284 753 1420 625 1420 c 0
 517 1420 454 1284 336 750 c 0
EndSplineSet
EndChar

StartChar: uniFF19
Encoding: 65305 65305 221
Width: 880
Flags: MW
LayerCount: 2
Fore
SplineSet
198 108 m 0
 192 82 228 64 276 64 c 0
 438 64 519 307 600 600 c 0
 609 633 616 646 610 650 c 0
 603 654 595 641 575 621 c 0
 528 577 460 540 358 540 c 0
 156 540 85 700 158 1030 c 0
 227 1340 417 1520 629 1520 c 0
 881 1520 962 1320 838 760 c 0
 732 280 540 -20 238 -20 c 0
 104 -20 27 74 52 188 c 0
 78 304 158 350 216 350 c 0
 270 350 320 308 304 234 c 0
 288 162 204 134 198 108 c 0
358 1030 m 0
 307 802 335 638 443 638 c 0
 569 638 643 780 678 940 c 0
 744 1238 767 1430 609 1430 c 0
 481 1430 406 1248 358 1030 c 0
EndSplineSet
EndChar

StartChar: zero.oldstyle
Encoding: 65538 -1 222
Width: 880
Flags: MW
LayerCount: 2
Fore
SplineSet
65 520 m 0
 146 886 299 1060 545 1060 c 0
 811 1060 866 886 785 520 c 0
 704 154 532 -20 306 -20 c 0
 60 -20 -16 154 65 520 c 0
285 520 m 0
 222 236 230 80 328 80 c 0
 446 80 502 236 565 520 c 0
 628 804 641 960 523 960 c 0
 425 960 348 804 285 520 c 0
EndSplineSet
Substitution2: "'tnum' Tabular Numbers lookup 2 subtable" zero.oldtab
EndChar

StartChar: one.oldstyle
Encoding: 65539 -1 223
Width: 700
Flags: MW
LayerCount: 2
Fore
SplineSet
-32 38 m 2
 -32 80 l 2
 -32 109.150141643 -15 110 14 110 c 2
 122 110 l 2
 158 110 166 118 174 152 c 2
 300 723 l 2
 308 759 308 770 273 770 c 2
 186 770 l 2
 157 770 139 772 139 804 c 2
 139 834 l 2
 139 870 153 879 191 880 c 0
 265 881 373 895 463 1088 c 0
 474 1111 481 1130 515 1130 c 2
 543 1130 l 2
 568 1130 581 1129 575 1104 c 2
 366 162 l 2
 356 115 360 110 408 110 c 2
 480 110 l 2
 506 110 518 109 518 80 c 2
 518 40 l 2
 518 8 506 0 475 0 c 2
 4 0 l 2
 -26 0 -32 6.875 -32 38 c 2
EndSplineSet
Substitution2: "'tnum' Tabular Numbers lookup 2 subtable" one.oldtab
EndChar

StartChar: two.oldstyle
Encoding: 65540 -1 224
Width: 834
Flags: MW
LayerCount: 2
Fore
SplineSet
704 290 m 0
 638 19 590 -60 447 -60 c 0
 283 -60 299 60 193 60 c 0
 124 60 85 31 55 -14 c 0
 40 -37 33 -40 -2 -40 c 2
 -31 -40 l 2
 -53 -40 -58 -34 -53 -14 c 0
 20 265 122 370 343 538 c 0
 459 626 512 712 540 840 c 0
 573 988 536 1056 468 1056 c 0
 390 1056 331 998 321 954 c 0
 311 908 421 888 405 816 c 0
 389 742 319 700 265 700 c 0
 207 700 150 756 171 852 c 0
 203 996 333 1140 517 1140 c 0
 709 1140 796 1040 752 840 c 0
 717 680 587 564 347 420 c 0
 241 356 172 279 142 214 c 0
 122 171 103 150 107 144 c 0
 111 138 129 162 171 177 c 0
 203 188 250 194 293 194 c 0
 393 194 398 126 470 126 c 0
 557 126 579 181 609 287 c 0
 617 312 622 314 649 314 c 2
 679 314 l 2
 703 314 709 314 704 290 c 0
EndSplineSet
Substitution2: "'tnum' Tabular Numbers lookup 2 subtable" two.oldtab
EndChar

StartChar: three.oldstyle
Encoding: 65541 -1 225
Width: 780
Flags: MW
LayerCount: 2
Fore
SplineSet
-127 -212 m 0
 -106 -116 -37 -30 41 -30 c 0
 115 -30 146 -72 130 -146 c 0
 105 -258 1 -258 -9 -304 c 0
 -21 -358 36 -397 104 -397 c 0
 272 -397 347 -228 380 -80 c 0
 421 104 396 245 251 257 c 0
 206 261 175 242.516601562 175 302 c 2
 175 320 l 2
 175 379 229 363 275 366 c 0
 418 374 491 566 517 682 c 0
 550 830 556 976 418 976 c 0
 320 976 274 930 262 876 c 0
 252 830 378 840 353 728 c 0
 337 654 288 612 214 612 c 0
 136 612 105 698 126 794 c 0
 153 918 263 1060 487 1060 c 0
 709 1060 764 922 720 722 c 0
 657 436 564 421 485 374 c 0
 436 345 390 332 385 310 c 0
 381 294 417 286 457 273 c 0
 604 223 616 74 582 -80 c 0
 533 -300 368 -480 86 -480 c 0
 -88 -480 -161 -366 -127 -212 c 0
EndSplineSet
Substitution2: "'tnum' Tabular Numbers lookup 2 subtable" three.oldtab
EndChar

StartChar: four.oldstyle
Encoding: 65542 -1 226
Width: 870
Flags: MW
LayerCount: 2
Fore
SplineSet
587 -376 m 2
 587 -434 l 2
 587 -457 574 -460 550 -460 c 2
 220 -460 l 2
 195 -460 185 -455 185 -428 c 2
 185 -383 l 2
 185 -357 197 -350 222 -350 c 2
 254 -350 l 2
 275 -350 284 -345 288 -325 c 2
 352 -38 l 2
 359 -7 357 0 327 0 c 2
 24 0 l 2
 -6 0 -12 3 -23 17 c 2
 -43 43 l 2
 -58 62 -52 68 -35 95 c 0
 178 426 427 590 617 987 c 0
 632 1017 629 1040 670 1040 c 2
 779 1040 l 2
 820 1040 826 1036 813 999 c 0
 667 587 354 414 139 158 c 0
 113 127 117 110 174 110 c 2
 366 110 l 2
 387 110 386 115 390 135 c 2
 418 260 l 2
 425 293 433 292 453 305 c 0
 508 341 546 388 596 478 c 0
 606 495 606 510 631 510 c 2
 637 510 l 2
 663 510 661 503 656 479 c 2
 584 154 l 2
 576 116 579 110 616 110 c 2
 673 110 l 2
 700 110 707 103 707 75 c 2
 707 30 l 2
 707 3 692 0 664 0 c 2
 585 0 l 2
 554 0 547 -10 541 -39 c 2
 480 -314 l 2
 473 -345 478 -350 510 -350 c 2
 547 -350 l 2
 572 -350 587 -351 587 -376 c 2
EndSplineSet
Substitution2: "'tnum' Tabular Numbers lookup 2 subtable" four.oldtab
EndChar

StartChar: five.oldstyle
Encoding: 65543 -1 227
Width: 840
Flags: MW
LayerCount: 2
Fore
SplineSet
-115 -202 m 0
 -91 -96 -11 -50 47 -50 c 0
 101 -50 151 -92 135 -166 c 0
 119 -238 16 -278 6 -324 c 0
 -2 -358 36 -396 114 -396 c 0
 292 -396 392 -208 438 0 c 0
 497 268 528 442 390 442 c 0
 307 442 247 409 180 343 c 0
 161 323 151 314 113 314 c 2
 71 314 l 2
 33 314 38 328 49 358 c 2
 275 1002 l 2
 286 1033 295 1040 329 1040 c 2
 475 1040 l 2
 547 1040 632 1009 707 1076 c 0
 719 1087 727 1104 752 1104 c 2
 809 1104 l 2
 823 1104 826 1102 820 1090 c 2
 797 1040 l 2
 725 876 685 860 411 860 c 2
 367 860 l 2
 337 860 325 856 315 828 c 2
 201 506 l 2
 184 458 169 434 176 430 c 0
 188 424 201 442 241 474 c 0
 279 504 358 540 436 540 c 0
 708 540 711 320 649 40 c 0
 582 -260 398 -480 116 -480 c 0
 -108 -480 -145 -336 -115 -202 c 0
EndSplineSet
Substitution2: "'tnum' Tabular Numbers lookup 2 subtable" five.oldtab
EndChar

StartChar: seven.oldstyle
Encoding: 65544 -1 228
Width: 818
Flags: MW
LayerCount: 2
Fore
SplineSet
76 702 m 0
 141 979 250 1060 405 1060 c 0
 519 1060 542 940 638 940 c 0
 712 940 752 973 783 1023 c 0
 791 1036 793 1040 812 1040 c 2
 881 1040 l 2
 904 1040 899 1034 891 1013 c 0
 834 863 641 548 477 276 c 0
 363 88 311 12 291 -76 c 0
 259 -222 318 -252 298 -344 c 0
 282 -418 228 -480 140 -480 c 0
 62 -480 24 -406 55 -268 c 0
 94 -90 227 94 365 302 c 0
 469 458 569 637 657 794 c 0
 669 816 679 831 675 836 c 0
 671 841 655 823 633 817 c 0
 605 809 575 806 539 806 c 0
 439 806 414 874 332 874 c 0
 231 874 200 821 171 706 c 0
 168 691 165 686 150 686 c 2
 94 686 l 2
 79 686 73 687 76 702 c 0
EndSplineSet
Substitution2: "'tnum' Tabular Numbers lookup 2 subtable" seven.oldtab
EndChar

StartChar: nine.oldstyle
Encoding: 65545 -1 229
Width: 840
Flags: MW
LayerCount: 2
Fore
SplineSet
76 -352 m 0
 70 -378 106 -396 154 -396 c 0
 316 -396 397 -153 478 140 c 0
 487 173 494 186 488 190 c 0
 481 194 473 181 453 161 c 0
 406 117 338 80 236 80 c 0
 34 80 -37 240 36 570 c 0
 105 880 295 1060 507 1060 c 0
 759 1060 841 860 717 300 c 0
 611 -180 418 -480 116 -480 c 0
 -18 -480 -95 -386 -70 -272 c 0
 -44 -156 36 -110 94 -110 c 0
 148 -110 198 -152 182 -226 c 0
 166 -298 82 -326 76 -352 c 0
236 570 m 0
 185 342 213 178 321 178 c 0
 447 178 521 320 556 480 c 0
 622 778 645 970 487 970 c 0
 359 970 284 788 236 570 c 0
EndSplineSet
Substitution2: "'tnum' Tabular Numbers lookup 2 subtable" nine.oldtab
EndChar

StartChar: zero.oldtab
Encoding: 65546 -1 230
Width: 880
Flags: MW
LayerCount: 2
Fore
SplineSet
65 520 m 0
 146 886 299 1060 545 1060 c 0
 811 1060 866 886 785 520 c 0
 704 154 532 -20 306 -20 c 0
 60 -20 -16 154 65 520 c 0
285 520 m 0
 222 236 230 80 328 80 c 0
 446 80 502 236 565 520 c 0
 628 804 641 960 523 960 c 0
 425 960 348 804 285 520 c 0
EndSplineSet
EndChar

StartChar: one.oldtab
Encoding: 65547 -1 231
Width: 880
Flags: MW
LayerCount: 2
Fore
SplineSet
58 38 m 2
 58 80 l 2
 58 109.150390625 75 110 104 110 c 2
 212 110 l 2
 248 110 256 118 264 152 c 2
 390 723 l 2
 398 759 398 770 363 770 c 2
 276 770 l 2
 247 770 229 772 229 804 c 2
 229 834 l 2
 229 870 243 879 281 880 c 0
 355 881 463 895 553 1088 c 0
 564 1111 571 1130 605 1130 c 2
 633 1130 l 2
 658 1130 671 1129 665 1104 c 2
 456 162 l 2
 446 115 450 110 498 110 c 2
 570 110 l 2
 596 110 608 109 608 80 c 2
 608 40 l 2
 608 8 596 0 565 0 c 2
 94 0 l 2
 64 0 58 6.875 58 38 c 2
EndSplineSet
EndChar

StartChar: two.oldtab
Encoding: 65548 -1 232
Width: 880
Flags: MW
LayerCount: 2
Fore
SplineSet
726.998046875 290 m 0
 660.998046875 19 612.998046875 -60 469.998046875 -60 c 0
 305.998046875 -60 321.998046875 60 215.998046875 60 c 0
 146.998046875 60 107.998046875 31 77.998046875 -14 c 0
 62.998046875 -37 55.998046875 -40 20.998046875 -40 c 2
 -8.001953125 -40 l 2
 -30.001953125 -40 -35.001953125 -34 -30.001953125 -14 c 0
 42.998046875 265 144.998046875 370 365.998046875 538 c 0
 481.998046875 626 534.998046875 712 562.998046875 840 c 0
 595.998046875 988 558.998046875 1056 490.998046875 1056 c 0
 412.998046875 1056 353.998046875 998 343.998046875 954 c 0
 333.998046875 908 443.998046875 888 427.998046875 816 c 0
 411.998046875 742 341.998046875 700 287.998046875 700 c 0
 229.998046875 700 172.998046875 756 193.998046875 852 c 0
 225.998046875 996 355.998046875 1140 539.998046875 1140 c 0
 731.998046875 1140 818.998046875 1040 774.998046875 840 c 0
 739.998046875 680 609.998046875 564 369.998046875 420 c 0
 263.998046875 356 194.998046875 279 164.998046875 214 c 0
 144.998046875 171 125.998046875 150 129.998046875 144 c 0
 133.998046875 138 151.998046875 162 193.998046875 177 c 0
 225.998046875 188 272.998046875 194 315.998046875 194 c 0
 415.998046875 194 420.998046875 126 492.998046875 126 c 0
 579.998046875 126 601.998046875 181 631.998046875 287 c 0
 639.998046875 312 644.998046875 314 671.998046875 314 c 2
 701.998046875 314 l 2
 725.998046875 314 731.998046875 314 726.998046875 290 c 0
EndSplineSet
EndChar

StartChar: three.oldtab
Encoding: 65549 -1 233
Width: 880
Flags: MW
LayerCount: 2
Fore
SplineSet
-77 -212 m 0
 -56 -116 13 -30 91 -30 c 0
 165 -30 196 -72 180 -146 c 0
 155 -258 51 -258 41 -304 c 0
 29 -358 86 -397 154 -397 c 0
 322 -397 397 -228 430 -80 c 0
 471 104 446 245 301 257 c 0
 256 261 225 242.516601562 225 302 c 2
 225 320 l 2
 225 379 279 363 325 366 c 0
 468 374 541 566 567 682 c 0
 600 830 606 976 468 976 c 0
 370 976 324 930 312 876 c 0
 302 830 428 840 403 728 c 0
 387 654 338 612 264 612 c 0
 186 612 155 698 176 794 c 0
 203 918 313 1060 537 1060 c 0
 759 1060 814 922 770 722 c 0
 707 436 614 421 535 374 c 0
 486 345 440 332 435 310 c 0
 431 294 467 286 507 273 c 0
 654 223 666 74 632 -80 c 0
 583 -300 418 -480 136 -480 c 0
 -38 -480 -111 -366 -77 -212 c 0
EndSplineSet
EndChar

StartChar: four.oldtab
Encoding: 65550 -1 234
Width: 880
Flags: MW
LayerCount: 2
Fore
SplineSet
592 -376 m 2
 592 -434 l 2
 592 -457 579 -460 555 -460 c 2
 225 -460 l 2
 200 -460 190 -455 190 -428 c 2
 190 -383 l 2
 190 -357 202 -350 227 -350 c 2
 259 -350 l 2
 280 -350 289 -345 293 -325 c 2
 357 -38 l 2
 364 -7 362 0 332 0 c 2
 29 0 l 2
 -1 0 -7 3 -18 17 c 2
 -38 43 l 2
 -53 62 -47 68 -30 95 c 0
 183 426 432 590 622 987 c 0
 637 1017 634 1040 675 1040 c 2
 784 1040 l 2
 825 1040 831 1036 818 999 c 0
 672 587 359 414 144 158 c 0
 118 127 122 110 179 110 c 2
 371 110 l 2
 392 110 391 115 395 135 c 2
 423 260 l 2
 430 293 438 292 458 305 c 0
 513 341 551 388 601 478 c 0
 611 495 611 510 636 510 c 2
 642 510 l 2
 668 510 666 503 661 479 c 2
 589 154 l 2
 581 116 584 110 621 110 c 2
 678 110 l 2
 705 110 712 103 712 75 c 2
 712 30 l 2
 712 3 697 0 669 0 c 2
 590 0 l 2
 559 0 552 -10 546 -39 c 2
 485 -314 l 2
 478 -345 483 -350 515 -350 c 2
 552 -350 l 2
 577 -350 592 -351 592 -376 c 2
EndSplineSet
EndChar

StartChar: five.oldtab
Encoding: 65551 -1 235
Width: 880
Flags: MW
LayerCount: 2
Fore
SplineSet
-94.9990234375 -202 m 0
 -70.9990234375 -96 9.0009765625 -50 67.0009765625 -50 c 0
 121.000976562 -50 171.000976562 -92 155.000976562 -166 c 0
 139.000976562 -238 36.0009765625 -278 26.0009765625 -324 c 0
 18.0009765625 -358 56.0009765625 -396 134.000976562 -396 c 0
 312.000976562 -396 412.000976562 -208 458.000976562 0 c 0
 517.000976562 268 548.000976562 442 410.000976562 442 c 0
 327.000976562 442 267.000976562 409 200.000976562 343 c 0
 181.000976562 323 171.000976562 314 133.000976562 314 c 2
 91.0009765625 314 l 2
 53.0009765625 314 58.0009765625 328 69.0009765625 358 c 2
 295.000976562 1002 l 2
 306.000976562 1033 315.000976562 1040 349.000976562 1040 c 2
 495.000976562 1040 l 2
 567.000976562 1040 652.000976562 1009 727.000976562 1076 c 0
 739.000976562 1087 747.000976562 1104 772.000976562 1104 c 2
 829.000976562 1104 l 2
 843.000976562 1104 846.000976562 1102 840.000976562 1090 c 2
 817.000976562 1040 l 2
 745.000976562 876 705.000976562 860 431.000976562 860 c 2
 387.000976562 860 l 2
 357.000976562 860 345.000976562 856 335.000976562 828 c 2
 221.000976562 506 l 2
 204.000976562 458 189.000976562 434 196.000976562 430 c 0
 208.000976562 424 221.000976562 442 261.000976562 474 c 0
 299.000976562 504 378.000976562 540 456.000976562 540 c 0
 728.000976562 540 731.000976562 320 669.000976562 40 c 0
 602.000976562 -260 418.000976562 -480 136.000976562 -480 c 0
 -87.9990234375 -480 -124.999023438 -336 -94.9990234375 -202 c 0
EndSplineSet
EndChar

StartChar: seven.oldtab
Encoding: 65552 -1 236
Width: 880
Flags: MW
LayerCount: 2
Fore
SplineSet
107 702 m 0
 172 979 281 1060 436 1060 c 0
 550 1060 573 940 669 940 c 0
 743 940 783 973 814 1023 c 0
 822 1036 824 1040 843 1040 c 2
 912 1040 l 2
 935 1040 930 1034 922 1013 c 0
 865 863 672 548 508 276 c 0
 394 88 342 12 322 -76 c 0
 290 -222 349 -252 329 -344 c 0
 313 -418 259 -480 171 -480 c 0
 93 -480 55 -406 86 -268 c 0
 125 -90 258 94 396 302 c 0
 500 458 600 637 688 794 c 0
 700 816 710 831 706 836 c 0
 702 841 686 823 664 817 c 0
 636 809 606 806 570 806 c 0
 470 806 445 874 363 874 c 0
 262 874 231 821 202 706 c 0
 199 691 196 686 181 686 c 2
 125 686 l 2
 110 686 104 687 107 702 c 0
EndSplineSet
EndChar

StartChar: nine.oldtab
Encoding: 65553 -1 237
Width: 880
Flags: MW
LayerCount: 2
Fore
SplineSet
96.001953125 -352 m 0
 90.001953125 -378 126.001953125 -396 174.001953125 -396 c 0
 336.001953125 -396 417.001953125 -153 498.001953125 140 c 0
 507.001953125 173 514.001953125 186 508.001953125 190 c 0
 501.001953125 194 493.001953125 181 473.001953125 161 c 0
 426.001953125 117 358.001953125 80 256.001953125 80 c 0
 54.001953125 80 -16.998046875 240 56.001953125 570 c 0
 125.001953125 880 315.001953125 1060 527.001953125 1060 c 0
 779.001953125 1060 861.001953125 860 737.001953125 300 c 0
 631.001953125 -180 438.001953125 -480 136.001953125 -480 c 0
 2.001953125 -480 -74.998046875 -386 -49.998046875 -272 c 0
 -23.998046875 -156 56.001953125 -110 114.001953125 -110 c 0
 168.001953125 -110 218.001953125 -152 202.001953125 -226 c 0
 186.001953125 -298 102.001953125 -326 96.001953125 -352 c 0
256.001953125 570 m 0
 205.001953125 342 233.001953125 178 341.001953125 178 c 0
 467.001953125 178 541.001953125 320 576.001953125 480 c 0
 642.001953125 778 665.001953125 970 507.001953125 970 c 0
 379.001953125 970 304.001953125 788 256.001953125 570 c 0
EndSplineSet
EndChar

StartChar: AE
Encoding: 198 198 247
Width: 2278
Flags: MW
LayerCount: 2
Fore
SplineSet
1145 1390 m 1
 1105 1390 1077.89855571 1378.91635592 1047 1328 c 2
 604 598 l 2
 585.391118962 567.335252466 596 550 659 550 c 2
 1096 550 l 17
 1106 440 l 9
 542 440 l 2
 509 440 493 440 481 420 c 2
 298 144 l 2
 282 125 284 110 326 110 c 2
 346 110 l 2
 368 110 380 106 380 82 c 2
 380 38 l 2
 380 5 374 0 340 0 c 2
 28 0 l 2
 -3 0 0 4 0 34 c 2
 0 72 l 2
 0 101 1 110 30 110 c 2
 68 110 l 2
 105 110 112 124 129 144 c 2
 1012 1472 l 2
 1027 1489 1029 1500 1063 1500 c 2
 1128 1500 l 1
 1145 1390 l 1
EndSplineSet
Refer: 16 69 N 1 0 0 1 820 0 2
EndChar

StartChar: Thorn
Encoding: 222 222 268
Width: 1006
Flags: MW
LayerCount: 2
Back
SplineSet
340 450 m 2
 448 450 l 2
 650 450 768 632 768 910 c 0
 768 1008 710 1070 588 1070 c 2
 460 1070 l 2
 424 1070 424 1068 418 1038 c 2
 302 493 l 2
 294 454 293 450 340 450 c 2
256 290 m 2
 162 -160 l 2
 154 -200 151 -210 204 -210 c 2
 236 -210 l 2
 267 -210 274 -215 274 -248 c 2
 274 -292 l 2
 274 -317 262 -320 236 -320 c 2
 -150 -320 l 2
 -177 -320 -186 -319 -186 -292 c 2
 -186 -244 l 2
 -186 -210 -176 -210 -142 -210 c 2
 -88 -210 l 2
 -39 -210 -45 -196 -37 -158 c 2
 218 1033 l 2
 225 1066 224 1070 184 1070 c 2
 154 1070 l 2
 129 1070 124 1077 124 1100 c 2
 124 1146 l 2
 124 1177 135 1180 164 1180 c 2
 608 1180 l 2
 870 1180 988 1100 988 890 c 0
 988 600 820 340 458 340 c 2
 320 340 l 2
 271 340 265 330 256 290 c 2
EndSplineSet
Fore
SplineSet
422 1049 m 2
 297 470 l 2
 293 453 307 450 340 450 c 2
 418 450 l 2
 650 450 768 632 768 890 c 0
 768 988 730 1070 598 1070 c 2
 460 1070 l 2
 436 1070 426 1069 422 1049 c 2
-116 34 m 2
 -116 82 l 2
 -116 105 -108 110 -86 110 c 2
 -32 110 l 2
 14 110 20 112 29 151 c 2
 284 1348 l 2
 293 1387 288 1390 238 1390 c 2
 218 1390 l 2
 192 1390 192 1395 192 1421 c 2
 192 1464 l 2
 192 1494 197 1500 226 1500 c 2
 574 1500 l 2
 602 1500 610 1496 610 1466 c 2
 610 1422 l 2
 610 1393 602 1390 572 1390 c 2
 528 1390 l 2
 486 1390 491 1379 484 1346 c 2
 453 1198 l 2
 449 1180 448 1180 470 1180 c 2
 598 1180 l 2
 910 1180 988 1070 988 890 c 0
 988 550 790 340 418 340 c 2
 300 340 l 2
 270 340 269 336 266 321 c 2
 231 150 l 2
 222 111 230 110 278 110 c 2
 300 110 l 2
 342 110 344 102 344 60 c 2
 344 38 l 2
 344 8 341 0 312 0 c 2
 -78 0 l 2
 -109 0 -116 4 -116 34 c 2
EndSplineSet
EndChar

StartChar: Eth
Encoding: 208 208 276
Width: 1124
Flags: MW
LayerCount: 2
Fore
SplineSet
110 840 m 2
 552 840 l 2
 580 840 583 836 583 812 c 2
 583 763 l 2
 583 739 581 730 549 730 c 2
 108 730 l 2
 78 730 76 734 76 760 c 2
 76 812 l 2
 76 835 84 840 110 840 c 2
EndSplineSet
Refer: 15 68 N 1 0 0 1 0 0 2
EndChar

StartChar: Oslash
Encoding: 216 216 277
Width: 1050
Flags: MW
LayerCount: 2
Fore
SplineSet
996 1660 m 2
 1041 1660 l 2
 1079 1660 1084 1653 1070 1630 c 2
 133 -168 l 2
 117 -194 112 -200 71 -200 c 2
 39 -200 l 2
 -10 -200 -18 -186 -1 -158 c 2
 940 1626 l 2
 955 1651 956 1660 996 1660 c 2
EndSplineSet
Refer: 26 79 N 1 0 0 1 0 0 2
EndChar

StartChar: ae
Encoding: 230 230 278
Width: 1226
Flags: MW
LayerCount: 2
Back
SplineSet
683 360 m 0
 683 760 915 1060 1191 1060 c 0
 1316 1060 1396 988 1396 864 c 0
 1396 630 1146 470 923 397 c 0
 880 384 867 374 867 310 c 0
 867 162 905 78 978 78 c 0
 1088 78 1167 172 1239 288 c 0
 1250 305 1257 306 1286 306 c 2
 1315 306 l 2
 1353 306 1358 302 1341 272 c 0
 1254 118 1132 -20 944 -20 c 0
 768 -20 683 160 683 360 c 0
931 488 m 0
 1106 568 1228 716 1230 894 c 0
 1231 938 1212 966 1172 966 c 0
 1079 966 948 773 897 556 c 0
 884 503 883 468 931 488 c 0
EndSplineSet
Fore
SplineSet
726 488 m 0
 918 583 1029 716 1029 874 c 0
 1029 948 1003 966 965 966 c 0
 888 966 716 730 684 496 c 0
 682 479 705.2109375 477.713867188 726 488 c 0
477 447 m 2
 487 494 492 522 463 522 c 2
 419 522 l 2
 287 522 216 430 203 276 c 0
 191 140 240 92 280 92 c 0
 416 92 424 200 463 382 c 2
 477 447 l 2
-8 246 m 0
 12 434 151 598 435 598 c 2
 483 598 l 2
 506 598 510 600 515 624 c 2
 538 734 l 2
 566 868 542 968 452 968 c 0
 384 968 331 955 331 915 c 0
 331 878 395 870 395 786 c 0
 395 717 348 670 280 670 c 0
 218 670 167 716 167 806 c 0
 167 978 299 1060 461 1060 c 0
 573 1060 649 1030 685 970 c 0
 700 943 697.486328125 929.946289062 726 958 c 0
 788 1019 871 1060 965 1060 c 0
 1119 1060 1201 998 1201 854 c 0
 1201 650 979 475 720 397 c 0
 697.893554688 390.342773438 677 396 673 376 c 0
 640 220 698 78 777 78 c 0
 885 78 940 135 1044 282 c 0
 1053.3125 295.163085938 1057 306 1077 306 c 2
 1135 306 l 2
 1155 306 1158.41113281 299.256835938 1150 285 c 0
 1032 85 939 -20 743 -20 c 0
 599 -20 557 84 536 124 c 0
 526.051757812 142.948242188 505.457000059 163.004218852 488 133 c 0
 456 78 397 -20 226 -20 c 0
 78 -20 -26 75 -8 246 c 0
EndSplineSet
EndChar

StartChar: germandbls
Encoding: 223 223 279
Width: 1011
Flags: MW
LayerCount: 2
Fore
SplineSet
880 320 m 0
 880 95 790 -20 548 -20 c 0
 395 -20 277 71 277 221 c 0
 277 305 339 372 419 372 c 0
 480 372 523 333 523 260 c 0
 523 224 493 196 464 176 c 0
 438 159 436.317382812 151.244140625 447 137 c 0
 471 105 515 93 553 93 c 0
 621 93 672 159 672 290 c 0
 672 512 623 572 623 787 c 0
 623 1042 932 1101 932 1293 c 0
 932 1378 865 1463 717 1463 c 0
 469 1463 415 1246 355 962 c 2
 159 37 l 2
 152 5 145 0 111 0 c 2
 -84 0 l 2
 -112 0 -113 8 -114 37 c 2
 -114 80 l 2
 -114 108 -99 113 -73 113 c 2
 -43 113 l 2
 -7 113 -3 128 4 161 c 2
 179 982 l 2
 253 1328 364 1570 740 1570 c 0
 956 1570 1111 1508 1111 1322 c 0
 1111 1098 783 956 783 843 c 0
 783 714 880 558 880 320 c 0
EndSplineSet
EndChar

StartChar: eth
Encoding: 240 240 288
Width: 1240
Flags: MW
LayerCount: 2
Fore
SplineSet
248 508 m 0
 202 290 229 68 447 68 c 0
 645 68 857 359 918 648 c 0
 952 808 842 960 676 960 c 0
 468 960 296 736 248 508 c 0
48 508 m 0
 118 838 381 1058 653 1058 c 0
 835 1058 897 971 940 907 c 0
 953 888 954 874 963 878 c 0
 971 882 970 895 975 928 c 0
 1030 1256 788 1364 634 1452 c 0
 620 1460 611 1460 623 1478 c 2
 661 1539 l 2
 671 1555 677 1556 691 1550 c 0
 912 1446 1233 1185 1129 698 c 0
 1021 188 770 -22 448 -22 c 0
 126 -22 -20 188 48 508 c 0
EndSplineSet
Refer: 84 45 N 0.749531 0.661969 -0.661969 0.749531 1178 665 2
EndChar

StartChar: oslash
Encoding: 248 248 295
Width: 787
Flags: MW
LayerCount: 2
Fore
SplineSet
736 1215 m 2
 781 1215 l 2
 819 1215 824 1209 810 1192 c 2
 73 -165 l 2
 57 -185 52 -189 11 -189 c 2
 -21 -189 l 2
 -70 -189 -78 -179 -61 -158 c 2
 680 1189 l 2
 695 1208 696 1215 736 1215 c 2
EndSplineSet
Refer: 52 111 N 1 0 0 1 0 0 2
EndChar

StartChar: thorn
Encoding: 254 254 301
Width: 825
Flags: MW
LayerCount: 2
Fore
SplineSet
312 1560 m 2
 468 1560 l 2
 517 1560 517 1557 507 1514 c 2
 374 949 l 2
 361 893 378 881 405 927 c 0
 452 1006 512 1058 585 1058 c 0
 718 1058 793 896 793 698 c 0
 793 308 567 -20 337 -20 c 0
 283 -20 243 7 221 57 c 0
 194 117 192 122 176 52 c 2
 61 -456 l 2
 54 -487 50 -502 10 -502 c 2
 -95 -502 l 2
 -131 -502 -131 -493 -125 -466 c 2
 309 1398 l 2
 317 1434 324 1450 294 1450 c 2
 288 1450 l 2
 267 1450 266 1459 266 1490 c 2
 266 1519 l 2
 266 1557 276 1560 312 1560 c 2
251 268 m 0
 251 169.979593961 270 62 337 62 c 0
 455 62 607 480 607 768 c 0
 607 886 597 964 540 964 c 0
 411 964 251 456 251 268 c 0
EndSplineSet
EndChar

StartChar: Dcroat
Encoding: 272 272 319
Width: 1124
Flags: MW
LayerCount: 2
Fore
SplineSet
110 840 m 2
 552 840 l 2
 580 840 583 836 583 812 c 2
 583 763 l 2
 583 739 581 730 549 730 c 2
 108 730 l 2
 78 730 76 734 76 760 c 2
 76 812 l 2
 76 835 84 840 110 840 c 2
EndSplineSet
Refer: 15 68 N 1 0 0 1 0 0 2
EndChar

StartChar: dcroat
Encoding: 273 273 320
Width: 819
Flags: MW
LayerCount: 2
Fore
SplineSet
593 1300 m 2
 931 1300 l 2
 956 1300 958 1296 958 1272 c 2
 958 1223 l 2
 958 1199 956 1190 928 1190 c 2
 591 1190 l 2
 564 1190 563 1194 563 1220 c 2
 563 1272 l 2
 563 1295 571 1300 593 1300 c 2
EndSplineSet
Refer: 41 100 N 1 0 0 1 -0 0 2
EndChar

StartChar: gcircumflex
Encoding: 285 285 332
Width: 730
Flags: MW
LayerCount: 2
Fore
SplineSet
-143 -270 m 0
 -143 -154 -53 -66 40 -10 c 0
 69 8 62 1 39 13 c 0
 -13 38 -33 76 -33 128 c 0
 -33 236 64 309 167 350 c 0
 206 365 199 365 172 380 c 0
 100 421 64 502 64 600 c 0
 64 860 241 1060 459 1060 c 0
 476 1060 480 1059 486 1058 c 0
 500 1056 499.325492043 1053.97313607 508 1068 c 0
 555 1144 625 1210 720 1210 c 0
 812 1210 867 1160 867 1058 c 0
 867 978 818 928 758 928 c 0
 702 928 660 965 660 1016 c 0
 660 1086 764 1126 706 1126 c 0
 679 1126 619 1109 580 1051 c 0
 572.555383609 1039.92851921 570 1031 580 1025 c 0
 629 997 688 914 688 788 c 0
 688 508 485 320 300 320 c 0
 294 320 289 320 285 320 c 0
 278 320 275 319 255 310 c 0
 192 282 123 242 123 202 c 0
 123 146 190 138 244 138 c 0
 253 138 322 138 327 138 c 0
 500 138 554 63 554 -104 c 0
 554 -356 344 -500 100 -500 c 0
 -89 -500 -143 -398 -143 -270 c 0
128 -23 m 0
 87 -74 37 -138 37 -264 c 0
 37 -344 75 -388 185 -388 c 0
 284 -388 427 -312 427 -144 c 0
 427 -53 401 -18 315 -18 c 0
 277 -18 231 -18 218 -18 c 0
 200 -18 197 -18 156 -14 c 0
 141 -12 136 -13 128 -23 c 0
232 524 m 0
 232 440 260 400 318 400 c 0
 428 400 523 646 523 862 c 0
 523 942.024996095 499 980 442 980 c 0
 327 980 232 728 232 524 c 0
EndSplineSet
Refer: 123 770 N 1 0 0 1 -200 -420 2
Substitution2: "'smcp' Lowercase to Small Capitals in Latin lookup 0 subtable" gcircumflex.sc
EndChar

StartChar: gbreve
Encoding: 287 287 334
Width: 730
Flags: MW
LayerCount: 2
Fore
SplineSet
505.556640625 1330 m 256
 313.556640625 1330 280.556640625 1425 308.556640625 1569 c 0
 312.556640625 1586 318.556640625 1588 335.556640625 1588 c 2
 349.556640625 1588 l 2
 363.556640625 1588 366.556640625 1585 364.556640625 1572 c 0
 352.556640625 1482 406.556640625 1440 503.556640625 1440 c 256
 595.556640625 1440 669.556640625 1478 698.556640625 1559 c 0
 705.556640625 1578 700.556640625 1588 724.556640625 1588 c 2
 751.556640625 1588 l 2
 772.556640625 1588 771.556640625 1584 766.556640625 1564 c 0
 731.556640625 1424 654.556640625 1330 505.556640625 1330 c 256
EndSplineSet
Refer: 44 103 N 1 0 0 1 0 0 3
Substitution2: "'smcp' Lowercase to Small Capitals in Latin lookup 0 subtable" gbreve.sc
EndChar

StartChar: hcircumflex
Encoding: 293 293 340
Width: 873
Flags: MW
LayerCount: 2
Fore
SplineSet
548.274414062 1225 m 2
 533.274414062 1249 l 2
 521.274414062 1264 522.274414062 1264 540.274414062 1279 c 2
 708.274414062 1467 l 2
 725.274414062 1481 735.274414062 1484 764.274414062 1484 c 2
 849.274414062 1484 l 2
 875.274414062 1484 883.274414062 1479 892.274414062 1467 c 2
 983.274414062 1275 l 2
 991.274414062 1265 992.274414062 1265 979.274414062 1254 c 2
 950.274414062 1230 l 2
 932.274414062 1215 932.274414062 1217 918.274414062 1229 c 2
 824.274414062 1365 l 2
 809.274414062 1378 795.274414062 1379 774.274414062 1366 c 2
 583.274414062 1219 l 2
 566.274414062 1208 558.274414062 1212 548.274414062 1225 c 2
EndSplineSet
Refer: 45 104 N 1 0 0 1 0 0 3
Substitution2: "'smcp' Lowercase to Small Capitals in Latin lookup 0 subtable" hcircumflex.sc
EndChar

StartChar: Hbar
Encoding: 294 294 349
Width: 1196
Flags: MW
LayerCount: 2
Fore
SplineSet
222 1190 m 2
 1163 1190 l 2
 1218 1190 1225 1186 1225 1162 c 2
 1225 1113 l 2
 1225 1089 1220 1080 1158 1080 c 2
 218 1080 l 2
 158 1080 156 1084 156 1110 c 2
 156 1162 l 2
 156 1185 172 1190 222 1190 c 2
EndSplineSet
Refer: 19 72 N 1 0 0 1 0 0 2
EndChar

StartChar: hbar
Encoding: 295 295 350
Width: 873
Flags: MW
LayerCount: 2
Fore
SplineSet
222.274414062 1290 m 2
 574.274414062 1290 l 2
 602.274414062 1290 606.274414062 1286 606.274414062 1262 c 2
 606.274414062 1213 l 2
 606.274414062 1189 604.274414062 1180 572.274414062 1180 c 2
 220.274414062 1180 l 2
 190.274414062 1180 188.274414062 1184 188.274414062 1210 c 2
 188.274414062 1262 l 2
 188.274414062 1285 196.274414062 1290 222.274414062 1290 c 2
EndSplineSet
Refer: 45 104 N 1 0 0 1 0 0 2
EndChar

StartChar: uni0237
Encoding: 567 567 356
Width: 355
Flags: MW
AnchorPoint: "Anchor-0" 223 1040 basechar 0
LayerCount: 2
Fore
SplineSet
347 991 m 2
 138 22 l 2
 72 -281 66 -520 -176 -520 c 0
 -324 -520 -398 -420 -398 -306 c 0
 -398 -207 -340 -138 -260 -138 c 0
 -192 -138 -144 -184 -144 -250 c 0
 -144 -320 -222 -334 -222 -374 c 0
 -222 -400 -210 -432 -156 -432 c 0
 6 -432 -52 -22 -2 208 c 2
 145 887 l 2
 154 927 148 930 98 930 c 2
 86 930 l 2
 61 930 58 937 58 963 c 2
 58 1001 l 2
 58 1032 61 1040 91 1040 c 2
 302 1040 l 2
 356 1040 356 1033 347 991 c 2
EndSplineSet
EndChar

StartChar: kgreenlandic
Encoding: 312 312 359
Width: 751
Flags: MW
LayerCount: 2
Fore
SplineSet
683 191 m 0
 622 43 571 -20 475 -20 c 0
 369 -20 336.782178218 57.8217821782 348 170 c 2
 359 280 l 2
 370.297029703 392.97029703 388 461 364 517 c 0
 356 534 348 533 332 529 c 0
 323 527 313 524 299 524 c 0
 285 524 277 526 268 528 c 0
 256 531 246 531 243 518 c 2
 128 21 l 2
 124 3 125 0 102 0 c 2
 -27 0 l 2
 -65 0 -55 9 -48 37 c 2
 150 899 l 2
 156 925 157 930 135 930 c 2
 125 930 l 2
 104 930 103 939 103 961 c 2
 103 1012 l 2
 103 1031 104 1040 123 1040 c 2
 336 1040 l 2
 361 1040 360 1027 356 1010 c 2
 292 735 l 2
 282 690 275 668 291 673 c 0
 306 677 313 678 325 678 c 0
 342 678 351 675 358 672 c 0
 372 666 385 656 404 691 c 0
 418 715 429 746 440 784 c 0
 489 960 531 1060 625 1060 c 0
 729 1060 765 972 765 898 c 0
 765 830 720 773 668 773 c 0
 620 773 589 806 589 856 c 0
 589 920.0078125 628 924 629 956 c 0
 629 976 623 980 611 980 c 0
 580 980 547 910 502 740 c 0
 491 700 476 667 459 640 c 0
 443 614 452.068150948 618.057728877 469 598 c 0
 534 521 542 447 530 282 c 2
 519 144 l 2
 515 90 521 84 533 84 c 0
 549 84 579 139 606 214 c 0
 617 244 621 246 644 240 c 2
 670 233 l 2
 690 228 695 220 683 191 c 0
EndSplineSet
EndChar

StartChar: Lslash
Encoding: 321 321 368
Width: 976
Flags: MW
LayerCount: 2
Fore
SplineSet
24 736 m 2
 658 1139 l 2
 678 1152 691 1173 691 1132 c 2
 691 1083 l 2
 691 1048 689 1044 668 1031 c 2
 30 625 l 2
 10 613 0 594 0 634 c 2
 0 695 l 2
 0 725 7 725 24 736 c 2
EndSplineSet
Refer: 23 76 N 1 0 0 1 0 0 2
EndChar

